<svg width="25" height="24" viewBox="0 0 25 24" fill="none" xmlns="http://www.w3.org/2000/svg">
<path d="M2.5 15V9C2.5 7.4087 3.13214 5.88258 4.25736 4.75736C5.38258 3.63214 6.9087 3 8.5 3H16.5C18.0913 3 19.6174 3.63214 20.7426 4.75736C21.8679 5.88258 22.5 7.4087 22.5 9V15C22.5 16.5913 21.8679 18.1174 20.7426 19.2426C19.6174 20.3679 18.0913 21 16.5 21H8.5C6.9087 21 5.38258 20.3679 4.25736 19.2426C3.13214 18.1174 2.5 16.5913 2.5 15Z" stroke="#9A9A9A" stroke-width="1.5"/>
<path d="M12.5 15V9H15C15.3978 9 15.7794 9.15804 16.0607 9.43934C16.342 9.72064 16.5 10.1022 16.5 10.5C16.5 10.8978 16.342 11.2794 16.0607 11.5607C15.7794 11.842 15.3978 12 15 12H12.5M9.5 9V15" stroke="#9A9A9A" stroke-width="1.5" stroke-linecap="round" stroke-linejoin="round"/>
</svg>
