<?xml version="1.0" encoding="UTF-8"?>
<svg version="1.1" xmlns="http://www.w3.org/2000/svg" width="20000" height="3456">
<path d="M0 0 C6600 0 13200 0 20000 0 C20000 1140.48 20000 2280.96 20000 3456 C13400 3456 6800 3456 0 3456 C0 2315.52 0 1175.04 0 0 Z " fill="#5F6116" transform="translate(0,0)"/>
<path d="M0 0 C3651.45 0 7302.9 0 11065 0 C11065 1140.48 11065 2280.96 11065 3456 C8501.89 3456 5938.78 3456 3298 3456 C3295.525 3447.585 3295.525 3447.585 3293 3439 C3291.77634012 3435.23280015 3290.53889083 3431.48218298 3289.25 3427.73828125 C3288.91515091 3426.75611633 3288.58030182 3425.77395142 3288.23530579 3424.76202393 C3287.1601621 3421.61104698 3286.08006765 3418.4617921 3285 3415.3125 C3284.23947757 3413.08532453 3283.47931008 3410.85802783 3282.71948242 3408.63061523 C3279.3233853 3398.68111088 3275.91172748 3388.73699889 3272.48828125 3378.796875 C3271.42898245 3375.71899208 3270.37044007 3372.6408502 3269.3125 3369.5625 C3269.05180725 3368.80432983 3268.7911145 3368.04615967 3268.52252197 3367.26501465 C3264.03100733 3354.18562982 3259.75439878 3341.04198711 3255.51016235 3327.88064575 C3250.17466132 3311.36231815 3244.51770432 3294.96481609 3238.80596924 3278.57339478 C3231.89088646 3258.70473828 3225.27333423 3238.7497094 3218.75 3218.75 C3212.65115217 3200.05336103 3206.48393019 3181.39769248 3199.90270996 3162.8638916 C3192.93159035 3143.18834894 3186.49527275 3123.33621646 3180 3103.5 C3170.00729972 3072.91293445 3170.00729972 3072.91293445 3159.5 3042.5 C3151.99690118 3021.40780746 3145.09669003 3000.11829085 3138.13043213 2978.84448242 C3128.56097637 2949.58905685 3128.56097637 2949.58905685 3118.5 2920.5 C3110.99705947 2899.40825245 3104.09693262 2878.11920024 3097.13087845 2856.84582138 C3090.46546825 2836.49277847 3083.78372952 2816.15963635 3076.60791016 2795.97949219 C3069.60770648 2776.25498118 3063.17461939 2756.34246974 3056.66622162 2736.45185089 C3047.35440844 2707.98846323 3047.35440844 2707.98846323 3037.5625 2679.6875 C3030.35216714 2659.40949917 3023.69698183 2638.95166865 3017 2618.5 C3007.0072628 2587.91294708 3007.0072628 2587.91294708 2996.5 2557.5 C2988.99690118 2536.40780746 2982.09669003 2515.11829085 2975.13043213 2493.84448242 C2965.56097637 2464.58905685 2965.56097637 2464.58905685 2955.5 2435.5 C2947.99705947 2414.40825245 2941.09693262 2393.11920024 2934.13087845 2371.84582138 C2927.46546825 2351.49277847 2920.78372952 2331.15963635 2913.60791016 2310.97949219 C2906.60770648 2291.25498118 2900.17461939 2271.34246974 2893.66622162 2251.45185089 C2884.35440844 2222.98846323 2884.35440844 2222.98846323 2874.5625 2194.6875 C2867.35216714 2174.40949917 2860.69698183 2153.95166865 2854 2133.5 C2844.0072628 2102.91294708 2844.0072628 2102.91294708 2833.5 2072.5 C2825.99690118 2051.40780746 2819.09669003 2030.11829085 2812.13043213 2008.84448242 C2802.56097637 1979.58905685 2802.56097637 1979.58905685 2792.5 1950.5 C2784.99705947 1929.40825245 2778.09693262 1908.11920024 2771.13087845 1886.84582138 C2764.46546825 1866.49277847 2757.78372952 1846.15963635 2750.60791016 1825.97949219 C2743.60770648 1806.25498118 2737.17461939 1786.34246974 2730.66622162 1766.45185089 C2721.35440844 1737.98846323 2721.35440844 1737.98846323 2711.5625 1709.6875 C2704.35216714 1689.40949917 2697.69698183 1668.95166865 2691 1648.5 C2681.00671853 1617.91313326 2681.00671853 1617.91313326 2670.5 1587.5 C2661.50934725 1562.21030391 2653.28273754 1536.65983006 2644.92750549 1511.15513611 C2644.39568793 1509.53180713 2643.8638632 1507.90848051 2643.33203125 1506.28515625 C2643.0689813 1505.48218676 2642.80593136 1504.67921726 2642.5349102 1503.85191536 C2634.3035381 1478.7318633 2625.93700398 1453.65815397 2617.40390015 1428.63894653 C2609.22539202 1404.6486103 2601.18741253 1380.61286712 2593.1875 1356.5625 C2586.62896021 1336.84554554 2580.06912111 1317.13136942 2573.30380249 1297.48416138 C2566.72813392 1278.37022786 2560.38060583 1259.17967004 2554 1240 C2543.76974999 1209.23012221 2543.76974999 1209.23012221 2533.32046509 1178.53414917 C2528.9606188 1165.8692126 2524.70982203 1153.1686151 2520.4765625 1140.4609375 C2520.03311524 1139.12983287 2520.03311524 1139.12983287 2519.58070946 1137.77183723 C2516.56415345 1128.71548755 2513.55093324 1119.65803377 2510.54232407 1110.59904099 C2503.21325791 1088.49525876 2503.21325791 1088.49525876 2495.65625 1066.46875 C2491.52910976 1054.65069862 2487.56631678 1042.77954377 2483.61328125 1030.90234375 C2483.27966772 1029.90006304 2482.94605419 1028.89778233 2482.60233116 1027.86512947 C2479.82248597 1019.51152639 2477.04646164 1011.15665443 2474.27069092 1002.80169678 C2471.86589052 995.56380099 2469.4595599 988.32641661 2467.05078125 981.08984375 C2466.71109943 980.06927761 2466.37141762 979.04871147 2466.02144241 977.99721909 C2461.06856719 963.12431941 2456.04220194 948.27807967 2450.95923805 933.44918633 C2444.93854631 915.88083756 2439.06036511 898.266445 2433.20773315 880.64151001 C2430.25939716 871.76324169 2427.30441332 862.88718567 2424.34765625 854.01171875 C2424.06098146 853.15114553 2423.77430668 852.29057232 2423.47894478 851.40392113 C2419.11127673 838.29631691 2414.69132829 825.20817688 2410.19091797 812.14550781 C2403.35001804 792.27117185 2396.7594203 772.31239347 2390.12459564 752.36859894 C2380.32723408 722.91604056 2380.32723408 722.91604056 2370.32046509 693.53414917 C2365.9606188 680.8692126 2361.70982203 668.1686151 2357.4765625 655.4609375 C2357.180931 654.57353441 2356.88529949 653.68613132 2356.58070946 652.77183723 C2353.56415186 643.71548279 2350.55093011 634.65802422 2347.5423193 625.59902668 C2340.22327348 603.52445956 2340.22327348 603.52445956 2332.67578125 581.52734375 C2328.48023983 569.51515204 2324.45565559 557.4474538 2320.4375 545.375 C2320.09767405 544.35408201 2319.75784809 543.33316402 2319.40772438 542.28130913 C2316.57831185 533.77898855 2313.7528051 525.27537085 2310.92736816 516.77172852 C2308.47416271 509.38890274 2306.01954749 502.00654808 2303.5625 494.625 C2303.05168853 493.09028455 2303.05168853 493.09028455 2302.53055763 491.52456474 C2298.58470609 479.67556255 2294.59513885 467.84658326 2290.4719696 456.05799866 C2286.75107088 445.37344868 2283.18610568 434.63712433 2279.61328125 423.90234375 C2279.2794128 422.89929829 2278.94554436 421.89625282 2278.60155869 420.86281204 C2275.82197095 412.50998145 2273.04620491 404.1558817 2270.27069092 395.80169678 C2267.86589052 388.56380099 2265.4595599 381.32641661 2263.05078125 374.08984375 C2262.71109943 373.06927761 2262.37141762 372.04871147 2262.02144241 370.99721909 C2257.06856719 356.12431941 2252.04220194 341.27807967 2246.95923805 326.44918633 C2240.93854631 308.88083756 2235.06036511 291.266445 2229.20773315 273.64151001 C2226.25939716 264.76324169 2223.30441332 255.88718567 2220.34765625 247.01171875 C2220.06098146 246.15114553 2219.77430668 245.29057232 2219.47894478 244.40392113 C2215.11127673 231.29631691 2210.69132829 218.20817688 2206.19091797 205.14550781 C2199.35231508 185.27784527 2192.76379662 165.32581163 2186.13129044 145.38868332 C2176.22256743 115.60004591 2176.22256743 115.60004591 2166.125 85.875 C2165.59357102 84.32601468 2165.06215789 82.77702392 2164.53076172 81.22802734 C2164.27575897 80.48471161 2164.02075623 79.74139587 2163.75802612 78.97555542 C2163.5078775 78.24627838 2163.25772888 77.51700134 2163 76.765625 C2162.75621613 76.0549588 2162.51243225 75.3442926 2162.26126099 74.61209106 C2159.46044684 66.43879245 2156.69109333 58.25497124 2153.94378662 50.0635376 C2153.40523425 48.45960297 2152.86511679 46.85619286 2152.32330322 45.25335693 C2151.58875135 43.07920185 2150.85996837 40.90320044 2150.1328125 38.7265625 C2149.71918457 37.49502441 2149.30555664 36.26348633 2148.87939453 34.99462891 C2148 32 2148 32 2148 29 C1436.19 29.33 724.38 29.66 -9 30 C-6.73517953 19.80830788 -3.3015148 9.90454441 0 0 Z " fill="#C8CB1A" transform="translate(8935,0)"/>
<path d="M0 0 C1029.27 0 2058.54 0 3119 0 C3121.30039058 5.75097646 3123.51059051 11.284267 3125.43554688 17.12890625 C3125.65092102 17.77924835 3125.86629517 18.42959045 3126.0881958 19.09963989 C3126.5550452 20.51011973 3127.02055877 21.9210423 3127.48484802 23.33236694 C3128.79547541 27.31501525 3130.11736345 31.2939333 3131.4375 35.2734375 C3131.72125237 36.12965195 3132.00500473 36.98586639 3132.29735565 37.86802673 C3135.81908651 48.48641469 3139.39491543 59.08656165 3142.96875 69.6875 C3143.6695452 71.76724242 3144.37030996 73.8469951 3145.07104492 75.92675781 C3147.21343091 82.28470719 3149.35664191 88.64237828 3151.5 95 C3154.34446998 103.43725748 3157.18847131 111.87467251 3160.03125 120.3125 C3160.5504879 121.85360443 3160.5504879 121.85360443 3161.08021545 123.42584229 C3165.71540069 137.18566309 3170.32581951 150.95343945 3174.90875244 164.73074341 C3178.7957267 176.41361809 3182.71626258 188.08489917 3186.65625 199.75 C3187.0775544 200.99736435 3187.0775544 200.99736435 3187.50737 202.26992798 C3189.50393195 208.18028381 3191.50182032 214.09019093 3193.5 220 C3195.78215529 226.7496943 3198.06374257 233.49957982 3200.34375 240.25 C3200.62496704 241.08257828 3200.90618408 241.91515656 3201.19592285 242.77296448 C3205.12627257 254.41266724 3209.02843764 266.06144646 3212.90625 277.71875 C3217.34500045 291.0622517 3221.81796821 304.39393298 3226.3125 317.71875 C3226.78283913 319.11321854 3226.78283913 319.11321854 3227.26268005 320.53585815 C3229.50757844 327.19086746 3231.75365819 333.8454778 3234 340.5 C3236.56330207 348.09347953 3239.12609456 355.68713047 3241.6875 363.28125 C3242.0012709 364.21148987 3242.31504181 365.14172974 3242.63832092 366.10015869 C3247.03860904 379.14874553 3251.40971236 392.20672874 3255.75627136 405.27330017 C3259.83964323 417.54622837 3263.95822865 429.80704948 3268.09375 442.0625 C3268.39645813 442.95959183 3268.69916626 443.85668365 3269.01104736 444.78096008 C3271.17312369 451.18761335 3273.33642701 457.59385204 3275.5 464 C3277.96958375 471.31221872 3280.43863893 478.6246153 3282.90625 485.9375 C3283.20911423 486.83501984 3283.51197845 487.73253967 3283.82402039 488.65725708 C3288.15368987 501.49116188 3292.45231572 514.33507267 3296.72756958 527.18719482 C3300.82052286 539.48882087 3304.94853 551.77839102 3309.09375 564.0625 C3309.39641281 564.95945587 3309.69907562 565.85641174 3310.01091003 566.7805481 C3312.17303225 573.18733866 3314.33638069 579.59371489 3316.5 586 C3318.96958376 593.31221872 3321.43863076 600.62461805 3323.90625 607.9375 C3324.20878189 608.83402283 3324.51131378 609.73054565 3324.82301331 610.65423584 C3329.17544914 623.55542076 3333.49622996 636.46681732 3337.79394531 649.38632202 C3341.7192406 661.18398962 3345.67742412 672.97028019 3349.65625 684.75 C3350.07728249 685.99654861 3350.07728249 685.99654861 3350.50682068 687.26828003 C3352.50356622 693.17918502 3354.50163486 699.08964241 3356.5 705 C3358.78215529 711.7496943 3361.06374257 718.49957982 3363.34375 725.25 C3363.62496704 726.08257828 3363.90618408 726.91515656 3364.19592285 727.77296448 C3368.12627257 739.41266724 3372.02843764 751.06144646 3375.90625 762.71875 C3380.34500045 776.0622517 3384.81796821 789.39393298 3389.3125 802.71875 C3389.62605942 803.64839569 3389.93961884 804.57804138 3390.26268005 805.53585815 C3392.50757844 812.19086746 3394.75365819 818.8454778 3397 825.5 C3399.56330207 833.09347953 3402.12609456 840.68713047 3404.6875 848.28125 C3405.0012709 849.21148987 3405.31504181 850.14172974 3405.63832092 851.10015869 C3410.03860904 864.14874553 3414.40971236 877.20672874 3418.75627136 890.27330017 C3422.83964323 902.54622837 3426.95822865 914.80704948 3431.09375 927.0625 C3431.54781219 928.40813774 3431.54781219 928.40813774 3432.01104736 929.78096008 C3434.17312369 936.18761335 3436.33642701 942.59385204 3438.5 949 C3440.96958375 956.31221872 3443.43863893 963.6246153 3445.90625 970.9375 C3446.20911423 971.83501984 3446.51197845 972.73253967 3446.82402039 973.65725708 C3451.15368987 986.49116188 3455.45231572 999.33507267 3459.72756958 1012.18719482 C3463.82052286 1024.48882087 3467.94853 1036.77839102 3472.09375 1049.0625 C3472.54774422 1050.40793381 3472.54774422 1050.40793381 3473.01091003 1051.7805481 C3475.17303225 1058.18733866 3477.33638069 1064.59371489 3479.5 1071 C3481.96958375 1078.31221872 3484.43863893 1085.6246153 3486.90625 1092.9375 C3487.20911423 1093.83501984 3487.51197845 1094.73253967 3487.82402039 1095.65725708 C3492.15368987 1108.49116188 3496.45231572 1121.33507267 3500.72756958 1134.18719482 C3504.82052286 1146.48882087 3508.94853 1158.77839102 3513.09375 1171.0625 C3513.54774422 1172.40793381 3513.54774422 1172.40793381 3514.01091003 1173.7805481 C3516.17303225 1180.18733866 3518.33638069 1186.59371489 3520.5 1193 C3522.96958376 1200.31221872 3525.43863076 1207.62461805 3527.90625 1214.9375 C3528.20878189 1215.83402283 3528.51131378 1216.73054565 3528.82301331 1217.65423584 C3533.17544914 1230.55542076 3537.49622996 1243.46681732 3541.79394531 1256.38632202 C3545.7192406 1268.18398962 3549.67742412 1279.97028019 3553.65625 1291.75 C3553.93693832 1292.58103241 3554.21762665 1293.41206482 3554.50682068 1294.26828003 C3556.50356622 1300.17918502 3558.50163486 1306.08964241 3560.5 1312 C3562.78215529 1318.7496943 3565.06373654 1325.49958186 3567.34375 1332.25 C3567.62473856 1333.08189283 3567.90572712 1333.91378567 3568.19523048 1334.77088737 C3572.14034832 1346.45417942 3576.05684413 1358.14669426 3579.94921875 1369.84765625 C3584.26583502 1382.82389573 3588.61493722 1395.78886098 3592.98828125 1408.74609375 C3593.28494501 1409.62505247 3593.58160877 1410.50401119 3593.88726234 1411.40960503 C3595.40529718 1415.90672287 3596.92382143 1420.40367529 3598.44259644 1424.90054321 C3615.48192725 1475.35252962 3615.48192725 1475.35252962 3623.4375 1499.3125 C3627.90594025 1512.76997973 3632.45226249 1526.19778428 3637.06027222 1539.60806274 C3644.01098279 1559.85918454 3650.7410164 1580.18432996 3657.5 1600.5 C3668.04255889 1632.21502692 3668.04255889 1632.21502692 3678.80908203 1663.85449219 C3685.64998196 1683.72882815 3692.2405797 1703.68760653 3698.87540436 1723.63140106 C3708.30618478 1752.00577083 3708.30618478 1752.00577083 3717.9375 1780.3125 C3724.9463209 1800.65640433 3731.70730141 1821.08321024 3738.5 1841.5 C3748.64151191 1872.03659086 3748.64151191 1872.03659086 3759 1902.5 C3766.30231449 1923.69065325 3773.33558578 1944.97165954 3780.41119385 1966.23876953 C3790.10209695 1995.40429721 3790.10209695 1995.40429721 3800 2024.5 C3807.3021612 2045.69020841 3814.3352939 2066.97076503 3821.41074753 2088.23743057 C3831.50290678 2118.58206924 3831.50290678 2118.58206924 3841.80908203 2148.85449219 C3848.64998196 2168.72882815 3855.2405797 2188.68760653 3861.87540436 2208.63140106 C3871.30618478 2237.00577083 3871.30618478 2237.00577083 3880.9375 2265.3125 C3887.9463209 2285.65640433 3894.70730141 2306.08321024 3901.5 2326.5 C3911.64151191 2357.03659086 3911.64151191 2357.03659086 3922 2387.5 C3929.30231449 2408.69065325 3936.33558578 2429.97165954 3943.41119385 2451.23876953 C3953.10209695 2480.40429721 3953.10209695 2480.40429721 3963 2509.5 C3970.30231449 2530.69065325 3977.33558578 2551.97165954 3984.41119385 2573.23876953 C3994.10209695 2602.40429721 3994.10209695 2602.40429721 4004 2631.5 C4011.3021612 2652.69020841 4018.3352939 2673.97076503 4025.41074753 2695.23743057 C4035.50290678 2725.58206924 4035.50290678 2725.58206924 4045.80908203 2755.85449219 C4052.64998196 2775.72882815 4059.2405797 2795.68760653 4065.87540436 2815.63140106 C4075.30618478 2844.00577083 4075.30618478 2844.00577083 4084.9375 2872.3125 C4091.9463209 2892.65640433 4098.70730141 2913.08321024 4105.5 2933.5 C4115.64151191 2964.03659086 4115.64151191 2964.03659086 4126 2994.5 C4133.30231449 3015.69065325 4140.33558578 3036.97165954 4147.41119385 3058.23876953 C4157.10209695 3087.40429721 4157.10209695 3087.40429721 4167 3116.5 C4174.3021612 3137.69020841 4181.3352939 3158.97076503 4188.41074753 3180.23743057 C4198.50290678 3210.58206924 4198.50290678 3210.58206924 4208.80908203 3240.85449219 C4215.64829746 3260.72393431 4222.23737027 3280.67776659 4228.87049484 3300.61667252 C4238.65142418 3330.02828625 4238.65142418 3330.02828625 4248.625 3359.375 C4253.7850902 3374.39126684 4258.8502284 3389.43788865 4263.875 3404.5 C4264.41534882 3406.11730011 4264.41534882 3406.11730011 4264.96661377 3407.76727295 C4265.97686128 3410.7921944 4266.98494623 3413.8178264 4267.9921875 3416.84375 C4268.29763489 3417.75810822 4268.60308228 3418.67246643 4268.91778564 3419.61453247 C4269.33142365 3420.86011429 4269.33142365 3420.86011429 4269.75341797 3422.13085938 C4269.99542938 3422.85768921 4270.2374408 3423.58451904 4270.48678589 3424.33337402 C4271 3426 4271 3426 4271 3427 C3241.07 3427 2211.14 3427 1150 3427 C1148.35 3421.39 1146.7 3415.78 1145 3410 C1143.77634012 3406.23280015 1142.53889083 3402.48218298 1141.25 3398.73828125 C1140.91515091 3397.75611633 1140.58030182 3396.77395142 1140.23530579 3395.76202393 C1139.1601621 3392.61104698 1138.08006765 3389.4617921 1137 3386.3125 C1136.23947757 3384.08532453 1135.47931008 3381.85802783 1134.71948242 3379.63061523 C1131.3233853 3369.68111088 1127.91172748 3359.73699889 1124.48828125 3349.796875 C1123.42898245 3346.71899208 1122.37044007 3343.6408502 1121.3125 3340.5625 C1121.05180725 3339.80432983 1120.7911145 3339.04615967 1120.52252197 3338.26501465 C1116.03100733 3325.18562982 1111.75439878 3312.04198711 1107.51016235 3298.88064575 C1102.17466132 3282.36231815 1096.51770432 3265.96481609 1090.80596924 3249.57339478 C1083.89088646 3229.70473828 1077.27333423 3209.7497094 1070.75 3189.75 C1064.65115217 3171.05336103 1058.48393019 3152.39769248 1051.90270996 3133.8638916 C1044.93159035 3114.18834894 1038.49527275 3094.33621646 1032 3074.5 C1022.00729972 3043.91293445 1022.00729972 3043.91293445 1011.5 3013.5 C1003.99690118 2992.40780746 997.09669003 2971.11829085 990.13043213 2949.84448242 C980.56097637 2920.58905685 980.56097637 2920.58905685 970.5 2891.5 C962.99705947 2870.40825245 956.09693262 2849.11920024 949.13087845 2827.84582138 C942.46546825 2807.49277847 935.78372952 2787.15963635 928.60791016 2766.97949219 C921.60770648 2747.25498118 915.17461939 2727.34246974 908.66622162 2707.45185089 C899.35440844 2678.98846323 899.35440844 2678.98846323 889.5625 2650.6875 C882.35216714 2630.40949917 875.69698183 2609.95166865 869 2589.5 C859.0072628 2558.91294708 859.0072628 2558.91294708 848.5 2528.5 C840.99690118 2507.40780746 834.09669003 2486.11829085 827.13043213 2464.84448242 C817.56097637 2435.58905685 817.56097637 2435.58905685 807.5 2406.5 C799.99705947 2385.40825245 793.09693262 2364.11920024 786.13087845 2342.84582138 C779.46546825 2322.49277847 772.78372952 2302.15963635 765.60791016 2281.97949219 C758.60770648 2262.25498118 752.17461939 2242.34246974 745.66622162 2222.45185089 C736.35440844 2193.98846323 736.35440844 2193.98846323 726.5625 2165.6875 C719.35216714 2145.40949917 712.69698183 2124.95166865 706 2104.5 C696.0072628 2073.91294708 696.0072628 2073.91294708 685.5 2043.5 C677.99690118 2022.40780746 671.09669003 2001.11829085 664.13043213 1979.84448242 C654.56097637 1950.58905685 654.56097637 1950.58905685 644.5 1921.5 C636.99705947 1900.40825245 630.09693262 1879.11920024 623.13087845 1857.84582138 C616.46546825 1837.49277847 609.78372952 1817.15963635 602.60791016 1796.97949219 C595.60770648 1777.25498118 589.17461939 1757.34246974 582.66622162 1737.45185089 C573.35440844 1708.98846323 573.35440844 1708.98846323 563.5625 1680.6875 C556.35216714 1660.40949917 549.69698183 1639.95166865 543 1619.5 C533.00671853 1588.91313326 533.00671853 1588.91313326 522.5 1558.5 C513.50934725 1533.21030391 505.28273754 1507.65983006 496.92750549 1482.15513611 C496.39568793 1480.53180713 495.8638632 1478.90848051 495.33203125 1477.28515625 C495.0689813 1476.48218676 494.80593136 1475.67921726 494.5349102 1474.85191536 C486.3035381 1449.7318633 477.93700398 1424.65815397 469.40390015 1399.63894653 C461.22539202 1375.6486103 453.18741253 1351.61286712 445.1875 1327.5625 C438.62896021 1307.84554554 432.06912111 1288.13136942 425.30380249 1268.48416138 C418.72813392 1249.37022786 412.38060583 1230.17967004 406 1211 C395.76974999 1180.23012221 395.76974999 1180.23012221 385.32046509 1149.53414917 C380.9606188 1136.8692126 376.70982203 1124.1686151 372.4765625 1111.4609375 C372.180931 1110.57353441 371.88529949 1109.68613132 371.58070946 1108.77183723 C368.56415345 1099.71548755 365.55093324 1090.65803377 362.54232407 1081.59904099 C355.21325791 1059.49525876 355.21325791 1059.49525876 347.65625 1037.46875 C343.52910976 1025.65069862 339.56631678 1013.77954377 335.61328125 1001.90234375 C335.11286096 1000.39892268 335.11286096 1000.39892268 334.60233116 998.86512947 C331.82248597 990.51152639 329.04646164 982.15665443 326.27069092 973.80169678 C323.86589052 966.56380099 321.4595599 959.32641661 319.05078125 952.08984375 C318.54125853 950.55899454 318.54125853 950.55899454 318.02144241 948.99721909 C313.06856719 934.12431941 308.04220194 919.27807967 302.95923805 904.44918633 C296.93854631 886.88083756 291.06036511 869.266445 285.20773315 851.64151001 C282.25939716 842.76324169 279.30441332 833.88718567 276.34765625 825.01171875 C276.06098146 824.15114553 275.77430668 823.29057232 275.47894478 822.40392113 C271.11127673 809.29631691 266.69132829 796.20817688 262.19091797 783.14550781 C255.35001804 763.27117185 248.7594203 743.31239347 242.12459564 723.36859894 C232.32723408 693.91604056 232.32723408 693.91604056 222.32046509 664.53414917 C217.9606188 651.8692126 213.70982203 639.1686151 209.4765625 626.4609375 C209.180931 625.57353441 208.88529949 624.68613132 208.58070946 623.77183723 C205.56415186 614.71548279 202.55093011 605.65802422 199.5423193 596.59902668 C192.22327348 574.52445956 192.22327348 574.52445956 184.67578125 552.52734375 C180.48023983 540.51515204 176.45565559 528.4474538 172.4375 516.375 C171.92776107 514.84362302 171.92776107 514.84362302 171.40772438 513.28130913 C168.57831185 504.77898855 165.7528051 496.27537085 162.92736816 487.77172852 C160.47416271 480.38890274 158.01954749 473.00654808 155.5625 465.625 C155.05168853 464.09028455 155.05168853 464.09028455 154.53055763 462.52456474 C150.58470609 450.67556255 146.59513885 438.84658326 142.4719696 427.05799866 C138.75107088 416.37344868 135.18610568 405.63712433 131.61328125 394.90234375 C131.2794128 393.89929829 130.94554436 392.89625282 130.60155869 391.86281204 C127.82197095 383.50998145 125.04620491 375.1558817 122.27069092 366.80169678 C119.86589052 359.56380099 117.4595599 352.32641661 115.05078125 345.08984375 C114.71109943 344.06927761 114.37141762 343.04871147 114.02144241 341.99721909 C109.06856719 327.12431941 104.04220194 312.27807967 98.95923805 297.44918633 C92.93854631 279.88083756 87.06036511 262.266445 81.20773315 244.64151001 C78.25939716 235.76324169 75.30441332 226.88718567 72.34765625 218.01171875 C72.06098146 217.15114553 71.77430668 216.29057232 71.47894478 215.40392113 C67.11127673 202.29631691 62.69132829 189.20817688 58.19091797 176.14550781 C51.35231508 156.27784527 44.76379662 136.32581163 38.13129044 116.38868332 C28.22256743 86.60004591 28.22256743 86.60004591 18.125 56.875 C17.59357102 55.32601468 17.06215789 53.77702392 16.53076172 52.22802734 C16.27575897 51.48471161 16.02075623 50.74139587 15.75802612 49.97555542 C15.5078775 49.24627838 15.25772888 48.51700134 15 47.765625 C14.75621613 47.0549588 14.51243225 46.3442926 14.26126099 45.61209106 C11.46044684 37.43879245 8.69109333 29.25497124 5.94378662 21.0635376 C5.40523425 19.45960297 4.86511679 17.85619286 4.32330322 16.25335693 C3.58875135 14.07920185 2.85996837 11.90320044 2.1328125 9.7265625 C1.71918457 8.49502441 1.30555664 7.26348633 0.87939453 5.99462891 C0 3 0 3 0 0 Z " fill="#CFD024" transform="translate(11083,29)"/>
<path d="M0 0 C2649.57 0 5299.14 0 8029 0 C8030.485 5.445 8030.485 5.445 8032 11 C8033.08609234 14.32864356 8034.20929742 17.63801329 8035.36914062 20.94140625 C8036.34151877 23.77282953 8037 25.98041597 8037 29 C7948.38740456 29.03964853 7859.77480881 29.07859436 6806.78565479 29.49208711 C6791.18231175 29.49771853 6775.57896872 29.50336516 6759.97562569 29.50902146 C6655.90493705 29.54674348 6551.83424823 29.58395543 5939.05078125 29.77734375 C5937.86637267 29.7776825 5936.6819641 29.77802125 5935.46166435 29.77837026 C5812.55588286 29.8135145 5689.65010087 29.8467006 3615.85546875 30.06640625 C3614.10945805 30.06643229 3612.36344736 30.06645832 3610.56452725 30.06648515 C3436.28225704 30.06907931 3261.99998682 30.0705405 2301.09283929 30.06307594 C2274.59145879 30.06266181 2248.09007829 30.0622561 2221.58869779 30.06185675 C2047.45543719 30.05923121 1873.32217659 30.05638544 0 30 C0 20.1 0 10.2 0 0 Z " fill="#BCBD02" transform="translate(0,0)"/>
<path d="M0 0 C1735.14 0 3470.28 0 5258 0 C5267 27 5267 27 5267 29 C3525.92 29.33 1784.84 29.66 -9 30 C-6.73517953 19.80830788 -3.3015148 9.90454441 0 0 Z " fill="#C5C63D" transform="translate(8935,0)"/>
<path d="M0 0 C1029.93 0 2059.86 0 3121 0 C3121.99 3.63 3122.98 7.26 3124 11 C3125.08609234 14.32864356 3126.20929742 17.63801329 3127.36914062 20.94140625 C3128.34151877 23.77282953 3129 25.98041597 3129 29 C2099.73 29.33 1070.46 29.66 10 30 C6.29883395 20.13022386 3.19604717 10.04471969 0 0 Z " fill="#BCBD02" transform="translate(4908,0)"/>
<path d="M0 0 C727.98 0 1455.96 0 2206 0 C2208.38923097 5.97307743 2210.70436555 11.80123353 2212.75 17.875 C2212.97042969 18.51179688 2213.19085937 19.14859375 2213.41796875 19.8046875 C2214.52304822 23.09933437 2215 25.47232493 2215 29 C1481.08 29 747.16 29 -9 29 C-6.80434178 19.119538 -3.34363664 9.55324754 0 0 Z " fill="#A2AE25" transform="translate(2702,0)"/>
<path d="M0 0 C705.54 0 1411.08 0 2138 0 C2147 26 2147 26 2147 29 C1435.52 29.33 724.04 29.66 -9 30 C-6.73517953 19.80830788 -3.3015148 9.90454441 0 0 Z " fill="#9FAD0F" transform="translate(8935,0)"/>
<path d="M0 0 C698.61 0 1397.22 0 2117 0 C2126 26 2126 26 2126 29 C1421.45 29 716.9 29 -9 29 C-6 17 -6 17 0 0 Z " fill="#95A118" transform="translate(15163,0)"/>
<path d="M0 0 C532.62 0 1065.24 0 1614 0 C1614 9.57 1614 19.14 1614 29 C1078.41 29 542.82 29 -9 29 C-6 17 -6 17 0 0 Z " fill="#C5C625" transform="translate(18386,0)"/>
<path d="M0 0 C364.98 0 729.96 0 1106 0 C1103.33686131 9.76484187 1100.20069437 19.39791689 1097 29 C737.96 29 378.92 29 9 29 C0 3 0 3 0 0 Z " fill="#B5B600" transform="translate(17280,0)"/>
<path d="M0 0 C320.1 0 640.2 0 970 0 C967.33686131 9.76484187 964.20069437 19.39791689 961 29 C646.84 29 332.68 29 9 29 C0 3 0 3 0 0 Z " fill="#B5B600" transform="translate(14193,0)"/>
<path d="M0 0 C261.69 0 523.38 0 793 0 C790.25297364 10.07243 787.14390378 20.04430469 784 30 C528.25 29.67 272.5 29.34 9 29 C0 2 0 2 0 0 Z " fill="#C0C11E" transform="translate(1909,0)"/>
</svg>
