<?xml version="1.0" encoding="UTF-8"?>
<svg version="1.1" xmlns="http://www.w3.org/2000/svg" width="512" height="512">
<path d="M0 0 C1.25190125 -0.00700928 2.50380249 -0.01401855 3.79364014 -0.02124023 C7.19479315 -0.03572853 10.59495996 -0.03247527 13.9960556 -0.01972389 C17.57567043 -0.00951053 21.15524659 -0.01901248 24.73486328 -0.02526855 C30.7432399 -0.03252095 36.75141907 -0.02302098 42.75976562 -0.00390625 C49.68033487 0.01785803 56.60043254 0.01080494 63.52099037 -0.01121187 C69.49080214 -0.02943502 75.46047295 -0.03189064 81.43030357 -0.0214572 C84.98358246 -0.01526 88.53664058 -0.01428126 92.08990479 -0.02760315 C96.05491084 -0.04143364 100.0193998 -0.02219952 103.984375 0 C105.14314148 -0.00809692 106.30190796 -0.01619385 107.49578857 -0.02453613 C119.1735658 0.09596646 128.48886532 3.40003993 136.9921875 11.51757812 C146.20152193 21.1645839 148.60094648 31.47632149 148.50976562 44.52539062 C148.5167749 45.77729187 148.52378418 47.02919312 148.53100586 48.31903076 C148.54549415 51.72018377 148.54224089 55.12035058 148.52948952 58.52144623 C148.51927615 62.10106105 148.5287781 65.68063722 148.53503418 69.26025391 C148.54228657 75.26863053 148.53278661 81.27680969 148.51367188 87.28515625 C148.49190759 94.20572549 148.49896069 101.12582316 148.5209775 108.046381 C148.53920064 114.01619276 148.54165626 119.98586357 148.53122282 125.9556942 C148.52502563 129.50897308 148.52404689 133.06203121 148.53736877 136.61529541 C148.55119927 140.58030147 148.53196515 144.54479043 148.50976562 148.50976562 C148.51786255 149.6685321 148.52595947 150.82729858 148.53430176 152.0211792 C148.41379916 163.69895642 145.10972569 173.01425594 136.9921875 181.51757812 C127.34518173 190.72691256 117.03344414 193.12633711 103.984375 193.03515625 C102.73247375 193.04216553 101.48057251 193.0491748 100.19073486 193.05639648 C96.78958185 193.07088478 93.38941504 193.06763152 89.9883194 193.05488014 C86.40870457 193.04466678 82.82912841 193.05416873 79.24951172 193.0604248 C73.2411351 193.0676772 67.23295593 193.05817723 61.22460938 193.0390625 C54.30404013 193.01729822 47.38394246 193.02435131 40.46338463 193.04636812 C34.49357286 193.06459127 28.52390205 193.06704689 22.55407143 193.05661345 C19.00079254 193.05041625 15.44773442 193.04943751 11.89447021 193.0627594 C7.92946416 193.07658989 3.9649752 193.05735577 0 193.03515625 C-1.15876648 193.04325317 -2.31753296 193.0513501 -3.51141357 193.05969238 C-15.1891908 192.93918979 -24.50449032 189.63511632 -33.0078125 181.51757812 C-42.21714693 171.87057235 -44.61657148 161.55883476 -44.52539062 148.50976562 C-44.5323999 147.25786438 -44.53940918 146.00596313 -44.54663086 144.71612549 C-44.56111915 141.31497248 -44.55786589 137.91480567 -44.54511452 134.51371002 C-44.53490115 130.9340952 -44.5444031 127.35451903 -44.55065918 123.77490234 C-44.55791157 117.76652572 -44.54841161 111.75834656 -44.52929688 105.75 C-44.50753259 98.82943076 -44.51458569 91.90933309 -44.5366025 84.98877525 C-44.55482564 79.01896349 -44.55728126 73.04929268 -44.54684782 67.07946205 C-44.54065063 63.52618317 -44.53967189 59.97312504 -44.55299377 56.41986084 C-44.56682427 52.45485478 -44.54759015 48.49036582 -44.52539062 44.52539062 C-44.53348755 43.36662415 -44.54158447 42.20785767 -44.54992676 41.01397705 C-44.42942416 29.33619983 -41.12535069 20.02090031 -33.0078125 11.51757812 C-23.36080673 2.30824369 -13.04906914 -0.09118086 0 0 Z M-21.0078125 23.51757812 C-27.96068945 31.5998564 -28.30794789 41.45686102 -28.26660156 51.67773438 C-28.2701062 52.75699188 -28.27361084 53.83624939 -28.27722168 54.94821167 C-28.28597647 58.49223387 -28.28021189 62.03605412 -28.2734375 65.58007812 C-28.27478594 68.05672239 -28.27672797 70.5333664 -28.27923584 73.01000977 C-28.28217864 78.19126922 -28.27791656 83.37245954 -28.26855469 88.55371094 C-28.25716076 95.18111169 -28.26372474 101.80835042 -28.27569962 108.43574524 C-28.28294096 113.54709077 -28.28061982 118.65839816 -28.27544403 123.76974487 C-28.27411383 126.21288065 -28.2757331 128.65601994 -28.28040314 131.09915161 C-28.28550573 134.51866781 -28.27770559 137.93792487 -28.26660156 141.35742188 C-28.27065002 142.3582077 -28.27469849 143.35899353 -28.27886963 144.3901062 C-28.22348578 153.63851665 -27.22524159 162.29021132 -21.0078125 169.51757812 C-12.92553422 176.47045507 -3.0685296 176.81771351 7.15234375 176.77636719 C8.23160126 176.77987183 9.31085876 176.78337646 10.42282104 176.7869873 C13.96684325 176.7957421 17.5106635 176.78997752 21.0546875 176.78320312 C23.53133177 176.78455157 26.00797578 176.7864936 28.48461914 176.78900146 C33.66587859 176.79194427 38.84706892 176.78768219 44.02832031 176.77832031 C50.65572107 176.76692638 57.2829598 176.77349036 63.91035461 176.78546524 C69.02170015 176.79270659 74.13300754 176.79038544 79.24435425 176.78520966 C81.68749002 176.78387946 84.13062931 176.78549872 86.57376099 176.79016876 C89.99327719 176.79527136 93.41253425 176.78747121 96.83203125 176.77636719 C98.33320999 176.78243988 98.33320999 176.78243988 99.86471558 176.78863525 C109.34954747 176.7318356 117.63833967 175.90994285 124.62109375 168.87695312 C131.98313724 160.71661576 132.14218723 152.26950722 132.13745117 141.69799805 C132.14080978 140.61917862 132.1441684 139.54035919 132.14762878 138.42884827 C132.15711418 134.86856937 132.15908071 131.30833762 132.16015625 127.74804688 C132.16337056 125.26711508 132.16673476 122.78618347 132.17024231 120.30525208 C132.17622758 115.10608481 132.17808283 109.90693414 132.17749023 104.70776367 C132.17738866 98.05673689 132.19103882 91.40585441 132.20826244 84.75484753 C132.21939953 79.63063572 132.22140891 74.50644961 132.22088051 69.38222694 C132.22205812 66.93071436 132.22646759 64.47920106 132.23421288 62.02770042 C132.24404686 58.59350548 132.24112111 55.15954071 132.23510742 51.7253418 C132.24072693 50.71984283 132.24634644 49.71434387 132.25213623 48.67837524 C132.2116907 39.55569856 131.33717421 30.54133086 124.9921875 23.51757812 C116.11056457 16.59292296 107.89369759 16.36744321 97.05908203 16.37231445 C95.98011658 16.36895584 94.90115112 16.36559723 93.78948975 16.36213684 C90.23464801 16.35266408 86.67985356 16.35068564 83.125 16.34960938 C80.64549744 16.3463945 78.16599508 16.34303025 75.68649292 16.33952332 C70.493302 16.33354143 65.30012771 16.33168248 60.10693359 16.33227539 C53.46379415 16.33237702 46.82076425 16.31871993 40.17764473 16.30150318 C35.05772414 16.29036696 29.93782926 16.28835668 24.8178978 16.28888512 C22.36917629 16.28770764 19.92045407 16.28329894 17.47174454 16.27555275 C14.04244819 16.26571924 10.61338235 16.26864418 7.18408203 16.2746582 C6.18015411 16.2690387 5.1762262 16.26341919 4.14187622 16.25762939 C-5.11689463 16.2987411 -13.77198983 17.29287478 -21.0078125 23.51757812 Z " fill="#000000" transform="translate(92.0078125,271.482421875)"/>
<path d="M0 0 C1.25190125 -0.00700928 2.50380249 -0.01401855 3.79364014 -0.02124023 C7.19479315 -0.03572853 10.59495996 -0.03247527 13.9960556 -0.01972389 C17.57567043 -0.00951053 21.15524659 -0.01901248 24.73486328 -0.02526855 C30.7432399 -0.03252095 36.75141907 -0.02302098 42.75976562 -0.00390625 C49.68033487 0.01785803 56.60043254 0.01080494 63.52099037 -0.01121187 C69.49080214 -0.02943502 75.46047295 -0.03189064 81.43030357 -0.0214572 C84.98358246 -0.01526 88.53664058 -0.01428126 92.08990479 -0.02760315 C96.05491084 -0.04143364 100.0193998 -0.02219952 103.984375 0 C105.14314148 -0.00809692 106.30190796 -0.01619385 107.49578857 -0.02453613 C119.1735658 0.09596646 128.48886532 3.40003993 136.9921875 11.51757812 C146.20152193 21.1645839 148.60094648 31.47632149 148.50976562 44.52539062 C148.5167749 45.77729187 148.52378418 47.02919312 148.53100586 48.31903076 C148.54549415 51.72018377 148.54224089 55.12035058 148.52948952 58.52144623 C148.51927615 62.10106105 148.5287781 65.68063722 148.53503418 69.26025391 C148.54228657 75.26863053 148.53278661 81.27680969 148.51367188 87.28515625 C148.49190759 94.20572549 148.49896069 101.12582316 148.5209775 108.046381 C148.53920064 114.01619276 148.54165626 119.98586357 148.53122282 125.9556942 C148.52502563 129.50897308 148.52404689 133.06203121 148.53736877 136.61529541 C148.55119927 140.58030147 148.53196515 144.54479043 148.50976562 148.50976562 C148.51786255 149.6685321 148.52595947 150.82729858 148.53430176 152.0211792 C148.41379916 163.69895642 145.10972569 173.01425594 136.9921875 181.51757812 C127.34518173 190.72691256 117.03344414 193.12633711 103.984375 193.03515625 C102.73247375 193.04216553 101.48057251 193.0491748 100.19073486 193.05639648 C96.78958185 193.07088478 93.38941504 193.06763152 89.9883194 193.05488014 C86.40870457 193.04466678 82.82912841 193.05416873 79.24951172 193.0604248 C73.2411351 193.0676772 67.23295593 193.05817723 61.22460938 193.0390625 C54.30404013 193.01729822 47.38394246 193.02435131 40.46338463 193.04636812 C34.49357286 193.06459127 28.52390205 193.06704689 22.55407143 193.05661345 C19.00079254 193.05041625 15.44773442 193.04943751 11.89447021 193.0627594 C7.92946416 193.07658989 3.9649752 193.05735577 0 193.03515625 C-1.15876648 193.04325317 -2.31753296 193.0513501 -3.51141357 193.05969238 C-15.1891908 192.93918979 -24.50449032 189.63511632 -33.0078125 181.51757812 C-42.21714693 171.87057235 -44.61657148 161.55883476 -44.52539062 148.50976562 C-44.5323999 147.25786438 -44.53940918 146.00596313 -44.54663086 144.71612549 C-44.56111915 141.31497248 -44.55786589 137.91480567 -44.54511452 134.51371002 C-44.53490115 130.9340952 -44.5444031 127.35451903 -44.55065918 123.77490234 C-44.55791157 117.76652572 -44.54841161 111.75834656 -44.52929688 105.75 C-44.50753259 98.82943076 -44.51458569 91.90933309 -44.5366025 84.98877525 C-44.55482564 79.01896349 -44.55728126 73.04929268 -44.54684782 67.07946205 C-44.54065063 63.52618317 -44.53967189 59.97312504 -44.55299377 56.41986084 C-44.56682427 52.45485478 -44.54759015 48.49036582 -44.52539062 44.52539062 C-44.53348755 43.36662415 -44.54158447 42.20785767 -44.54992676 41.01397705 C-44.42942416 29.33619983 -41.12535069 20.02090031 -33.0078125 11.51757812 C-23.36080673 2.30824369 -13.04906914 -0.09118086 0 0 Z M-21.0078125 23.51757812 C-27.96068945 31.5998564 -28.30794789 41.45686102 -28.26660156 51.67773438 C-28.2701062 52.75699188 -28.27361084 53.83624939 -28.27722168 54.94821167 C-28.28597647 58.49223387 -28.28021189 62.03605412 -28.2734375 65.58007812 C-28.27478594 68.05672239 -28.27672797 70.5333664 -28.27923584 73.01000977 C-28.28217864 78.19126922 -28.27791656 83.37245954 -28.26855469 88.55371094 C-28.25716076 95.18111169 -28.26372474 101.80835042 -28.27569962 108.43574524 C-28.28294096 113.54709077 -28.28061982 118.65839816 -28.27544403 123.76974487 C-28.27411383 126.21288065 -28.2757331 128.65601994 -28.28040314 131.09915161 C-28.28550573 134.51866781 -28.27770559 137.93792487 -28.26660156 141.35742188 C-28.27065002 142.3582077 -28.27469849 143.35899353 -28.27886963 144.3901062 C-28.22348578 153.63851665 -27.22524159 162.29021132 -21.0078125 169.51757812 C-12.92553422 176.47045507 -3.0685296 176.81771351 7.15234375 176.77636719 C8.23160126 176.77987183 9.31085876 176.78337646 10.42282104 176.7869873 C13.96684325 176.7957421 17.5106635 176.78997752 21.0546875 176.78320312 C23.53133177 176.78455157 26.00797578 176.7864936 28.48461914 176.78900146 C33.66587859 176.79194427 38.84706892 176.78768219 44.02832031 176.77832031 C50.65572107 176.76692638 57.2829598 176.77349036 63.91035461 176.78546524 C69.02170015 176.79270659 74.13300754 176.79038544 79.24435425 176.78520966 C81.68749002 176.78387946 84.13062931 176.78549872 86.57376099 176.79016876 C89.99327719 176.79527136 93.41253425 176.78747121 96.83203125 176.77636719 C98.33320999 176.78243988 98.33320999 176.78243988 99.86471558 176.78863525 C109.34954747 176.7318356 117.63833967 175.90994285 124.62109375 168.87695312 C131.98313724 160.71661576 132.14218723 152.26950722 132.13745117 141.69799805 C132.14080978 140.61917862 132.1441684 139.54035919 132.14762878 138.42884827 C132.15711418 134.86856937 132.15908071 131.30833762 132.16015625 127.74804688 C132.16337056 125.26711508 132.16673476 122.78618347 132.17024231 120.30525208 C132.17622758 115.10608481 132.17808283 109.90693414 132.17749023 104.70776367 C132.17738866 98.05673689 132.19103882 91.40585441 132.20826244 84.75484753 C132.21939953 79.63063572 132.22140891 74.50644961 132.22088051 69.38222694 C132.22205812 66.93071436 132.22646759 64.47920106 132.23421288 62.02770042 C132.24404686 58.59350548 132.24112111 55.15954071 132.23510742 51.7253418 C132.24072693 50.71984283 132.24634644 49.71434387 132.25213623 48.67837524 C132.2116907 39.55569856 131.33717421 30.54133086 124.9921875 23.51757812 C116.11056457 16.59292296 107.89369759 16.36744321 97.05908203 16.37231445 C95.98011658 16.36895584 94.90115112 16.36559723 93.78948975 16.36213684 C90.23464801 16.35266408 86.67985356 16.35068564 83.125 16.34960938 C80.64549744 16.3463945 78.16599508 16.34303025 75.68649292 16.33952332 C70.493302 16.33354143 65.30012771 16.33168248 60.10693359 16.33227539 C53.46379415 16.33237702 46.82076425 16.31871993 40.17764473 16.30150318 C35.05772414 16.29036696 29.93782926 16.28835668 24.8178978 16.28888512 C22.36917629 16.28770764 19.92045407 16.28329894 17.47174454 16.27555275 C14.04244819 16.26571924 10.61338235 16.26864418 7.18408203 16.2746582 C6.18015411 16.2690387 5.1762262 16.26341919 4.14187622 16.25762939 C-5.11689463 16.2987411 -13.77198983 17.29287478 -21.0078125 23.51757812 Z " fill="#000000" transform="translate(316.0078125,47.482421875)"/>
<path d="M0 0 C1.25190125 -0.00700928 2.50380249 -0.01401855 3.79364014 -0.02124023 C7.19479315 -0.03572853 10.59495996 -0.03247527 13.9960556 -0.01972389 C17.57567043 -0.00951053 21.15524659 -0.01901248 24.73486328 -0.02526855 C30.7432399 -0.03252095 36.75141907 -0.02302098 42.75976562 -0.00390625 C49.68033487 0.01785803 56.60043254 0.01080494 63.52099037 -0.01121187 C69.49080214 -0.02943502 75.46047295 -0.03189064 81.43030357 -0.0214572 C84.98358246 -0.01526 88.53664058 -0.01428126 92.08990479 -0.02760315 C96.05491084 -0.04143364 100.0193998 -0.02219952 103.984375 0 C105.14314148 -0.00809692 106.30190796 -0.01619385 107.49578857 -0.02453613 C119.1735658 0.09596646 128.48886532 3.40003993 136.9921875 11.51757812 C146.20152193 21.1645839 148.60094648 31.47632149 148.50976562 44.52539062 C148.5167749 45.77729187 148.52378418 47.02919312 148.53100586 48.31903076 C148.54549415 51.72018377 148.54224089 55.12035058 148.52948952 58.52144623 C148.51927615 62.10106105 148.5287781 65.68063722 148.53503418 69.26025391 C148.54228657 75.26863053 148.53278661 81.27680969 148.51367188 87.28515625 C148.49190759 94.20572549 148.49896069 101.12582316 148.5209775 108.046381 C148.53920064 114.01619276 148.54165626 119.98586357 148.53122282 125.9556942 C148.52502563 129.50897308 148.52404689 133.06203121 148.53736877 136.61529541 C148.55119927 140.58030147 148.53196515 144.54479043 148.50976562 148.50976562 C148.51786255 149.6685321 148.52595947 150.82729858 148.53430176 152.0211792 C148.41379916 163.69895642 145.10972569 173.01425594 136.9921875 181.51757812 C127.34518173 190.72691256 117.03344414 193.12633711 103.984375 193.03515625 C102.73247375 193.04216553 101.48057251 193.0491748 100.19073486 193.05639648 C96.78958185 193.07088478 93.38941504 193.06763152 89.9883194 193.05488014 C86.40870457 193.04466678 82.82912841 193.05416873 79.24951172 193.0604248 C73.2411351 193.0676772 67.23295593 193.05817723 61.22460938 193.0390625 C54.30404013 193.01729822 47.38394246 193.02435131 40.46338463 193.04636812 C34.49357286 193.06459127 28.52390205 193.06704689 22.55407143 193.05661345 C19.00079254 193.05041625 15.44773442 193.04943751 11.89447021 193.0627594 C7.92946416 193.07658989 3.9649752 193.05735577 0 193.03515625 C-1.15876648 193.04325317 -2.31753296 193.0513501 -3.51141357 193.05969238 C-15.1891908 192.93918979 -24.50449032 189.63511632 -33.0078125 181.51757812 C-42.21714693 171.87057235 -44.61657148 161.55883476 -44.52539062 148.50976562 C-44.5323999 147.25786438 -44.53940918 146.00596313 -44.54663086 144.71612549 C-44.56111915 141.31497248 -44.55786589 137.91480567 -44.54511452 134.51371002 C-44.53490115 130.9340952 -44.5444031 127.35451903 -44.55065918 123.77490234 C-44.55791157 117.76652572 -44.54841161 111.75834656 -44.52929688 105.75 C-44.50753259 98.82943076 -44.51458569 91.90933309 -44.5366025 84.98877525 C-44.55482564 79.01896349 -44.55728126 73.04929268 -44.54684782 67.07946205 C-44.54065063 63.52618317 -44.53967189 59.97312504 -44.55299377 56.41986084 C-44.56682427 52.45485478 -44.54759015 48.49036582 -44.52539062 44.52539062 C-44.53348755 43.36662415 -44.54158447 42.20785767 -44.54992676 41.01397705 C-44.42942416 29.33619983 -41.12535069 20.02090031 -33.0078125 11.51757812 C-23.36080673 2.30824369 -13.04906914 -0.09118086 0 0 Z M-21.0078125 23.51757812 C-27.96068945 31.5998564 -28.30794789 41.45686102 -28.26660156 51.67773438 C-28.2701062 52.75699188 -28.27361084 53.83624939 -28.27722168 54.94821167 C-28.28597647 58.49223387 -28.28021189 62.03605412 -28.2734375 65.58007812 C-28.27478594 68.05672239 -28.27672797 70.5333664 -28.27923584 73.01000977 C-28.28217864 78.19126922 -28.27791656 83.37245954 -28.26855469 88.55371094 C-28.25716076 95.18111169 -28.26372474 101.80835042 -28.27569962 108.43574524 C-28.28294096 113.54709077 -28.28061982 118.65839816 -28.27544403 123.76974487 C-28.27411383 126.21288065 -28.2757331 128.65601994 -28.28040314 131.09915161 C-28.28550573 134.51866781 -28.27770559 137.93792487 -28.26660156 141.35742188 C-28.27065002 142.3582077 -28.27469849 143.35899353 -28.27886963 144.3901062 C-28.22348578 153.63851665 -27.22524159 162.29021132 -21.0078125 169.51757812 C-12.92553422 176.47045507 -3.0685296 176.81771351 7.15234375 176.77636719 C8.23160126 176.77987183 9.31085876 176.78337646 10.42282104 176.7869873 C13.96684325 176.7957421 17.5106635 176.78997752 21.0546875 176.78320312 C23.53133177 176.78455157 26.00797578 176.7864936 28.48461914 176.78900146 C33.66587859 176.79194427 38.84706892 176.78768219 44.02832031 176.77832031 C50.65572107 176.76692638 57.2829598 176.77349036 63.91035461 176.78546524 C69.02170015 176.79270659 74.13300754 176.79038544 79.24435425 176.78520966 C81.68749002 176.78387946 84.13062931 176.78549872 86.57376099 176.79016876 C89.99327719 176.79527136 93.41253425 176.78747121 96.83203125 176.77636719 C98.33320999 176.78243988 98.33320999 176.78243988 99.86471558 176.78863525 C109.34954747 176.7318356 117.63833967 175.90994285 124.62109375 168.87695312 C131.98313724 160.71661576 132.14218723 152.26950722 132.13745117 141.69799805 C132.14080978 140.61917862 132.1441684 139.54035919 132.14762878 138.42884827 C132.15711418 134.86856937 132.15908071 131.30833762 132.16015625 127.74804688 C132.16337056 125.26711508 132.16673476 122.78618347 132.17024231 120.30525208 C132.17622758 115.10608481 132.17808283 109.90693414 132.17749023 104.70776367 C132.17738866 98.05673689 132.19103882 91.40585441 132.20826244 84.75484753 C132.21939953 79.63063572 132.22140891 74.50644961 132.22088051 69.38222694 C132.22205812 66.93071436 132.22646759 64.47920106 132.23421288 62.02770042 C132.24404686 58.59350548 132.24112111 55.15954071 132.23510742 51.7253418 C132.24072693 50.71984283 132.24634644 49.71434387 132.25213623 48.67837524 C132.2116907 39.55569856 131.33717421 30.54133086 124.9921875 23.51757812 C116.11056457 16.59292296 107.89369759 16.36744321 97.05908203 16.37231445 C95.98011658 16.36895584 94.90115112 16.36559723 93.78948975 16.36213684 C90.23464801 16.35266408 86.67985356 16.35068564 83.125 16.34960938 C80.64549744 16.3463945 78.16599508 16.34303025 75.68649292 16.33952332 C70.493302 16.33354143 65.30012771 16.33168248 60.10693359 16.33227539 C53.46379415 16.33237702 46.82076425 16.31871993 40.17764473 16.30150318 C35.05772414 16.29036696 29.93782926 16.28835668 24.8178978 16.28888512 C22.36917629 16.28770764 19.92045407 16.28329894 17.47174454 16.27555275 C14.04244819 16.26571924 10.61338235 16.26864418 7.18408203 16.2746582 C6.18015411 16.2690387 5.1762262 16.26341919 4.14187622 16.25762939 C-5.11689463 16.2987411 -13.77198983 17.29287478 -21.0078125 23.51757812 Z " fill="#000000" transform="translate(92.0078125,47.482421875)"/>
<path d="M0 0 C19.41513413 15.83036047 34.05409201 37.67987498 37 63 C38.99936484 91.27427967 34.23100056 117.17178286 15.328125 139.16015625 C-1.08462646 157.71519166 -23.00986243 171.44500696 -48.21777344 173.22753906 C-76.8329536 174.49950262 -101.20094475 168.80835389 -123.1875 149.625 C-141.72962913 132.23989973 -154.23970686 110.00534464 -155.3828125 84.2890625 C-156.09445376 55.78869783 -149.21659255 31.57486407 -129.3359375 10.37109375 C-94.83017582 -24.65398542 -39.47352935 -30.18232772 0 0 Z M-117 22 C-133.19057829 38.81960413 -138.56931035 60.16973135 -138.26953125 82.8984375 C-137.64772931 102.88799137 -127.27498902 121.85187443 -113.22265625 135.74609375 C-97.35207085 149.74203282 -77.089786 157.48416124 -55.84375 156.9453125 C-33.48945775 155.52731635 -13.0368784 145.70436322 1.78515625 128.93359375 C17.1553402 110.55254984 21.86919968 88.53188883 20 65 C18.29021152 51.10796861 11.08135997 36.60702844 2 26 C1.52691406 25.37351562 1.05382812 24.74703125 0.56640625 24.1015625 C-10.73782743 9.83736739 -29.36469188 0.88991501 -47 -2 C-47.86496094 -2.15339844 -48.72992188 -2.30679687 -49.62109375 -2.46484375 C-74.5592383 -5.84307033 -99.36902625 4.81468452 -117 22 Z " fill="#000000" transform="translate(427,291)"/>
</svg>
