<?xml version="1.0" standalone="no"?>
<!DOCTYPE svg PUBLIC "-//W3C//DTD SVG 20010904//EN"
 "http://www.w3.org/TR/2001/REC-SVG-20010904/DTD/svg10.dtd">
<svg version="1.0" xmlns="http://www.w3.org/2000/svg"
 width="512.000000pt" height="512.000000pt" viewBox="0 0 512.000000 512.000000"
 preserveAspectRatio="xMidYMid meet">

<g transform="translate(0.000000,512.000000) scale(0.100000,-0.100000)"
fill="#000000" stroke="none">
<path d="M265 5106 c-107 -34 -186 -102 -232 -201 l-28 -60 0 -1025 0 -1025
29 -59 c36 -73 96 -135 168 -173 l53 -28 489 -3 490 -3 -317 -317 c-369 -370
-372 -374 -372 -527 0 -163 -43 -111 763 -917 806 -806 754 -763 917 -763 160
0 138 -18 748 592 475 476 527 532 527 560 0 45 -19 82 -51 99 -67 34 -45 52
-609 -510 -568 -567 -557 -558 -647 -542 -34 7 -110 80 -740 709 -629 630
-702 706 -709 740 -16 94 -92 12 1319 1425 l1302 1302 669 0 c615 0 671 -1
688 -17 18 -16 14 -21 -97 -133 l-117 -117 -41 14 c-27 10 -65 13 -107 10
-107 -7 -192 -62 -246 -159 -26 -47 -29 -63 -29 -138 0 -75 3 -91 29 -138 33
-60 76 -101 139 -134 60 -33 194 -33 254 0 104 55 163 142 170 251 3 43 0 81
-10 108 l-14 41 117 117 c112 111 117 115 133 97 16 -17 17 -73 17 -688 l0
-669 -490 -490 c-475 -475 -490 -492 -490 -529 0 -55 43 -96 102 -96 l43 0
507 507 c279 279 512 518 518 533 7 17 10 260 8 762 l-3 737 -44 45 -44 45 41
45 c60 65 67 121 22 166 -45 45 -101 38 -166 -22 l-45 -41 -45 44 c-44 43 -46
44 -122 47 l-77 4 -260 258 c-143 142 -270 263 -282 269 -34 17 -3774 14
-3828 -3z m3910 -356 l170 -170 -530 0 -530 0 -591 -591 -591 -591 -6 57 c-11
104 -78 199 -175 247 -70 34 -188 33 -257 -4 -189 -100 -229 -336 -83 -485 47
-48 117 -81 190 -90 l50 -6 -194 -194 -193 -193 -567 2 c-558 3 -567 3 -595
24 -15 12 -37 36 -48 55 -20 33 -20 55 -23 979 -2 520 0 964 3 988 8 52 62
118 109 131 18 5 798 10 1861 10 l1830 1 170 -170z m241 -825 c77 -32 77 -138
-1 -170 -31 -14 -39 -14 -70 0 -50 20 -71 71 -51 120 10 23 27 41 48 50 41 18
33 18 74 0z m-2550 -426 c18 -14 32 -67 26 -96 -14 -71 -114 -99 -165 -45 -52
54 -23 153 46 164 27 5 74 -7 93 -23z"/>
<path d="M840 4503 c-62 -23 -150 -113 -173 -178 -22 -63 -22 -138 0 -206 24
-75 107 -159 182 -184 70 -23 179 -17 238 13 220 113 220 430 0 544 -56 29
-183 35 -247 11z m153 -194 c96 -49 60 -189 -48 -189 -14 0 -39 13 -57 29 -27
24 -33 36 -33 71 0 72 76 121 138 89z"/>
<path d="M1601 4463 c-17 -16 -176 -287 -356 -605 -279 -496 -325 -583 -325
-618 0 -83 95 -128 162 -78 10 7 169 281 353 608 304 538 336 598 331 630 -7
47 -55 90 -101 90 -24 0 -44 -8 -64 -27z"/>
<path d="M3444 3632 c-12 -1 -78 -61 -147 -131 -119 -120 -127 -130 -127 -167
0 -37 9 -48 313 -351 386 -387 335 -369 519 -185 123 123 128 130 128 169 0
57 -31 92 -87 100 -42 6 -44 5 -121 -71 -43 -42 -83 -76 -88 -76 -5 0 -39 29
-74 65 l-64 65 66 68 c36 37 71 77 77 89 34 67 -13 143 -89 143 -39 0 -48 -6
-121 -77 l-80 -77 -69 69 -70 69 75 76 c40 42 77 89 80 103 8 29 -8 79 -30 97
-18 15 -66 27 -91 22z"/>
<path d="M2724 2920 c-35 -14 -64 -59 -64 -99 0 -33 19 -54 310 -346 l310
-310 45 0 c45 0 46 1 185 141 130 130 140 143 140 178 0 48 -13 72 -52 92 -52
27 -84 13 -181 -84 l-87 -87 -248 246 c-136 136 -258 254 -272 263 -27 17 -53
19 -86 6z"/>
<path d="M2228 2431 c-58 -51 -54 -61 165 -491 117 -229 208 -395 224 -409 21
-19 34 -22 66 -18 46 6 72 28 87 73 9 27 8 41 -11 84 l-22 52 100 100 100 100
41 -21 c58 -30 97 -27 133 8 38 38 41 100 6 135 -36 36 -790 416 -826 416 -20
0 -42 -10 -63 -29z m420 -364 l102 -52 -55 -55 c-30 -29 -56 -52 -59 -49 -12
13 -105 209 -99 208 5 0 54 -23 111 -52z"/>
<path d="M1678 1883 c-58 -60 -114 -124 -124 -143 -25 -51 -30 -166 -10 -228
34 -102 142 -188 251 -199 78 -8 146 12 218 65 74 55 120 61 161 23 31 -29 42
-80 26 -112 -7 -13 -52 -65 -101 -115 -77 -79 -89 -96 -89 -125 0 -67 69 -120
127 -98 42 15 211 187 240 244 74 144 13 329 -131 400 -109 53 -226 41 -327
-35 -65 -49 -90 -56 -130 -40 -35 15 -59 56 -59 100 0 27 16 48 94 129 52 54
98 110 102 125 8 32 -11 82 -40 101 -11 8 -39 15 -61 15 -38 0 -46 -6 -147
-107z"/>
<path d="M3684 1581 c-34 -15 -64 -60 -64 -98 0 -69 87 -117 151 -83 24 13 49
61 49 94 0 56 -83 109 -136 87z"/>
</g>
</svg>
