<svg width="13" height="11" viewBox="0 0 13 11" fill="none" xmlns="http://www.w3.org/2000/svg">
<g opacity="0.4" clip-path="url(#clip0_349_43471)">
<path d="M11.7812 10.2143H1.21875C0.544375 10.2143 0 9.68786 0 9.03572V1.96429C0 1.31215 0.544375 0.785721 1.21875 0.785721H11.7812C12.4556 0.785721 13 1.31215 13 1.96429V9.03572C13 9.68786 12.4556 10.2143 11.7812 10.2143ZM1.21875 1.57144C0.99125 1.57144 0.8125 1.74429 0.8125 1.96429V9.03572C0.8125 9.25572 0.99125 9.42858 1.21875 9.42858H11.7812C12.0087 9.42858 12.1875 9.25572 12.1875 9.03572V1.96429C12.1875 1.74429 12.0087 1.57144 11.7812 1.57144H1.21875Z" fill="#1C1C1C" fill-opacity="0.8"/>
<path d="M6.5 7.04C5.93125 7.04 5.41125 6.82 5.02125 6.41929L0.755624 2.035C0.601249 1.87786 0.609374 1.62643 0.771874 1.47714C0.934374 1.32786 1.19437 1.33571 1.34875 1.49286L5.61437 5.87714C6.0775 6.35643 6.9225 6.35643 7.38562 5.87714L11.6512 1.50071C11.8056 1.34357 12.0656 1.33571 12.2281 1.485C12.3906 1.63429 12.3987 1.88571 12.2444 2.04286L7.97875 6.42714C7.58875 6.82786 7.06875 7.04786 6.5 7.04786V7.04Z" fill="#1C1C1C" fill-opacity="0.8"/>
</g>
<defs>
<clipPath id="clip0_349_43471">
<rect width="13" height="11" fill="white"/>
</clipPath>
</defs>
</svg>
