<svg width="21" height="21" viewBox="0 0 21 21" fill="none" xmlns="http://www.w3.org/2000/svg">
<path d="M6.5625 19.6875C7.28737 19.6875 7.875 19.0999 7.875 18.375C7.875 17.6501 7.28737 17.0625 6.5625 17.0625C5.83763 17.0625 5.25 17.6501 5.25 18.375C5.25 19.0999 5.83763 19.6875 6.5625 19.6875Z" fill="#9A9A9A"/>
<path d="M15.75 19.6875C16.4749 19.6875 17.0625 19.0999 17.0625 18.375C17.0625 17.6501 16.4749 17.0625 15.75 17.0625C15.0251 17.0625 14.4375 17.6501 14.4375 18.375C14.4375 19.0999 15.0251 19.6875 15.75 19.6875Z" fill="#9A9A9A"/>
<path d="M3.26813 1.84012C3.2384 1.69141 3.15809 1.55758 3.04084 1.46139C2.9236 1.3652 2.77665 1.31259 2.625 1.3125H0V2.625H2.08687L4.60687 15.2224C4.6366 15.3711 4.71691 15.5049 4.83416 15.6011C4.9514 15.6973 5.09835 15.7499 5.25 15.75H17.0625V14.4375H5.78813L5.26313 11.8125H17.0625C17.2118 11.8125 17.3566 11.7615 17.473 11.6681C17.5895 11.5747 17.6706 11.4444 17.703 11.2987L19.1914 4.59375H17.848L16.5362 10.5H5.00063L3.26813 1.84012Z" fill="#9A9A9A"/>
<path d="M14.1658 4.32206L11.8125 6.67537V1.3125H10.5V6.67537L8.14669 4.32206L7.21875 5.25L11.1562 9.1875L15.0938 5.25L14.1658 4.32206Z" fill="#9A9A9A"/>
</svg>
