<?xml version="1.0" encoding="UTF-8"?>
<svg version="1.1" xmlns="http://www.w3.org/2000/svg" width="482" height="518">
<path d="M0 0 C11.40124956 1.62874994 19.16404946 6.54667154 27 15 C27.33 15.99 27.66 16.98 28 18 C28.66 18 29.32 18 30 18 C37.46137332 31.54667369 39.59378979 43.61452414 39.4699707 58.79980469 C39.47048057 60.55377329 39.47274308 62.30774212 39.47660828 64.06170654 C39.48198679 68.78415024 39.4627327 73.50619557 39.43850732 78.22856808 C39.41710088 83.17948562 39.417802 88.1304034 39.41581726 93.08135986 C39.40939015 101.3795044 39.38820962 109.6775004 39.35668945 117.97558594 C39.31623804 128.6392244 39.29897512 139.30276672 39.28938007 149.96647263 C39.28109612 159.13660466 39.26386544 168.30671624 39.24434257 177.47683048 C39.23827111 180.42680084 39.23313164 183.37677197 39.2279911 186.32674408 C39.21923624 190.94627179 39.20495494 195.56575139 39.1862812 200.18524933 C39.18014045 201.88447035 39.17570048 203.58369844 39.17303848 205.28292847 C39.16908005 207.59188394 39.1589853 209.90072911 39.14717102 212.20965576 C39.14289754 213.50448254 39.13862406 214.79930931 39.13422108 216.13337326 C39 219 39 219 38 220 C35.27275721 220.10099488 32.57137477 220.13970529 29.84375 220.1328125 C28.61754944 220.13424759 28.61754944 220.13424759 27.36657715 220.13571167 C25.63484622 220.13639345 23.90311276 220.13453929 22.17138672 220.13037109 C19.51133518 220.12502279 16.8514525 220.13031612 14.19140625 220.13671875 C12.51302046 220.13605797 10.83463477 220.1347768 9.15625 220.1328125 C8.35521851 220.13483673 7.55418701 220.13686096 6.72888184 220.13894653 C1.11495079 220.11495079 1.11495079 220.11495079 0 219 C-0.09496708 216.59651714 -0.12558862 214.22189018 -0.11352539 211.81811523 C-0.11367142 211.06694427 -0.11381744 210.31577332 -0.1139679 209.5418396 C-0.11326863 207.04739541 -0.10547564 204.55302497 -0.09765625 202.05859375 C-0.09579212 200.33366436 -0.09436819 198.60873443 -0.09336853 196.88380432 C-0.08954297 192.33487497 -0.07971238 187.78597733 -0.06866455 183.23706055 C-0.05845124 178.59879994 -0.05387108 173.96053423 -0.04882812 169.32226562 C-0.03809014 160.21482978 -0.02101327 151.10741752 0 142 C-15.50800607 142.06061234 -31.01585954 142.1381671 -46.52367401 142.23571491 C-53.72475213 142.28061934 -60.92578139 142.32004621 -68.12695312 142.34643555 C-74.40584077 142.36945914 -80.68457308 142.40290553 -86.96333742 142.44870156 C-90.28580891 142.47257542 -93.6080952 142.48978729 -96.9306488 142.49761391 C-100.64605496 142.50725123 -104.36090328 142.53530805 -108.07617188 142.56762695 C-109.16949829 142.56619186 -110.26282471 142.56475677 -111.38928223 142.5632782 C-119.37450581 142.66136806 -126.46573131 143.72670695 -132.62109375 149.37890625 C-142.53499216 161.03405594 -141.30615405 177.63864255 -141.265625 192.015625 C-141.26697609 193.72426407 -141.2689203 195.43290276 -141.27142334 197.14154053 C-141.27435054 200.69823924 -141.27015305 204.25483662 -141.26074219 207.81152344 C-141.24931411 212.34928518 -141.2559436 216.88681112 -141.26788712 221.42456436 C-141.27514135 224.94376376 -141.27280207 228.46290794 -141.26763153 231.98210907 C-141.26630669 233.65490498 -141.26790144 235.32770605 -141.27259064 237.00049591 C-141.51666831 254.09065329 -141.51666831 254.09065329 -134 269 C-124.66434784 277.83588491 -114.93289745 278.44683564 -102.6796875 278.43237305 C-101.13172121 278.44139986 -99.58376206 278.45172933 -98.03581238 278.46325684 C-93.85251613 278.4907451 -89.66935582 278.50010019 -85.48598099 278.50611091 C-81.10705468 278.51551593 -76.72822906 278.54172101 -72.34936523 278.56611633 C-64.06585695 278.60972658 -55.78236827 278.63830714 -47.49878025 278.66143972 C-38.06461695 278.68852078 -28.63055522 278.73243048 -19.19646454 278.77772844 C0.2023033 278.87049628 19.601098 278.94221296 39 279 C39.1143908 283.70718142 38.5753691 286.62049335 36.5 290.875 C36.0359375 291.84179688 35.571875 292.80859375 35.09375 293.8046875 C34.7328125 294.52914063 34.371875 295.25359375 34 296 C33.34 296 32.68 296 32 296 C31.34 297.65 30.68 299.3 30 301 C29.34 301 28.68 301 28 301 C27.34 302.32 26.68 303.64 26 305 C25.34 305 24.68 305 24 305 C24 305.66 24 306.32 24 307 C17.73028455 311.7959095 10.81228712 314.66986476 3.3125 316.875 C2.62486572 317.07778564 1.93723145 317.28057129 1.22875977 317.48950195 C-7.73100497 319.95612763 -16.6769688 320.15155092 -25.92285156 320.16113281 C-27.08346603 320.16609772 -28.24408051 320.17106262 -29.43986511 320.17617798 C-33.25679124 320.19071192 -37.07367582 320.19758654 -40.890625 320.203125 C-42.88410661 320.20742603 -44.87758822 320.21172762 -46.87106967 320.2160995 C-52.42216917 320.22787645 -57.97325876 320.23543592 -63.52436948 320.2388947 C-70.66527653 320.24337077 -77.80599174 320.26091111 -84.94684052 320.2898953 C-90.4945292 320.31161891 -96.04216431 320.3216046 -101.58989501 320.32293582 C-104.89064549 320.32397604 -108.19117552 320.3311999 -111.49188995 320.34775543 C-115.181262 320.36494157 -118.87017373 320.36290501 -122.55957031 320.35644531 C-123.63013168 320.3656601 -124.70069305 320.37487488 -125.80369568 320.3843689 C-135.5364635 320.33138307 -145.64231178 319.00895427 -154.125 313.9375 C-155.42824219 313.17759766 -155.42824219 313.17759766 -156.7578125 312.40234375 C-158.52399352 311.29771137 -160.26669562 310.15553625 -162 309 C-162 308.34 -162 307.68 -162 307 C-162.57621094 306.77699219 -163.15242188 306.55398438 -163.74609375 306.32421875 C-172.53756477 301.15903907 -176.48977027 289.26355598 -179 280 C-181.88052729 266.10931629 -181.29117873 251.85029341 -181.265625 237.7421875 C-181.2669749 235.10433924 -181.26891813 232.46649122 -181.27142334 229.8286438 C-181.2750399 224.32340453 -181.27032407 218.81821931 -181.26074219 213.31298828 C-181.24985124 206.98325111 -181.25339721 200.65364277 -181.264395 194.32390869 C-181.27462461 188.18631107 -181.27346607 182.04876977 -181.26763153 175.91116714 C-181.26630516 173.32061876 -181.26790692 170.73006704 -181.27259064 168.13952255 C-181.27771413 164.51073447 -181.26986481 160.88218821 -181.25878906 157.25341797 C-181.26283752 156.20163361 -181.26688599 155.14984924 -181.27105713 154.06619263 C-181.19515046 140.52742527 -179.58948155 127.77220901 -170.5625 117.125 C-169.716875 116.42375 -168.87125 115.7225 -168 115 C-167.55785156 114.53464844 -167.11570312 114.06929688 -166.66015625 113.58984375 C-155.83104878 102.81584624 -138.50272186 100.78600614 -124.00314331 100.75115967 C-122.79328766 100.75835022 -121.58343201 100.76554077 -120.33691406 100.77294922 C-118.3738179 100.77251114 -118.3738179 100.77251114 -116.37106323 100.77206421 C-112.82224354 100.77149615 -109.27356222 100.78316054 -105.72477436 100.79721212 C-102.00123632 100.80981193 -98.27769425 100.81089721 -94.55413818 100.81326294 C-87.5208965 100.81945076 -80.48771785 100.83582461 -73.45450377 100.85596192 C-63.93792064 100.88261142 -54.42131997 100.89331539 -44.90470886 100.90496635 C-29.93642547 100.92370751 -14.96827501 100.96357099 0 101 C0 67.67 0 34.34 0 0 Z " fill="#EC1C22" transform="translate(281,52)"/>
<path d="M0 0 C13.8192985 3.07095522 23.93047196 8.62170867 32.375 20.3125 C38.29709611 30.24599292 39.58791542 39.93232417 39.50170898 51.33056641 C39.50550234 52.72496585 39.51101068 54.1193615 39.51808167 55.51374817 C39.53191887 59.2637531 39.52095146 63.0132932 39.50437045 66.76327181 C39.49040863 70.70769294 39.49699238 74.6520901 39.50050354 78.5965271 C39.50319631 85.21514279 39.4898087 91.83357615 39.46655273 98.45214844 C39.43992682 106.08216715 39.43820637 113.7118817 39.4499411 121.34193099 C39.46075301 128.71348082 39.45450653 136.08492165 39.44038582 143.45646286 C39.43465775 146.57982362 39.43468341 149.70310377 39.43945122 152.82646561 C39.44425485 156.50878683 39.43398082 160.19077866 39.41249657 163.87303734 C39.4043602 165.8533865 39.41074213 167.83377902 39.41769409 169.81413269 C39.30560594 183.39001881 35.41436234 194.91318321 26 205 C25.34 205 24.68 205 24 205 C24 205.66 24 206.32 24 207 C23.34 207 22.68 207 22 207 C22 207.66 22 208.32 22 209 C20.65144233 209.80118392 19.29578257 210.59041608 17.9375 211.375 C17.18339844 211.81585938 16.42929687 212.25671875 15.65234375 212.7109375 C10.20148027 215.36010532 5.06000637 216.2502416 -0.96260071 216.26069641 C-1.62714506 216.26452196 -2.29168941 216.26834751 -2.97637147 216.27228898 C-5.18395579 216.28253645 -7.39127599 216.27864271 -9.59887695 216.2746582 C-11.18957762 216.27900932 -12.7802762 216.2841938 -14.37097168 216.29014587 C-18.67896619 216.30350568 -22.98687279 216.3041178 -27.29488397 216.30158257 C-30.89802571 216.30051059 -34.50114984 216.30540217 -38.1042878 216.310188 C-46.60949636 216.32127323 -55.11466076 216.32172644 -63.61987305 216.31567383 C-72.37731288 216.30963724 -81.13459191 216.32193928 -89.89200431 216.3432439 C-97.42515849 216.36089248 -104.95826163 216.36685604 -112.49143571 216.36360615 C-116.98424191 216.36179799 -121.47693346 216.36438253 -125.96972084 216.37832069 C-130.19774543 216.39094716 -134.42552056 216.38890965 -138.65354156 216.37590981 C-140.19901554 216.37355475 -141.74450734 216.37624004 -143.28996086 216.38453293 C-153.34761032 216.4345804 -161.96666052 215.68714408 -171 211 C-171 210.34 -171 209.68 -171 209 C-171.66 209 -172.32 209 -173 209 C-178.40286297 202.24642128 -179.30262568 194.90828852 -179.2746582 186.5078125 C-179.27976913 185.7001947 -179.28488007 184.8925769 -179.29014587 184.06048584 C-179.30394182 181.41524659 -179.30309302 178.77027074 -179.30078125 176.125 C-179.30467302 174.27229721 -179.30900868 172.4195953 -179.31376648 170.56689453 C-179.3212067 166.6936554 -179.32095292 162.82050746 -179.31567383 158.94726562 C-179.30987509 153.99778982 -179.32683067 149.04868772 -179.3500185 144.09927368 C-179.36478757 140.27642658 -179.36562334 136.45366892 -179.36250877 132.63079834 C-179.36302016 130.80644998 -179.36822334 128.98209637 -179.37832069 127.15777588 C-179.39073283 124.60233597 -179.38386573 122.04761689 -179.37231445 119.4921875 C-179.37995819 118.74805603 -179.38760193 118.00392456 -179.39547729 117.23724365 C-179.33408039 111.05559338 -178.0414366 105.58581969 -174.125 100.625 C-169.58675705 97.15457892 -165.57532437 96.75680575 -159.94921875 96.8046875 C-159.29041214 96.8075174 -158.63160553 96.81034729 -157.95283508 96.81326294 C-155.86419938 96.82439076 -153.77600444 96.84948052 -151.6875 96.875 C-150.26498018 96.88503941 -148.8424536 96.89416358 -147.41992188 96.90234375 C-143.94647319 96.92430553 -140.47327967 96.95878354 -137 97 C-136.99413376 97.90788773 -136.98826752 98.81577545 -136.98222351 99.75117493 C-136.92435822 108.30049528 -136.8523172 116.84955267 -136.76428509 125.39861774 C-136.71952682 129.79396551 -136.68028294 134.18921941 -136.65356445 138.5847168 C-136.6275856 142.825366 -136.58722224 147.06565505 -136.53681374 151.30608177 C-136.5201082 152.92517816 -136.50861692 154.54433689 -136.50238609 156.16350746 C-136.49278469 158.42880783 -136.46477514 160.69317914 -136.43237305 162.95825195 C-136.41571846 164.89351494 -136.41571846 164.89351494 -136.39872742 166.86787415 C-136.25707702 169.95294229 -136.25707702 169.95294229 -134.66047668 171.87760925 C-131.51528411 174.00358614 -128.73002227 174.1281277 -125.05474854 174.14044189 C-124.03421387 174.14615204 -123.0136792 174.15186218 -121.96221924 174.15774536 C-120.84321228 174.15886322 -119.72420532 174.15998108 -118.57128906 174.16113281 C-117.39215942 174.16609772 -116.21302979 174.17106262 -114.99816895 174.17617798 C-111.76243673 174.18828709 -108.52674065 174.19574516 -105.29098988 174.20018864 C-103.26790145 174.2031217 -101.24481867 174.207227 -99.22173309 174.21169281 C-92.88764671 174.22536645 -86.55357325 174.23503314 -80.21947312 174.2388947 C-72.91600622 174.24337202 -65.61272679 174.26090517 -58.30931687 174.2898953 C-52.65908371 174.31154191 -47.00890316 174.3216006 -41.35862899 174.32293582 C-37.98645171 174.32398194 -34.61445069 174.32984799 -31.2423172 174.34775543 C-27.47683024 174.36481523 -23.71179902 174.36293537 -19.94628906 174.35644531 C-18.27992401 174.37026749 -18.27992401 174.37026749 -16.57989502 174.3843689 C-15.54808105 174.37879974 -14.51626709 174.37323059 -13.45318604 174.36749268 C-12.56386509 174.36895924 -11.67454414 174.3704258 -10.75827408 174.3719368 C-7.16845574 174.01310675 -7.16845574 174.01310675 -1 171 C-0.67 114.57 -0.34 58.14 0 0 Z " fill="#6E6F71" transform="translate(329,106)"/>
<path d="M0 0 C1.75690344 0.00560484 3.51381161 0.00987074 5.27072144 0.01286316 C9.86402648 0.0242421 14.4570407 0.05364832 19.05023193 0.0869751 C23.74959379 0.11782697 28.44900326 0.13140061 33.1484375 0.14648438 C42.34648098 0.1785256 51.54430992 0.22963646 60.7421875 0.29296875 C60.76683678 5.54402317 60.78502318 10.7950442 60.79711914 16.04614258 C60.80215968 17.83390896 60.80899204 19.6216712 60.81762695 21.40942383 C60.8297048 23.97348043 60.83541844 26.53748272 60.83984375 29.1015625 C60.84500504 29.90573105 60.85016632 30.7098996 60.85548401 31.53843689 C60.85567965 33.4569859 60.80420733 35.37542243 60.7421875 37.29296875 C59.7421875 38.29296875 59.7421875 38.29296875 57.79190731 38.41601658 C56.93003087 38.41509479 56.06815443 38.41417299 55.18016052 38.41322327 C53.70141449 38.41528526 53.70141449 38.41528526 52.1927948 38.41738892 C51.10235367 38.41379364 50.01191254 38.41019836 48.88842773 38.40649414 C47.17645706 38.40671318 47.17645706 38.40671318 45.42990112 38.40693665 C41.63684219 38.40623693 37.84383166 38.39844182 34.05078125 38.390625 C31.42904182 38.38876103 28.80730204 38.38733703 26.18556213 38.38633728 C19.97716795 38.38322426 13.76879129 38.37501127 7.56040484 38.36498779 C0.49401309 38.35382574 -6.57237949 38.34831597 -13.63877785 38.34329236 C-28.17846513 38.33282863 -42.71813857 38.31522975 -57.2578125 38.29296875 C-56.59576335 33.91653142 -55.60072964 30.42423044 -53.6953125 26.41796875 C-53.01275391 24.96777344 -53.01275391 24.96777344 -52.31640625 23.48828125 C-51.96707031 22.76382813 -51.61773437 22.039375 -51.2578125 21.29296875 C-50.5978125 21.29296875 -49.9378125 21.29296875 -49.2578125 21.29296875 C-48.5978125 19.64296875 -47.9378125 17.99296875 -47.2578125 16.29296875 C-46.5978125 16.29296875 -45.9378125 16.29296875 -45.2578125 16.29296875 C-44.9278125 15.30296875 -44.5978125 14.31296875 -44.2578125 13.29296875 C-43.5978125 13.29296875 -42.9378125 13.29296875 -42.2578125 13.29296875 C-42.2578125 12.63296875 -42.2578125 11.97296875 -42.2578125 11.29296875 C-40.14018647 10.008357 -38.01488004 8.74072814 -35.8828125 7.48046875 C-35.00689453 6.94583008 -35.00689453 6.94583008 -34.11328125 6.40039062 C-23.15281176 -0.02268021 -12.36586052 -0.1165427 0 0 Z " fill="#717274" transform="translate(209.2578125,104.70703125)"/>
<path d="M0 0 C1.20994629 0.00725098 1.20994629 0.00725098 2.44433594 0.01464844 C3.2612793 0.01948242 4.07822266 0.02431641 4.91992188 0.02929688 C23.58049191 0.21376277 23.58049191 0.21376277 29.06933594 5.13964844 C32.60768315 10.19443017 32.22768509 16.93762355 32.23730469 22.88183594 C32.24229729 23.97263962 32.24229729 23.97263962 32.24739075 25.08547974 C32.25242939 26.61671318 32.25480003 28.14795749 32.25463867 29.67919922 C32.25682294 32.00083821 32.27500489 34.32199967 32.29394531 36.64355469 C32.29688048 38.13964683 32.29886445 39.63574121 32.29980469 41.13183594 C32.3069902 41.81543182 32.31417572 42.49902771 32.32157898 43.20333862 C32.29458121 49.00136306 31.83046569 54.92403359 28.13183594 59.57714844 C24.36393832 62.43161633 21.04686819 62.26813112 16.46777344 62.27246094 C15.17355469 62.27375 13.87933594 62.27503906 12.54589844 62.27636719 C11.5370459 62.2732251 11.5370459 62.2732251 10.5078125 62.27001953 C8.44491278 62.26464994 6.38222905 62.26998204 4.31933594 62.27636719 C3.02769531 62.27507812 1.73605469 62.27378906 0.40527344 62.27246094 C-0.78533691 62.27133301 -1.97594727 62.27020508 -3.20263672 62.26904297 C-5.93066406 62.13964844 -5.93066406 62.13964844 -6.93066406 61.13964844 C-7.02976967 59.27329056 -7.05865668 57.40316649 -7.06005859 55.53417969 C-7.06321075 54.33623779 -7.06636292 53.1382959 -7.0696106 51.90405273 C-7.06758636 50.59992432 -7.06556213 49.2957959 -7.06347656 47.95214844 C-7.06414966 46.61075828 -7.06511974 45.26936825 -7.06637573 43.92797852 C-7.06785242 41.11343222 -7.0656991 38.29891762 -7.06103516 35.484375 C-7.05533787 31.86924213 -7.05861703 28.25418349 -7.06460762 24.63905334 C-7.06821403 21.86819902 -7.06707428 19.09736241 -7.06447983 16.32650757 C-7.06348439 14.3427526 -7.06653147 12.35899696 -7.0696106 10.37524414 C-7.06645844 9.17730225 -7.06330627 7.97936035 -7.06005859 6.74511719 C-7.059263 5.68446045 -7.05846741 4.62380371 -7.05764771 3.53100586 C-6.80929488 -1.14597745 -4.0382539 0.01209575 0 0 Z M11.06933594 12.13964844 C11.06933594 24.67964844 11.06933594 37.21964844 11.06933594 50.13964844 C12.55433594 49.64464844 12.55433594 49.64464844 14.06933594 49.13964844 C14.06933594 37.25964844 14.06933594 25.37964844 14.06933594 13.13964844 C13.07933594 12.80964844 12.08933594 12.47964844 11.06933594 12.13964844 Z " fill="#727577" transform="translate(141.9306640625,410.8603515625)"/>
<path d="M0 0 C3.80902302 0.02466303 7.61663892 0.06627083 11.42504883 0.13989258 C12.53493164 0.15665039 13.64481445 0.1734082 14.78833008 0.19067383 C19.14673898 0.40166181 22.45343141 0.69280297 25.98754883 3.38989258 C30.79296178 8.81138411 30.84055634 13.94618088 30.76098633 20.95629883 C30.30183078 25.30759853 29.01181228 27.66392919 26.42504883 31.13989258 C26.89942383 31.59364258 27.37379883 32.04739258 27.86254883 32.51489258 C30.80048616 35.57034741 30.5427213 37.89936378 30.52270508 42.02270508 C30.51948242 43.18930664 30.51625977 44.3559082 30.51293945 45.55786133 C30.50037109 47.3928418 30.50037109 47.3928418 30.48754883 49.26489258 C30.48303711 50.49594727 30.47852539 51.72700195 30.47387695 52.99536133 C30.46206223 56.04355897 30.44412633 59.09173174 30.42504883 62.13989258 C25.14504883 62.13989258 19.86504883 62.13989258 14.42504883 62.13989258 C14.09504883 53.22989258 13.76504883 44.31989258 13.42504883 35.13989258 C12.76504883 35.13989258 12.10504883 35.13989258 11.42504883 35.13989258 C11.42504883 44.04989258 11.42504883 52.95989258 11.42504883 62.13989258 C5.48504883 62.13989258 -0.45495117 62.13989258 -6.57495117 62.13989258 C-6.5975059 54.20375048 -6.6158684 46.26763312 -6.62676334 38.33146763 C-6.63199125 34.6467476 -6.63908722 30.96205055 -6.65039062 27.27734375 C-6.66122279 23.72418427 -6.6672287 20.17104695 -6.66982841 16.61787224 C-6.67168207 15.25943592 -6.67530155 13.90100086 -6.68068123 12.54257393 C-6.68789592 10.64607034 -6.68835926 8.74954465 -6.68847656 6.85302734 C-6.69069717 5.77158951 -6.69291779 4.69015167 -6.69520569 3.57594299 C-6.46844845 -1.01758141 -4.01549794 0.01325247 0 0 Z M11.42504883 12.13989258 C11.42504883 16.09989258 11.42504883 20.05989258 11.42504883 24.13989258 C12.08504883 24.13989258 12.74504883 24.13989258 13.42504883 24.13989258 C14.72121154 17.85138223 14.72121154 17.85138223 12.42504883 12.13989258 C12.09504883 12.13989258 11.76504883 12.13989258 11.42504883 12.13989258 Z " fill="#6F7174" transform="translate(222.574951171875,410.860107421875)"/>
<path d="M0 0 C7.92 0 15.84 0 24 0 C25.24775183 5.61488322 26.3780066 10.98669836 27.21875 16.640625 C27.37386047 17.6739798 27.37386047 17.6739798 27.53210449 18.72821045 C27.85771431 20.90170825 28.17899609 23.0758177 28.5 25.25 C28.82089345 27.40207363 29.1426772 29.55401269 29.46459961 31.70593262 C29.67484968 33.11502956 29.8840059 34.52429017 30.09204102 35.93371582 C30.57388317 39.19238937 31.07252702 42.4457586 31.6015625 45.69726562 C31.78460938 46.82326172 31.96765625 47.94925781 32.15625 49.109375 C32.31931641 50.08358398 32.48238281 51.05779297 32.65039062 52.06152344 C33.04202039 55.35318256 33 58.68512539 33 62 C27.39 62 21.78 62 16 62 C15.67 58.37 15.34 54.74 15 51 C13.35 51 11.7 51 10 51 C10 54.63 10 58.26 10 62 C4.06 62 -1.88 62 -8 62 C-6.74215296 49.68479989 -5.35367165 37.40082773 -3.76782227 25.1237793 C-3.43098489 22.5119826 -3.09913225 19.89958148 -2.76757812 17.28710938 C-2.55237572 15.60933747 -2.33689207 13.93160161 -2.12109375 12.25390625 C-2.02316025 11.48107803 -1.92522675 10.70824982 -1.82432556 9.91200256 C-1.38390232 6.52700285 -0.82956455 3.3182582 0 0 Z M12 25 C11.34 29.62 10.68 34.24 10 39 C11.32 39 12.64 39 14 39 C14.05410687 37.22950311 14.09284119 35.45853151 14.125 33.6875 C14.14820313 32.70136719 14.17140625 31.71523438 14.1953125 30.69921875 C14.20682639 27.77593473 14.20682639 27.77593473 12 25 Z " fill="#6C6F72" transform="translate(182,411)"/>
<path d="M0 0 C5.08111106 4.94378374 7.44835735 10.7577919 7.6875 17.8125 C7.60147456 24.28004897 6.24612568 29.07272218 2.3125 34.25 C-3.3348764 39.70498081 -9.92680661 41.89060465 -17.6875 42.25 C-24.60705903 41.89228451 -29.83497956 39.13416731 -34.6875 34.25 C-39.80628038 28.1994028 -40.33112951 22.27230215 -40.0625 14.515625 C-39.60107486 10.49738106 -38.6831586 7.74240255 -36.6875 4.25 C-36.0275 4.25 -35.3675 4.25 -34.6875 4.25 C-34.44644531 3.64542969 -34.20539063 3.04085937 -33.95703125 2.41796875 C-32.41828683 -0.20973326 -31.04436352 -1.0153349 -28.375 -2.4375 C-27.61574219 -2.85386719 -26.85648437 -3.27023438 -26.07421875 -3.69921875 C-17.10159857 -7.64952125 -7.95069527 -5.17719692 0 0 Z " fill="#6F7072" transform="translate(366.6875,61.75)"/>
<path d="M0 0 C9.24 0 18.48 0 28 0 C28 4.62 28 9.24 28 14 C24.37 14 20.74 14 17 14 C17 17.3 17 20.6 17 24 C20.3 24 23.6 24 27 24 C27 28.29 27 32.58 27 37 C23.7 37 20.4 37 17 37 C17.33 40.63 17.66 44.26 18 48 C21.63 48.33 25.26 48.66 29 49 C29 53.29 29 57.58 29 62 C19.43 62 9.86 62 0 62 C0 41.54 0 21.08 0 0 Z " fill="#6E7173" transform="translate(104,411)"/>
<path d="M0 0 C1.12535156 0.00580078 1.12535156 0.00580078 2.2734375 0.01171875 C3.02367188 0.00785156 3.77390625 0.00398438 4.546875 0 C10.14682697 0.01010822 10.14682697 0.01010822 11.2734375 1.13671875 C11.37151457 2.52642678 11.40141971 3.92104513 11.40283203 5.31420898 C11.40598419 6.20281113 11.40913635 7.09141327 11.41238403 8.00694275 C11.4103598 8.97660477 11.40833557 9.94626678 11.40625 10.9453125 C11.40768509 12.43914207 11.40768509 12.43914207 11.40914917 13.96315002 C11.40983168 16.08082136 11.4079725 18.19849476 11.40380859 20.31616211 C11.39851174 23.52918336 11.40372477 26.74206155 11.41015625 29.95507812 C11.40949449 32.01432322 11.40821131 34.07356823 11.40625 36.1328125 C11.40827423 37.08425644 11.41029846 38.03570038 11.41238403 39.01597595 C11.35593 55.43859714 11.35593 55.43859714 9.17956543 58.85269165 C6.44868975 61.47832517 3.85478206 62.42411159 0.1875 62.625 C-1.24301148 62.5921901 -2.67313954 62.53316766 -4.1015625 62.44921875 C-4.83761719 62.42666016 -5.57367188 62.40410156 -6.33203125 62.38085938 C-8.13110092 62.32244802 -9.92911003 62.23278212 -11.7265625 62.13671875 C-11.7265625 58.17671875 -11.7265625 54.21671875 -11.7265625 50.13671875 C-9.2515625 49.64171875 -9.2515625 49.64171875 -6.7265625 49.13671875 C-6.72878311 48.53759171 -6.73100372 47.93846466 -6.73329163 47.32118225 C-6.75534415 41.10874017 -6.77046896 34.89630913 -6.78149414 28.68383789 C-6.78653583 26.36254424 -6.79336901 24.04125378 -6.80200195 21.7199707 C-6.81407475 18.3914308 -6.81979229 15.06293273 -6.82421875 11.734375 C-6.82938004 10.68959488 -6.83454132 9.64481476 -6.83985901 8.56837463 C-6.83993454 7.60745407 -6.84001007 6.64653351 -6.84008789 5.65649414 C-6.8423085 4.80599991 -6.84452911 3.95550568 -6.84681702 3.07923889 C-6.58663136 -1.12364596 -3.50415771 0.00632519 0 0 Z " fill="#6E7174" transform="translate(88.7265625,410.86328125)"/>
<path d="M0 0 C1.98 0 3.96 0 6 0 C6 3.96 6 7.92 6 12 C7.65 12 9.3 12 11 12 C11 8.04 11 4.08 11 0 C12.98 0 14.96 0 17 0 C17 3.96 17 7.92 17 12 C17.99 11.67 18.98 11.34 20 11 C20.33 7.37 20.66 3.74 21 0 C22.98 0 24.96 0 27 0 C27 3.96 27 7.92 27 12 C28.65 12 30.3 12 32 12 C32 8.04 32 4.08 32 0 C33.98 0 35.96 0 38 0 C38 3.96 38 7.92 38 12 C39.65 12 41.3 12 43 12 C43 8.04 43 4.08 43 0 C44.98 0 46.96 0 49 0 C49.05382106 2.62527189 49.09358313 5.24944713 49.125 7.875 C49.14175781 8.62136719 49.15851563 9.36773437 49.17578125 10.13671875 C49.1933959 12.09194461 49.10320189 14.04742021 49 16 C47 18 47 18 44.82333374 18.24050903 C43.92176544 18.23606781 43.02019714 18.23162659 42.09130859 18.22705078 C41.07040131 18.22689972 40.04949402 18.22674866 38.99765015 18.22659302 C37.33978989 18.21110916 37.33978989 18.21110916 35.6484375 18.1953125 C34.5192691 18.1924826 33.39010071 18.18965271 32.22671509 18.18673706 C28.60937029 18.17551462 24.99227034 18.15040622 21.375 18.125 C18.9270869 18.11497287 16.47916993 18.10584656 14.03125 18.09765625 C8.02074936 18.07556857 2.01039217 18.04207074 -4 18 C-4.13019531 19.12535156 -4.26039063 20.25070312 -4.39453125 21.41015625 C-5 25 -5 25 -6.6875 26.4375 C-9.519818 27.12644222 -12.09628021 27.13198726 -15 27 C-15 25.02 -15 23.04 -15 21 C-13.68 21 -12.36 21 -11 21 C-11 14.73 -11 8.46 -11 2 C-9.02 2 -7.04 2 -5 2 C-4 3 -4 3 -3.90234375 5.06640625 C-3.91394531 5.89011719 -3.92554688 6.71382813 -3.9375 7.5625 C-3.94652344 8.38878906 -3.95554687 9.21507812 -3.96484375 10.06640625 C-3.97644531 10.70449219 -3.98804688 11.34257812 -4 12 C-2.68 12 -1.36 12 0 12 C0 8.04 0 4.08 0 0 Z " fill="#6C6E71" transform="translate(278,416)"/>
<path d="M0 0 C0.33 0 0.66 0 1 0 C1.02332644 23.19104488 1.04097792 46.38208783 1.05181217 69.57314205 C1.05697567 80.34035064 1.0640194 91.10755194 1.07543945 101.87475586 C1.08538464 111.25585245 1.09185303 120.63694377 1.09408849 130.01804549 C1.09539588 134.98850218 1.0984835 139.9589438 1.10573006 144.92939568 C1.11248767 149.60208122 1.11461749 154.27474541 1.11310768 158.94743538 C1.11338413 160.66761516 1.11539078 162.38779562 1.11920547 164.10797119 C1.1241387 166.44606661 1.12299968 168.78408004 1.12025452 171.12217712 C1.12163721 173.08974425 1.12163721 173.08974425 1.12304783 175.0970602 C1 178 1 178 0 179 C-2.72724279 179.10099488 -5.42862523 179.13970529 -8.15625 179.1328125 C-9.38245056 179.13424759 -9.38245056 179.13424759 -10.63342285 179.13571167 C-12.36515378 179.13639345 -14.09688724 179.13453929 -15.82861328 179.13037109 C-18.48866482 179.12502279 -21.1485475 179.13031612 -23.80859375 179.13671875 C-25.48697954 179.13605797 -27.16536523 179.1347768 -28.84375 179.1328125 C-29.64478149 179.13483673 -30.44581299 179.13686096 -31.27111816 179.13894653 C-36.88504921 179.11495079 -36.88504921 179.11495079 -38 178 C-38.09496708 175.59651714 -38.12558862 173.22189018 -38.11352539 170.81811523 C-38.11367142 170.06694427 -38.11381744 169.31577332 -38.1139679 168.5418396 C-38.11326863 166.04739541 -38.10547564 163.55302497 -38.09765625 161.05859375 C-38.09579212 159.33366436 -38.09436819 157.60873443 -38.09336853 155.88380432 C-38.08954297 151.33487497 -38.07971238 146.78597733 -38.06866455 142.23706055 C-38.05845124 137.59879994 -38.05387108 132.96053423 -38.04882812 128.32226562 C-38.03809014 119.21482978 -38.02101327 110.10741752 -38 101 C-53.50800607 101.06061234 -69.01585954 101.1381671 -84.52367401 101.23571491 C-91.72475213 101.28061934 -98.92578139 101.32004621 -106.12695312 101.34643555 C-112.40584077 101.36945914 -118.68457308 101.40290553 -124.96333742 101.44870156 C-128.28580891 101.47257542 -131.6080952 101.48978729 -134.9306488 101.49761391 C-138.64605496 101.50725123 -142.36090328 101.53530805 -146.07617188 101.56762695 C-147.16949829 101.56619186 -148.26282471 101.56475677 -149.38928223 101.5632782 C-159.96366586 101.6931731 -166.29355483 104.48376967 -173.875 111.8125 C-174.431875 112.4003125 -174.431875 112.4003125 -175 113 C-175.33 111.68 -175.66 110.36 -176 109 C-175.01 109 -174.02 109 -173 109 C-173.495 106.525 -173.495 106.525 -174 104 C-171.69 104 -169.38 104 -167 104 C-166.67 103.01 -166.34 102.02 -166 101 C-164.109375 100.3046875 -164.109375 100.3046875 -161.75 99.875 C-160.98171875 99.72804688 -160.2134375 99.58109375 -159.421875 99.4296875 C-158.62265625 99.28789062 -157.8234375 99.14609375 -157 99 C-155.84124343 98.74292692 -155.84124343 98.74292692 -154.65907764 98.48066044 C-152.04851621 98.00876989 -149.68228195 97.87684997 -147.03288269 97.87974548 C-146.05838165 97.87837082 -145.08388062 97.87699615 -144.07984924 97.87557983 C-143.02249069 97.87917511 -141.96513214 97.88277039 -140.87573242 97.88647461 C-139.75334167 97.88632858 -138.63095093 97.88618256 -137.47454834 97.8860321 C-133.76816875 97.88672824 -130.06183955 97.89450672 -126.35546875 97.90234375 C-123.78428678 97.90420899 -121.21310445 97.90563239 -118.641922 97.90663147 C-112.56824059 97.91005827 -106.49457995 97.91793817 -100.42090636 97.92798096 C-93.50435862 97.93916854 -86.58781001 97.94465921 -79.67125547 97.94967639 C-65.44749396 97.9601215 -51.22374762 97.97770445 -37 98 C-35.82891936 101.51324192 -35.86770642 104.66365058 -35.88647461 108.31713867 C-35.88632858 109.05884811 -35.88618256 109.80055756 -35.8860321 110.56474304 C-35.88672866 113.01584805 -35.89450903 115.46687702 -35.90234375 117.91796875 C-35.90420884 119.61761941 -35.90563232 121.31727061 -35.90663147 123.016922 C-35.91044945 127.49019861 -35.92027362 131.96344276 -35.93133545 136.43670654 C-35.94336359 141.80399657 -35.94795524 147.17129746 -35.95378876 152.53859711 C-35.96348574 160.69242066 -35.98264733 168.84617295 -36 177 C-24.12 177 -12.24 177 0 177 C0 118.59 0 60.18 0 0 Z " fill="#D45358" transform="translate(319,93)"/>
<path d="M0 0 C5.94 0 11.88 0 18 0 C19.37020997 4.11062991 19.06276637 7.66912062 19 12 C24.61 12 30.22 12 36 12 C35.01 10.02 34.02 8.04 33 6 C30.29266579 5.06402689 30.29266579 5.06402689 27.3125 5.125 C26.31863281 5.08632813 25.32476562 5.04765625 24.30078125 5.0078125 C23.54152344 5.00523437 22.78226562 5.00265625 22 5 C22 3.35 22 1.7 22 0 C24.60527105 -0.10792837 27.20608311 -0.18724878 29.8125 -0.25 C30.55048828 -0.28351563 31.28847656 -0.31703125 32.04882812 -0.3515625 C37.49362528 -0.45011086 37.49362528 -0.45011086 39.96875 1.75 C41.55366755 5.20800193 41.68484907 8.21818884 42 12 C42.99 12.33 43.98 12.66 45 13 C45 14.65 45 16.3 45 18 C29.49 18 13.98 18 -2 18 C-2 13 -2 13 -1 12 C1.35313555 11.92728259 3.70833668 11.91629132 6.0625 11.9375 C7.35285156 11.94652344 8.64320313 11.95554687 9.97265625 11.96484375 C10.97167969 11.97644531 11.97070312 11.98804688 13 12 C12.34 10.02 11.68 8.04 11 6 C7.37 5.67 3.74 5.34 0 5 C0 3.35 0 1.7 0 0 Z " fill="#6D6F71" transform="translate(358,416)"/>
<path d="M0 0 C9.36354432 1.33764919 16.07574001 4.62239211 23 11 C21.25 11.75 21.25 11.75 19 12 C17.66666667 10.66666667 16.33333333 9.33333333 15 8 C12.68234271 7.28072705 10.34904126 6.6090107 8 6 C7.01 5.01 7.01 5.01 6 4 C5.01 3.67 4.02 3.34 3 3 C2.67 35.67 2.34 68.34 2 102 C-1.7197014 102.74394028 -4.38945351 103.11560935 -8.06884766 103.08007812 C-9.63619156 103.07131653 -9.63619156 103.07131653 -11.23519897 103.06237793 C-12.40797394 103.05210571 -13.5807489 103.0418335 -14.7890625 103.03125 C-17.51206457 103.01967525 -20.23499475 103.01007277 -22.95800781 103.00390625 C-24.09974111 103.00110783 -24.09974111 103.00110783 -25.26453972 102.99825287 C-36.76791328 102.98111748 -48.27071302 103.11008423 -59.7734375 103.21875 C-60.96557106 103.22982788 -62.15770462 103.24090576 -63.38596344 103.25231934 C-70.78672323 103.32113776 -78.18746218 103.39199051 -85.5881958 103.46356201 C-91.96503743 103.52492227 -98.34189435 103.58464971 -104.71875 103.64453125 C-117.14584847 103.76145956 -129.57292946 103.880143 -142 104 C-142.33 104.99 -142.66 105.98 -143 107 C-143.99 106.67 -144.98 106.34 -146 106 C-147.99961564 105.96079185 -150.00049364 105.95556653 -152 106 C-145.0620924 101.95288724 -136.0720124 100.87235271 -128.1913147 100.87974548 C-127.05557007 100.87837082 -125.91982544 100.87699615 -124.74966431 100.87557983 C-122.90252335 100.88097275 -122.90252335 100.88097275 -121.01806641 100.88647461 C-119.05628448 100.88625557 -119.05628448 100.88625557 -117.05487061 100.8860321 C-113.48094587 100.88574593 -109.9070549 100.89161358 -106.33313799 100.89860606 C-102.59354354 100.90486955 -98.85394826 100.90544577 -95.11434937 100.90663147 C-88.03843148 100.90973596 -80.96252909 100.91793745 -73.88661802 100.92798096 C-64.321019 100.94126276 -54.75541572 100.94664913 -45.1898098 100.95248318 C-30.12652826 100.96187794 -15.06327943 100.98180275 0 101 C0 67.67 0 34.34 0 0 Z " fill="#CA2D2E" transform="translate(281,52)"/>
<path d="M0 0 C1.98 0 3.96 0 6 0 C6.33 7.26 6.66 14.52 7 22 C8.32 21.34 9.64 20.68 11 20 C12 21 12 21 12.09765625 22.84765625 C12.06510417 24.8984375 12.03255208 26.94921875 12 29 C13.32 29 14.64 29 16 29 C16 30.98 16 32.96 16 35 C14.68 35 13.36 35 12 35 C12 39.29 12 43.58 12 48 C13.32 48 14.64 48 16 48 C16.04254356 49.99954746 16.04080783 52.00041636 16 54 C15 55 15 55 11.125 55.25 C7.30271222 55.19529821 7.30271222 55.19529821 5.0625 53.75 C2.66319993 49.79821165 2.89223762 45.77623832 2.9375 41.25 C2.94652344 40.07953125 2.95554687 38.9090625 2.96484375 37.703125 C2.97644531 36.81109375 2.98804688 35.9190625 3 35 C2.34 35 1.68 35 1 35 C1 33.02 1 31.04 1 29 C1.66 29 2.32 29 3 29 C2.67 27.68 2.34 26.36 2 25 C0.02 25 -1.96 25 -4 25 C-4 23.02 -4 21.04 -4 19 C-3.01 18.67 -2.02 18.34 -1 18 C-0.505 9.09 -0.505 9.09 0 0 Z " fill="#6C6F72" transform="translate(341,418)"/>
<path d="M0 0 C40.59 0 81.18 0 123 0 C123 1.32 123 2.64 123 4 C82.41 4 41.82 4 0 4 C0 2.68 0 1.36 0 0 Z " fill="#616366" transform="translate(278,480)"/>
<path d="M0 0 C40.26 0 80.52 0 122 0 C122 1.32 122 2.64 122 4 C81.74 4 41.48 4 0 4 C0 2.68 0 1.36 0 0 Z " fill="#797B7E" transform="translate(77,480)"/>
<path d="M0 0 C2.64898432 2.2500015 4.44308324 4.88616649 6 8 C6 10.31 6 12.62 6 15 C0.72 15 -4.56 15 -10 15 C-9.67 16.32 -9.34 17.64 -9 19 C-7.02 19 -5.04 19 -3 19 C-3 18.34 -3 17.68 -3 17 C-0.03 17 2.94 17 6 17 C4.64367505 21.43888167 3.07570828 23.70741409 -1 26 C-5.16564077 26.75106712 -9.14516281 27.00935919 -12.9453125 24.94140625 C-15.09874963 23.18848762 -16.75284633 21.49430733 -18 19 C-18.09672832 17.02275939 -18.12979903 15.0420994 -18.125 13.0625 C-18.12757813 12.00160156 -18.13015625 10.94070313 -18.1328125 9.84765625 C-18 7 -18 7 -17 4 C-16.34 4 -15.68 4 -15 4 C-15 3.34 -15 2.68 -15 2 C-9.88130627 -0.66598632 -5.61416429 -2.16563151 0 0 Z M-8 6 C-8.66 7.32 -9.32 8.64 -10 10 C-7.36 10 -4.72 10 -2 10 C-2.66 8.68 -3.32 7.36 -4 6 C-5.32 6 -6.64 6 -8 6 Z " fill="#6A6C6F" transform="translate(376,447)"/>
<path d="M0 0 C0 0.66 0 1.32 0 2 C0.66 2 1.32 2 2 2 C2.66 5.63 3.32 9.26 4 13 C-1.28 13 -6.56 13 -12 13 C-11.67 14.32 -11.34 15.64 -11 17 C-10.175 16.67 -9.35 16.34 -8.5 16 C-4.4126017 14.83217191 -1.23076656 14.8541115 3 15 C1.82495719 19.40641053 0.9612308 21.65927271 -3 24 C-5.4375 24.36328125 -5.4375 24.36328125 -8 24.3125 C-8.845625 24.30863281 -9.69125 24.30476563 -10.5625 24.30078125 C-13.24995379 23.96915634 -14.76988725 23.53784858 -17 22 C-19.81444926 18.33230142 -20.41003909 15.57844114 -20.375 11 C-20.38273437 9.989375 -20.39046875 8.97875 -20.3984375 7.9375 C-19.81625266 3.64531373 -18.02409141 1.02409141 -15 -2 C-10.10482353 -4.0710362 -4.24752196 -2.83168131 0 0 Z M-12 5 C-12 5.99 -12 6.98 -12 8 C-9.69 8 -7.38 8 -5 8 C-5 7.01 -5 6.02 -5 5 C-8.58327753 3.99782936 -8.58327753 3.99782936 -12 5 Z " fill="#717476" transform="translate(309,449)"/>
<path d="M0 0 C2.11059304 2.14673645 2.92785967 3.47603885 3.34057617 6.47363281 C3.32486572 7.37436523 3.30915527 8.27509766 3.29296875 9.203125 C3.28330078 10.1828125 3.27363281 11.1625 3.26367188 12.171875 C3.23853516 13.18765625 3.21339844 14.2034375 3.1875 15.25 C3.16719727 16.796875 3.16719727 16.796875 3.14648438 18.375 C3.11117607 20.91719792 3.06186036 23.45833223 3 26 C0.66705225 26.04241723 -1.66702567 26.04092937 -4 26 C-5.51421001 24.48578999 -5.21309856 23.07527232 -5.31640625 20.96484375 C-5.37924805 19.75151367 -5.37924805 19.75151367 -5.44335938 18.51367188 C-5.48267578 17.66353516 -5.52199219 16.81339844 -5.5625 15.9375 C-5.60568359 15.08349609 -5.64886719 14.22949219 -5.69335938 13.34960938 C-5.79976702 11.23327963 -5.90041731 9.11666187 -6 7 C-7.65 7.33 -9.3 7.66 -11 8 C-11.06058594 9.21558594 -11.12117188 10.43117188 -11.18359375 11.68359375 C-11.26798332 13.26824228 -11.3526321 14.85287702 -11.4375 16.4375 C-11.49647461 17.64116211 -11.49647461 17.64116211 -11.55664062 18.86914062 C-11.88671875 24.88671875 -11.88671875 24.88671875 -13 26 C-15.31 26 -17.62 26 -20 26 C-20 17.42 -20 8.84 -20 0 C-17.03 0 -14.06 0 -11 0 C-6.71637024 -1.07090744 -4.26482557 -1.00804968 0 0 Z " fill="#6C6F72" transform="translate(336,447)"/>
<path d="M0 0 C0 0.66 0 1.32 0 2 C0.66 2 1.32 2 2 2 C2.38218767 3.65614657 2.71395102 5.32457024 3 7 C2 8 2 8 -1.5625 8.0625 C-2.696875 8.041875 -3.83125 8.02125 -5 8 C-5.33 7.34 -5.66 6.68 -6 6 C-7.98 6 -9.96 6 -12 6 C-12.08159574 10.16138263 -11.98248524 13.9472484 -11 18 C-9.35 17.67 -7.7 17.34 -6 17 C-5.67 16.01 -5.34 15.02 -5 14 C-2.36 14 0.28 14 3 14 C2.83383414 18.32031241 2.65309479 20.36323258 -0.5 23.4375 C-4.7968951 25.35575674 -8.35874997 25.72572273 -13 25 C-15.2734375 23.9765625 -15.2734375 23.9765625 -17 23 C-17 22.34 -17 21.68 -17 21 C-17.66 21 -18.32 21 -19 21 C-21.3458725 16.45487203 -21.74054398 12.00748788 -21 7 C-16.98701299 -0.35714286 -16.98701299 -0.35714286 -12.875 -1.6875 C-8.5459521 -2.15804868 -3.95083758 -1.97541879 0 0 Z " fill="#757779" transform="translate(284,448)"/>
<path d="M0 0 C0.33 0 0.66 0 1 0 C1.25 6.625 1.25 6.625 -1 10 C-1.66 10 -2.32 10 -3 10 C-3 11.65 -3 13.3 -3 15 C-3.66 15 -4.32 15 -5 15 C-5.02343644 32.09925406 -5.04103169 49.19850306 -5.05181217 66.29776955 C-5.05695241 74.23855758 -5.06395144 82.17933559 -5.07543945 90.12011719 C-5.0854561 97.04720421 -5.09186993 103.97428397 -5.09408849 110.90137804 C-5.09538382 114.563835 -5.09839415 118.2262712 -5.10573006 121.88872147 C-5.11388315 125.99304344 -5.11398668 130.09733009 -5.11352539 134.20166016 C-5.11712067 135.39497452 -5.12071594 136.58828888 -5.12442017 137.81776428 C-5.11464071 145.91590761 -4.67238314 153.93047677 -4 162 C-11.10846502 154.89153498 -8.26733812 134.57753768 -8.27789307 125.33810425 C-8.27431311 122.80613123 -8.27021111 120.2741589 -8.265625 117.7421875 C-8.2669749 115.10433924 -8.26891813 112.46649122 -8.27142334 109.8286438 C-8.2750399 104.32340453 -8.27032407 98.81821931 -8.26074219 93.31298828 C-8.24985124 86.98325111 -8.25339721 80.65364277 -8.264395 74.32390869 C-8.27462461 68.18631107 -8.27346607 62.04876977 -8.26763153 55.91116714 C-8.26630516 53.32061876 -8.26790692 50.73006704 -8.27259064 48.13952255 C-8.27771413 44.51073447 -8.26986481 40.88218821 -8.25878906 37.25341797 C-8.26283752 36.20163361 -8.26688599 35.14984924 -8.27105713 34.06619263 C-8.21564844 24.18345998 -7.74332538 13.97165232 -2.875 5.1875 C-2.06675781 3.69283203 -2.06675781 3.69283203 -1.2421875 2.16796875 C-0.83226563 1.45253906 -0.42234375 0.73710937 0 0 Z " fill="#DB5F62" transform="translate(108,172)"/>
<path d="M0 0 C5.5452045 1.38630113 10.54865739 3.49441082 15.7421875 5.87890625 C23.68227888 8.61128782 32.37634143 8.16395145 40.67993164 8.20532227 C41.91994934 8.21522186 43.15996704 8.22512146 44.43756104 8.23532104 C47.81088211 8.26134925 51.18418154 8.28327608 54.55754018 8.30332303 C58.09294523 8.32532157 61.62830922 8.35264184 65.16368103 8.37937927 C71.84635177 8.42911998 78.52904553 8.47412719 85.21176094 8.51740164 C92.82491116 8.56693408 100.43802016 8.62179239 108.05113041 8.67708123 C123.70071543 8.79061507 139.35033849 8.89751538 155 9 C155 9.33 155 9.66 155 10 C147.99306498 10.91426498 141.13909085 11.15381423 134.07714844 11.16113281 C132.33622673 11.16858017 132.33622673 11.16858017 130.56013489 11.17617798 C126.74320876 11.19071192 122.92632418 11.19758654 119.109375 11.203125 C117.11589339 11.20742603 115.12241178 11.21172762 113.12893033 11.2160995 C107.57783083 11.22787645 102.02674124 11.23543592 96.47563052 11.2388947 C89.33472347 11.24337077 82.19400826 11.26091111 75.05315948 11.2898953 C69.5054708 11.31161891 63.95783569 11.3216046 58.41010499 11.32293582 C55.10935451 11.32397604 51.80882448 11.3311999 48.50811005 11.34775543 C44.818738 11.36494157 41.12982627 11.36290501 37.44042969 11.35644531 C35.83458763 11.37026749 35.83458763 11.37026749 34.19630432 11.3843689 C24.4088327 11.33108526 14.31741996 9.95226228 5.75 4.9375 C4.85796875 4.43089844 3.9659375 3.92429687 3.046875 3.40234375 C1 2 1 2 0 0 Z " fill="#DF4949" transform="translate(121,361)"/>
<path d="M0 0 C1.31493769 0.00138269 1.31493769 0.00138269 2.65643978 0.00279331 C4.16042828 0.00073132 4.16042828 0.00073132 5.69480038 -0.00137234 C7.35851429 0.00402058 7.35851429 0.00402058 9.05583858 0.00952244 C10.21665951 0.00937641 11.37748043 0.00923038 12.57347775 0.00907993 C16.43146759 0.00977966 20.28940985 0.01757485 24.14739132 0.02539158 C26.81397235 0.02725555 29.48055071 0.02872871 32.14713192 0.0296793 C38.46177386 0.03279235 44.77639858 0.04100539 51.09103292 0.05102879 C58.2783414 0.06219073 65.46565068 0.06770058 72.65296566 0.07272422 C87.44148096 0.08318802 102.22998272 0.10078696 117.01848507 0.12304783 C117.01848507 1.11304783 117.01848507 2.10304783 117.01848507 3.12304783 C116.4022578 3.12543618 115.78603054 3.12782454 115.15112972 3.13028526 C100.13518667 3.18950226 85.11942215 3.26509496 70.10365963 3.35876274 C62.84204723 3.4036683 55.58048329 3.44309491 48.31877804 3.46948338 C41.98715344 3.49250605 35.65568291 3.52595143 29.3241806 3.57174939 C25.97373334 3.59562469 22.62357861 3.61283546 19.27303219 3.62066174 C15.52649487 3.63029825 11.78051094 3.65835413 8.03411007 3.69067478 C6.38009434 3.68852215 6.38009434 3.68852215 4.69266415 3.68632603 C-5.9138732 3.81555063 -12.25012304 6.58270233 -19.85651493 13.93554783 C-20.22776493 14.32742283 -20.59901493 14.71929783 -20.98151493 15.12304783 C-21.31151493 13.80304783 -21.64151493 12.48304783 -21.98151493 11.12304783 C-20.99151493 11.12304783 -20.00151493 11.12304783 -18.98151493 11.12304783 C-19.31151493 9.47304783 -19.64151493 7.82304783 -19.98151493 6.12304783 C-17.67151493 6.12304783 -15.36151493 6.12304783 -12.98151493 6.12304783 C-12.65151493 5.13304783 -12.32151493 4.14304783 -11.98151493 3.12304783 C-9.95026493 2.42773533 -9.95026493 2.42773533 -7.48151493 1.99804783 C-4.74848219 1.50506407 -2.53760497 0.15757983 0 0 Z " fill="#E04E51" transform="translate(164.9815149307251,190.87695217132568)"/>
<path d="M0 0 C-0.33 2.31 -0.66 4.62 -1 7 C-3.31 7 -5.62 7 -8 7 C-8.06058594 8.28777344 -8.12117188 9.57554687 -8.18359375 10.90234375 C-8.26798247 12.58074159 -8.3526313 14.25912636 -8.4375 15.9375 C-8.47681641 16.78763672 -8.51613281 17.63777344 -8.55664062 18.51367188 C-8.59853516 19.32255859 -8.64042969 20.13144531 -8.68359375 20.96484375 C-8.73858032 22.08814087 -8.73858032 22.08814087 -8.79467773 23.23413086 C-9 25 -9 25 -10 26 C-13 26.125 -13 26.125 -16 26 C-17 25 -17 25 -17.11352539 22.59155273 C-17.10828857 21.54942627 -17.10305176 20.5072998 -17.09765625 19.43359375 C-17.09443359 18.30888672 -17.09121094 17.18417969 -17.08789062 16.02539062 C-17.07951172 14.84138672 -17.07113281 13.65738281 -17.0625 12.4375 C-17.05798828 11.24962891 -17.05347656 10.06175781 -17.04882812 8.83789062 C-17.03699675 5.89187774 -17.02051287 2.94596319 -17 0 C-15.24397773 -0.18059253 -13.48734183 -0.35522493 -11.73046875 -0.52734375 C-10.26323364 -0.67417603 -10.26323364 -0.67417603 -8.76635742 -0.82397461 C-5.69881044 -1.01916492 -2.98553827 -0.72621201 0 0 Z " fill="#707275" transform="translate(402,447)"/>
<path d="M0 0 C9.36354432 1.33764919 16.07574001 4.62239211 23 11 C21.25 11.75 21.25 11.75 19 12 C17.66666667 10.66666667 16.33333333 9.33333333 15 8 C12.68234271 7.28072705 10.34904126 6.6090107 8 6 C7.34 5.34 6.68 4.68 6 4 C5.01 3.67 4.02 3.34 3 3 C2.67 35.67 2.34 68.34 2 102 C-0.475 102.495 -0.475 102.495 -3 103 C-1.515 102.505 -1.515 102.505 0 102 C0 68.34 0 34.68 0 0 Z " fill="#CC3C40" transform="translate(281,52)"/>
<path d="M0 0 C1.32 0.33 2.64 0.66 4 1 C4 1.66 4 2.32 4 3 C4.97582031 3 5.95164063 3 6.95703125 3 C21 3 21 3 24 3.0625 C27.05248736 3.14717044 27.05248736 3.14717044 30 2 C30 1.34 30 0.68 30 0 C30.99 0 31.98 0 33 0 C33 3.63 33 7.26 33 11 C32.01 11 31.02 11 30 11 C30 9.35 30 7.7 30 6 C29.01 6 28.02 6 27 6 C26.67 7.65 26.34 9.3 26 11 C22.98968256 11.93423645 22.13349732 12.04449911 19 11 C18.21625 11.165 17.4325 11.33 16.625 11.5 C13.66486587 12.06383507 11.93955239 11.60127208 9 11 C5.99418168 10.908761 3.00830146 10.95509998 0 11 C0 7.37 0 3.74 0 0 Z M15 7 C19 8 19 8 19 8 Z " fill="#868788" transform="translate(216,476)"/>
<path d="M0 0 C2 1 2 1 3.05434799 3.3086195 C6.28905739 13.01930945 6.54548172 21.85580906 6.45410156 31.99926758 C6.45297088 33.7745613 6.45361125 35.54985689 6.45587158 37.32514954 C6.45701104 42.1053864 6.43362726 46.88521513 6.40557575 51.66535783 C6.38043295 56.67545854 6.37821 61.68557041 6.37347412 66.69572449 C6.36108199 76.16561064 6.32831167 85.6353103 6.28807616 95.10511464 C6.24324086 105.89357623 6.22134193 116.6820471 6.20129442 127.47057879 C6.15957538 149.64717948 6.08627042 171.82352478 6 194 C-5.88 194 -17.76 194 -30 194 C-30 193.67 -30 193.34 -30 193 C-18.78 193 -7.56 193 4 193 C4.06774446 170.19061317 4.12299783 147.38130792 4.15543652 124.57184601 C4.1708993 113.98080339 4.19197763 103.38982775 4.22631836 92.79882812 C4.25623866 83.56672098 4.27557928 74.33466235 4.28226548 65.10250807 C4.28617327 60.2150519 4.29534496 55.32773452 4.31719017 50.44032288 C4.33759684 45.83733553 4.34382534 41.23454379 4.33932304 36.6315155 C4.34014637 34.94490495 4.34608709 33.25828766 4.35761642 31.57171631 C4.51022641 19.95828332 4.51022641 19.95828332 1 9 C0.18967347 5.75869388 0 3.39435664 0 0 Z " fill="#D92328" transform="translate(313,76)"/>
<path d="M0 0 C2.00349261 0.31165441 4.00326516 0.64763503 6 1 C7.66842534 0.67558396 9.33480481 0.34060811 11 0 C14.33496687 -0.09249523 17.66455881 -0.05828926 21 0 C22 3 22 3 21.22265625 5.04296875 C20.64837891 6.10451172 20.64837891 6.10451172 20.0625 7.1875 C19.68222656 7.90292969 19.30195313 8.61835938 18.91015625 9.35546875 C18.60980469 9.89816406 18.30945313 10.44085938 18 11 C17.01 11 16.02 11 15 11 C14.957279 9.33388095 14.95936168 7.66617115 15 6 C15.33 5.67 15.66 5.34 16 5 C15.34 4.67 14.68 4.34 14 4 C13.67 6.31 13.34 8.62 13 11 C9.71303767 11.79953138 8.28976808 12.09658936 5 11 C2.36195411 11.39397335 2.36195411 11.39397335 0 12 C-1.58969234 8.52254801 -2.41465662 5.83557374 -2 2 C-1.34 1.34 -0.68 0.68 0 0 Z M9 3 C10 5 10 5 10 5 Z " fill="#868789" transform="translate(252,476)"/>
<path d="M0 0 C37.29 0 74.58 0 113 0 C113 0.33 113 0.66 113 1 C111.59392235 1.0154612 111.59392235 1.0154612 110.15943909 1.03123474 C101.34471358 1.12880172 92.5300613 1.23151951 83.71545506 1.33933926 C79.18329414 1.39460922 74.65112682 1.44803559 70.11889648 1.49731445 C65.74871452 1.54489811 61.37861352 1.59723848 57.00852776 1.65294075 C55.33751365 1.67339158 53.66647731 1.69210006 51.99542427 1.70907402 C49.6629644 1.73305793 47.33065893 1.7631202 44.99829102 1.79467773 C44.3005809 1.8004332 43.60287079 1.80618866 42.88401794 1.81211853 C39.66206976 1.59440636 39.66206976 1.59440636 37 3 C29.05823129 4.39517558 20.90356575 4.11837332 12.875 4.0625 C11.01101562 4.05573242 11.01101562 4.05573242 9.109375 4.04882812 C6.07286498 4.03714924 3.03645912 4.0207714 0 4 C0 2.68 0 1.36 0 0 Z " fill="#5D5F62" transform="translate(77,480)"/>
<path d="M0 0 C1.98 0 3.96 0 6 0 C7 1 7 1 7.09765625 3.06640625 C7.08605469 3.89011719 7.07445312 4.71382813 7.0625 5.5625 C7.05347656 6.38878906 7.04445313 7.21507812 7.03515625 8.06640625 C7.02355469 8.70449219 7.01195312 9.34257812 7 10 C8.65 9.67 10.3 9.34 12 9 C12 9.99 12 10.98 12 12 C11.34 12 10.68 12 10 12 C10 13.32 10 14.64 10 16 C9.01 16 8.02 16 7 16 C6.9175 17.11375 6.835 18.2275 6.75 19.375 C6 23 6 23 4.3125 24.4375 C1.480182 25.12644222 -1.09628021 25.13198726 -4 25 C-4 23.02 -4 21.04 -4 19 C-2.68 19 -1.36 19 0 19 C0 12.73 0 6.46 0 0 Z " fill="#696A6D" transform="translate(267,418)"/>
<path d="M0 0 C51.48 0 102.96 0 156 0 C156 5.00147987 155.97103025 6.81156072 154 11 C153.67 11 153.34 11 153 11 C153 7.7 153 4.4 153 1 C102.51 1 52.02 1 0 1 C0 0.67 0 0.34 0 0 Z " fill="#BC504F" transform="translate(164,331)"/>
<path d="M0 0 C1.98 0 3.96 0 6 0 C6 7.92 6 15.84 6 24 C4.02 24 2.04 24 0 24 C0 16.08 0 8.16 0 0 Z " fill="#68696B" transform="translate(348,410)"/>
<path d="M0 0 C1.32 0.66 2.64 1.32 4 2 C3.525625 3.11375 3.05125 4.2275 2.5625 5.375 C-1.19469962 15.56100089 -0.16321324 27.01511912 -0.16796875 37.72265625 C-0.17118859 39.43558275 -0.17455319 41.14850899 -0.17805481 42.86143494 C-0.18401301 46.43603147 -0.18589797 50.01060394 -0.18530273 53.58520508 C-0.18520093 58.14657659 -0.19888698 62.7077931 -0.21607494 67.26912785 C-0.22723293 70.80119018 -0.22922083 74.33321536 -0.22869301 77.8652935 C-0.22986609 79.54646784 -0.23424976 81.22764336 -0.24202538 82.90880013 C-0.27667267 91.16805773 -0.29923188 98.99151776 2 107 C2.3380943 108.33213405 2.67267193 109.6651797 3 111 C2.34 111 1.68 111 1 111 C-1.36640601 104.90464737 -2.43718908 99.64490661 -2.37231445 93.12231445 C-2.37596512 92.2851741 -2.37961578 91.44803375 -2.38337708 90.58552551 C-2.39141803 87.84456463 -2.37792068 85.10420739 -2.36328125 82.36328125 C-2.36276162 80.43670146 -2.36328328 78.51012114 -2.36479187 76.58354187 C-2.36470242 72.55309083 -2.35433281 68.52284091 -2.33618164 64.49243164 C-2.3135723 59.36315318 -2.31293963 54.23417005 -2.31969929 49.10485554 C-2.32306599 45.1264948 -2.3163575 41.14819955 -2.30657005 37.1698513 C-2.30275838 35.28069592 -2.30155281 33.3915332 -2.3031559 31.50237465 C-2.30467321 20.80386833 -1.91887737 10.55701462 0 0 Z " fill="#BE3038" transform="translate(140,206)"/>
<path d="M0 0 C1.134375 0.020625 2.26875 0.04125 3.4375 0.0625 C3.4375 0.7225 3.4375 1.3825 3.4375 2.0625 C4.0975 2.0625 4.7575 2.0625 5.4375 2.0625 C6.32059258 5.51458918 6.62081708 7.53546338 5.4375 10.9375 C3.4375 13.0625 3.4375 13.0625 -0.0625 13.5625 C-3.5625 13.0625 -3.5625 13.0625 -5.4375 11.8125 C-6.76595668 9.74601183 -7.41713211 8.53375406 -7.5625 6.0625 C-4.50115788 0.07896768 -4.50115788 0.07896768 0 0 Z M-4.5625 4.0625 C-4.5625 5.7125 -4.5625 7.3625 -4.5625 9.0625 C-4.2325 9.0625 -3.9025 9.0625 -3.5625 9.0625 C-3.5625 7.4125 -3.5625 5.7625 -3.5625 4.0625 C-3.8925 4.0625 -4.2225 4.0625 -4.5625 4.0625 Z M2.4375 6.0625 C3.4375 8.0625 3.4375 8.0625 3.4375 8.0625 Z M-0.5625 9.0625 C-0.8925 9.7225 -1.2225 10.3825 -1.5625 11.0625 C-0.9025 11.0625 -0.2425 11.0625 0.4375 11.0625 C0.1075 10.4025 -0.2225 9.7425 -0.5625 9.0625 Z " fill="#636367" transform="translate(259.5625,399.9375)"/>
<path d="M0 0 C1.56720039 -0.00043808 1.56720039 -0.00043808 3.1660614 -0.00088501 C6.59647114 0.00050088 10.02665977 0.01602725 13.45703125 0.03173828 C15.8445626 0.03547104 18.23209548 0.03831677 20.61962891 0.04031372 C26.88645702 0.04792944 33.15319161 0.06756026 39.41998291 0.08972168 C45.82164241 0.11022453 52.2233171 0.11932492 58.625 0.12939453 C71.17321685 0.15080807 83.72136906 0.18453162 96.26953125 0.22705078 C96.26953125 0.55705078 96.26953125 0.88705078 96.26953125 1.22705078 C60.29953125 1.55705078 24.32953125 1.88705078 -12.73046875 2.22705078 C-13.06046875 3.21705078 -13.39046875 4.20705078 -13.73046875 5.22705078 C-14.72046875 4.89705078 -15.71046875 4.56705078 -16.73046875 4.22705078 C-18.73008439 4.18784263 -20.73096239 4.18261731 -22.73046875 4.22705078 C-15.6148336 0.07626361 -7.98893203 -0.0591138 0 0 Z " fill="#DE1F27" transform="translate(151.73046875,153.77294921875)"/>
<path d="M0 0 C0.66 1.32 1.32 2.64 2 4 C2.825 3.67 3.65 3.34 4.5 3 C8.5873983 1.83217191 11.76923344 1.8541115 16 2 C14.82591584 6.40281558 13.96738725 8.67071515 10 11 C7.4921875 11.328125 7.4921875 11.328125 4.875 11.25 C4.00617188 11.23453125 3.13734375 11.2190625 2.2421875 11.203125 C0 11 0 11 -2 10 C-2.25 3.375 -2.25 3.375 0 0 Z " fill="#7C7E80" transform="translate(296,462)"/>
<path d="M0 0 C1.258125 0.12375 2.51625 0.2475 3.8125 0.375 C4.87404297 0.47941406 4.87404297 0.47941406 5.95703125 0.5859375 C8 1 8 1 11 3 C11 3.66 11 4.32 11 5 C11.66 5 12.32 5 13 5 C13 7.97 13 10.94 13 14 C10.69 14.33 8.38 14.66 6 15 C5.67 14.34 5.34 13.68 5 13 C4.01 12.34 3.02 11.68 2 11 C3.32 11 4.64 11 6 11 C6 10.01 6 9.02 6 8 C3.03 7.505 3.03 7.505 0 7 C0.185625 6.21625 0.37125 5.4325 0.5625 4.625 C1.25962266 2.02910225 1.25962266 2.02910225 0 0 Z " fill="#727477" transform="translate(298,446)"/>
<path d="M0 0 C2.64 0 5.28 0 8 0 C7.83383414 4.32031241 7.65309479 6.36323258 4.5 9.4375 C0.13761657 11.3849926 -3.30577643 11.37553789 -8 11 C-8.625 9.1875 -8.625 9.1875 -9 7 C-7 4 -7 4 -3.875 3.3125 C-2.92625 3.209375 -1.9775 3.10625 -1 3 C-0.67 2.01 -0.34 1.02 0 0 Z " fill="#727377" transform="translate(279,462)"/>
<path d="M0 0 C1.98 0 3.96 0 6 0 C6 3.96 6 7.92 6 12 C7.65 11.67 9.3 11.34 11 11 C11.33 13.31 11.66 15.62 12 18 C9.36 18 6.72 18 4 18 C4.33 16.68 4.66 15.36 5 14 C4.34 14 3.68 14 3 14 C2.67 13.01 2.34 12.02 2 11 C1.34 11 0.68 11 0 11 C0 7.37 0 3.74 0 0 Z " fill="#737477" transform="translate(289,416)"/>
<path d="M0 0 C1.98 0 3.96 0 6 0 C6 5.61 6 11.22 6 17 C4.02 17.99 4.02 17.99 2 19 C1.34 18.67 0.68 18.34 0 18 C0 12.06 0 6.12 0 0 Z " fill="#68696D" transform="translate(341,418)"/>
<path d="M0 0 C12.21 0 24.42 0 37 0 C36.67 0.66 36.34 1.32 36 2 C28.25936413 3.78248058 19.75815129 3.11736133 11.875 3.0625 C10.01101562 3.05573242 10.01101562 3.05573242 8.109375 3.04882812 C5.07286498 3.03714924 2.03645912 3.0207714 -1 3 C-0.67 2.01 -0.34 1.02 0 0 Z " fill="#66686B" transform="translate(78,481)"/>
<path d="M0 0 C0.185625 0.9590625 0.185625 0.9590625 0.375 1.9375 C0.684375 2.9584375 0.684375 2.9584375 1 4 C1.66 4.33 2.32 4.66 3 5 C2.443125 5.86625 2.443125 5.86625 1.875 6.75 C1.58625 7.4925 1.2975 8.235 1 9 C1.309375 9.5775 1.61875 10.155 1.9375 10.75 C3.3296751 13.6981355 3.19550596 16.00672588 3.125 19.25 C3.10695313 20.32765625 3.08890625 21.4053125 3.0703125 22.515625 C3.04710937 23.33546875 3.02390625 24.1553125 3 25 C3.66 25 4.32 25 5 25 C8 26 8 26 9.0625 28 C9.371875 28.66 9.68125 29.32 10 30 C10.66 30.33 11.32 30.66 12 31 C4.56664128 31.36557502 4.56664128 31.36557502 2.0625 29.75 C-0.33680007 25.79821165 -0.10776238 21.77623832 -0.0625 17.25 C-0.05347656 16.07953125 -0.04445313 14.9090625 -0.03515625 13.703125 C-0.02355469 12.81109375 -0.01195312 11.9190625 0 11 C-0.66 11 -1.32 11 -2 11 C-2 9.02 -2 7.04 -2 5 C-1.34 5 -0.68 5 0 5 C0 3.35 0 1.7 0 0 Z " fill="#878A8C" transform="translate(344,442)"/>
<path d="M0 0 C-0.25 1.875 -0.25 1.875 -1 4 C-3.21100616 5.60107343 -4.3447887 6.09927444 -7.0625 5.6875 C-7.701875 5.460625 -8.34125 5.23375 -9 5 C-11.94729537 3.84188612 -11.94729537 3.84188612 -15 4 C-16.86628141 5.42597143 -16.86628141 5.42597143 -18.625 7.3125 C-19.23601562 7.92738281 -19.84703125 8.54226562 -20.4765625 9.17578125 C-22.21257029 11.02874589 -22.21257029 11.02874589 -23 14 C-23.99 14 -24.98 14 -26 14 C-25.67 12.35 -25.34 10.7 -25 9 C-24.34 9 -23.68 9 -23 9 C-22.63841797 8.09314453 -22.63841797 8.09314453 -22.26953125 7.16796875 C-20.73078683 4.54026674 -19.35686352 3.7346651 -16.6875 2.3125 C-15.92824219 1.89613281 -15.16898437 1.47976562 -14.38671875 1.05078125 C-9.30113924 -1.18820548 -5.43488516 -0.95909738 0 0 Z " fill="#757678" transform="translate(355,57)"/>
<path d="M0 0 C1.98 0 3.96 0 6 0 C6.33 4.62 6.66 9.24 7 14 C5.35 14.66 3.7 15.32 2 16 C0.24836544 12.22777911 -0.22490027 9.333361 -0.125 5.1875 C-0.10695313 4.21167969 -0.08890625 3.23585938 -0.0703125 2.23046875 C-0.04710937 1.49441406 -0.02390625 0.75835937 0 0 Z " fill="#676A6C" transform="translate(299,416)"/>
<path d="M0 0 C0 3.3 0 6.6 0 10 C-5.35925197 11.31003937 -5.35925197 11.31003937 -7.9375 10.0625 C-9.72822798 6.58638098 -8.79026993 3.76897967 -8 0 C-5.13822943 -1.43088528 -3.06624227 -0.59991697 0 0 Z " fill="#757678" transform="translate(215,477)"/>
<path d="M0 0 C0.99 0 1.98 0 3 0 C3 3.63 3 7.26 3 11 C2.01 11 1.02 11 0 11 C0 9.35 0 7.7 0 6 C-0.99 6 -1.98 6 -3 6 C-3.33 7.65 -3.66 9.3 -4 11 C-7.75 12.125 -7.75 12.125 -10 11 C-9.67 9.68 -9.34 8.36 -9 7 C-8.01 7 -7.02 7 -6 7 C-6 6.34 -6 5.68 -6 5 C-6.66 4.67 -7.32 4.34 -8 4 C-5.36 3.34 -2.72 2.68 0 2 C0 1.34 0 0.68 0 0 Z " fill="#7B7C7D" transform="translate(246,476)"/>
<path d="M0 0 C0 0.66 0 1.32 0 2 C0.66 2 1.32 2 2 2 C2.38218767 3.65614657 2.71395102 5.32457024 3 7 C2 8 2 8 -1.5625 8.0625 C-2.696875 8.041875 -3.83125 8.02125 -5 8 C-5.33 7.01 -5.66 6.02 -6 5 C-5.67 4.34 -5.34 3.68 -5 3 C-5.99 3.33 -6.98 3.66 -8 4 C-8.33 3.01 -8.66 2.02 -9 1 C-11.97 0.505 -11.97 0.505 -15 0 C-15 -0.33 -15 -0.66 -15 -1 C-10.09243954 -2.38025138 -4.62941355 -2.31470677 0 0 Z " fill="#77797B" transform="translate(284,448)"/>
<path d="M0 0 C4.95 0 9.9 0 15 0 C15 0.99 15 1.98 15 3 C9.87080814 5.10428384 5.4389165 5.21755666 0 5 C0 3.35 0 1.7 0 0 Z " fill="#6A6C6E" transform="translate(358,416)"/>
<path d="M0 0 C0.33 0.66 0.66 1.32 1 2 C1.66 2 2.32 2 3 2 C3.88309258 5.45208918 4.18331708 7.47296338 3 10.875 C1 13 1 13 -2.5 13.5 C-6 13 -6 13 -7.875 11.75 C-9.10506663 9.83656302 -9.61502006 8.23288365 -10 6 C-9.01 5.34 -8.02 4.68 -7 4 C-7 5.65 -7 7.3 -7 9 C-4.60280568 9.67958603 -4.60280568 9.67958603 -2 10 C0.18331689 8.23863645 0.18331689 8.23863645 0.1953125 6.0546875 C0.17210937 5.33539063 0.14890625 4.61609375 0.125 3.875 C0.08375 2.59625 0.0425 1.3175 0 0 Z " fill="#979797" transform="translate(262,400)"/>
<path d="M0 0 C2.97 0 5.94 0 9 0 C6.87452471 6.04942966 6.87452471 6.04942966 4 8 C0.8125 8.1875 0.8125 8.1875 -2 8 C-1.67 7.01 -1.34 6.02 -1 5 C-1.99 4.34 -2.98 3.68 -4 3 C-2.68 2.67 -1.36 2.34 0 2 C0 1.34 0 0.68 0 0 Z " fill="#6D6F73" transform="translate(373,464)"/>
<path d="M0 0 C2.875 -0.1875 2.875 -0.1875 6 0 C6.66 0.99 7.32 1.98 8 3 C8.66 3 9.32 3 10 3 C10 3.66 10 4.32 10 5 C7.69 5.33 5.38 5.66 3 6 C2.67 9.3 2.34 12.6 2 16 C1.34 15.67 0.68 15.34 0 15 C-0.90949326 10.70057734 -1.15926382 7.25063401 0 3 C1.32 3 2.64 3 4 3 C2.68 2.67 1.36 2.34 0 2 C0 1.34 0 0.68 0 0 Z " fill="#67696C" transform="translate(269,448)"/>
<path d="M0 0 C7.92 0 15.84 0 24 0 C25.60725635 3.21451269 25.05748185 6.43612536 25 10 C24.67 10 24.34 10 24 10 C23.34 7.69 22.68 5.38 22 3 C15.07 2.67 8.14 2.34 1 2 C0.67 2.99 0.34 3.98 0 5 C0 3.35 0 1.7 0 0 Z " fill="#7B7C7E" transform="translate(182,411)"/>
<path d="M0 0 C1.953125 0.7109375 1.953125 0.7109375 4 2 C4.609375 4.1640625 4.609375 4.1640625 4.75 6.625 C4.80671875 7.44226563 4.8634375 8.25953125 4.921875 9.1015625 C4.94765625 9.72804688 4.9734375 10.35453125 5 11 C3.35 11.33 1.7 11.66 0 12 C-1.58969234 8.52254801 -2.41465662 5.83557374 -2 2 C-1.34 1.34 -0.68 0.68 0 0 Z " fill="#6C6D6F" transform="translate(252,476)"/>
<path d="M0 0 C13.2 0 26.4 0 40 0 C40 5.00147987 39.97103025 6.81156072 38 11 C37.67 11 37.34 11 37 11 C37 7.7 37 4.4 37 1 C24.79 1 12.58 1 0 1 C0 0.67 0 0.34 0 0 Z " fill="#BD504E" transform="translate(280,331)"/>
<path d="M0 0 C0 1.66666667 0 3.33333333 0 5 C0.66 5 1.32 5 2 5 C2.33 5.99 2.66 6.98 3 8 C-0.47325181 9.1577506 -3.36067448 9.06866652 -7 9 C-9.125 4.375 -9.125 4.375 -8 1 C-8 1.66 -8 2.32 -8 3 C-3.92035719 1.69844994 -3.92035719 1.69844994 0 0 Z " fill="#67696C" transform="translate(292,425)"/>
<path d="M0 0 C0.66 0.66 1.32 1.32 2 2 C1.34 3.65 0.68 5.3 0 7 C-0.66 7 -1.32 7 -2 7 C-2.66 8.65 -3.32 10.3 -4 12 C-4.66 12 -5.32 12 -6 12 C-6.66 13.32 -7.32 14.64 -8 16 C-8.66 16 -9.32 16 -10 16 C-10 16.66 -10 17.32 -10 18 C-10.66 18 -11.32 18 -12 18 C-12 16.68 -12 15.36 -12 14 C-11.34 14 -10.68 14 -10 14 C-10 13.34 -10 12.68 -10 12 C-9.34 12 -8.68 12 -8 12 C-6.88214887 9.88214887 -6.88214887 9.88214887 -6 7 C-5.01 7 -4.02 7 -3 7 C-3 5.35 -3 3.7 -3 2 C-2.01 2 -1.02 2 0 2 C0 1.34 0 0.68 0 0 Z " fill="#DC494E" transform="translate(315,341)"/>
<path d="M0 0 C0.66 0 1.32 0 2 0 C1.40142752 3.3520059 0.47206611 5.61317755 -2 8 C-5.1875 8.25 -5.1875 8.25 -8 8 C-8 6.02 -8 4.04 -8 2 C-6.865625 1.855625 -5.73125 1.71125 -4.5625 1.5625 C-1.19222799 1.38828522 -1.19222799 1.38828522 0 0 Z " fill="#77787B" transform="translate(345,435)"/>
<path d="M0 0 C0.33 0 0.66 0 1 0 C1 4.29 1 8.58 1 13 C2.32 13 3.64 13 5 13 C5 14.98 5 16.96 5 19 C4.01 19 3.02 19 2 19 C2 18.34 2 17.68 2 17 C1.01 16.67 0.02 16.34 -1 16 C-2.6875 14.4375 -2.6875 14.4375 -4 13 C-3.34 12.34 -2.68 11.68 -2 11 C-1.31822002 8.34280163 -1.31822002 8.34280163 -0.875 5.375 C-0.70742188 4.37210937 -0.53984375 3.36921875 -0.3671875 2.3359375 C-0.24601562 1.56507813 -0.12484375 0.79421875 0 0 Z " fill="#656668" transform="translate(352,453)"/>
<path d="M0 0 C7.8134728 1.74556307 13.85080359 4.84461311 20 10 C20.33 10.66 20.66 11.32 21 12 C16.3562753 11.37246964 16.3562753 11.37246964 14.625 9.5625 C12.17145168 7.20331892 9.23398458 6.88199579 6 6 C5.34 5.34 4.68 4.68 4 4 C3.01 3.67 2.02 3.34 1 3 C0.67 3.66 0.34 4.32 0 5 C0 3.35 0 1.7 0 0 Z " fill="#DC4D54" transform="translate(283,52)"/>
<path d="M0 0 C0.33 0 0.66 0 1 0 C1.33 16.17 1.66 32.34 2 49 C1.01 49.495 1.01 49.495 0 50 C-0.66 49.34 -1.32 48.68 -2 48 C-1.34 48 -0.68 48 0 48 C0 32.16 0 16.32 0 0 Z " fill="#A7A7A7" transform="translate(82,412)"/>
<path d="M0 0 C0.66 0.66 1.32 1.32 2 2 C1.67 2.66 1.34 3.32 1 4 C1.99 4.66 2.98 5.32 4 6 C2.39667209 6.08121924 0.79215974 6.13929134 -0.8125 6.1875 C-1.70582031 6.22230469 -2.59914063 6.25710938 -3.51953125 6.29296875 C-6.41647515 5.95081002 -7.22555028 5.24606427 -9 3 C-6.07868595 -0.19953443 -4.37453972 -1.45817991 0 0 Z " fill="#86888A" transform="translate(371,467)"/>
<path d="M0 0 C0.66 0.33 1.32 0.66 2 1 C2.625 3.5625 2.625 3.5625 3 6 C-2.14285714 10.42857143 -2.14285714 10.42857143 -6 11 C-5.67 8.69 -5.34 6.38 -5 4 C-4.34 4 -3.68 4 -3 4 C-3 3.34 -3 2.68 -3 2 C-2.01 1.34 -1.02 0.68 0 0 Z " fill="#7A7C7F" transform="translate(364,447)"/>
<path d="M0 0 C1.98 0 3.96 0 6 0 C4.82685662 4.39928768 3.9735047 6.68212226 0 9 C-2.578125 9.29296875 -2.578125 9.29296875 -5.25 9.1875 C-6.14203125 9.16042969 -7.0340625 9.13335937 -7.953125 9.10546875 C-8.62859375 9.07066406 -9.3040625 9.03585937 -10 9 C-10 8.67 -10 8.34 -10 8 C-7.36 7.67 -4.72 7.34 -2 7 C-1.34 4.69 -0.68 2.38 0 0 Z " fill="#898A8C" transform="translate(306,464)"/>
<path d="M0 0 C17.13333333 4.28333333 17.13333333 4.28333333 22 10 C14.10483208 9.00668169 7.63160933 6.42909661 1 2 C0.67 1.34 0.34 0.68 0 0 Z " fill="#D94C51" transform="translate(121,361)"/>
<path d="M0 0 C0.33 0 0.66 0 1 0 C1.25 6.625 1.25 6.625 -1 10 C-1.66 10 -2.32 10 -3 10 C-3 11.65 -3 13.3 -3 15 C-3.66 15 -4.32 15 -5 15 C-5 17.64 -5 20.28 -5 23 C-5.66 23 -6.32 23 -7 23 C-6.96486395 14.0754426 -4.39301883 7.69785868 0 0 Z " fill="#D73B44" transform="translate(108,172)"/>
<path d="M0 0 C0.886875 0.185625 1.77375 0.37125 2.6875 0.5625 C5.85178811 0.98042484 7.94839642 0.80777742 11 0 C10.6875 1.9375 10.6875 1.9375 10 4 C9.01 4.33 8.02 4.66 7 5 C5.31461399 6.99665314 5.31461399 6.99665314 4 9 C2.68 8.67 1.36 8.34 0 8 C0.66 7.67 1.32 7.34 2 7 C1.67 6.401875 1.34 5.80375 1 5.1875 C0 3 0 3 0 0 Z M1 4 C5 5 5 5 5 5 Z " fill="#949597" transform="translate(230,479)"/>
<path d="M0 0 C0.33 0.99 0.66 1.98 1 3 C3.97 3.495 3.97 3.495 7 4 C7.33 4.99 7.66 5.98 8 7 C11.465 6.505 11.465 6.505 15 6 C15 4.35 15 2.7 15 1 C16.4606285 3.64738916 17 4.89448334 17 8 C15.2709226 8.02725341 13.54171824 8.04650987 11.8125 8.0625 C10.36810547 8.07990234 10.36810547 8.07990234 8.89453125 8.09765625 C6.11675356 8.00393905 3.67450835 7.75532296 1 7 C0.33333333 5.66666667 -0.33333333 4.33333333 -1 3 C-0.67 2.01 -0.34 1.02 0 0 Z " fill="#686A6C" transform="translate(296,454)"/>
<path d="M0 0 C2.64 0 5.28 0 8 0 C7.4328125 0.27070313 6.865625 0.54140625 6.28125 0.8203125 C0.67748627 3.71814922 -4.80121823 7.25355104 -9 12 C-9.33 10.68 -9.66 9.36 -10 8 C-9.01 8 -8.02 8 -7 8 C-7.33 6.35 -7.66 4.7 -8 3 C-5.69 3 -3.38 3 -1 3 C-0.67 2.01 -0.34 1.02 0 0 Z " fill="#DA393D" transform="translate(153,194)"/>
<path d="M0 0 C0.33 0 0.66 0 1 0 C1.06058594 0.62648438 1.12117188 1.25296875 1.18359375 1.8984375 C1.26738281 2.71570313 1.35117187 3.53296875 1.4375 4.375 C1.51871094 5.18710937 1.59992188 5.99921875 1.68359375 6.8359375 C1.89090114 9.04272805 1.89090114 9.04272805 3 11 C2.34 11 1.68 11 1 11 C1 11.66 1 12.32 1 13 C2.98 12.67 4.96 12.34 7 12 C7 8.7 7 5.4 7 2 C7.33 2 7.66 2 8 2 C8 6.29 8 10.58 8 15 C5.66705225 15.04241723 3.33297433 15.04092937 1 15 C0 14 0 14 -0.09765625 10.83984375 C-0.08025391 8.90818359 -0.08025391 8.90818359 -0.0625 6.9375 C-0.05347656 5.64714844 -0.04445313 4.35679687 -0.03515625 3.02734375 C-0.02355469 2.02832031 -0.01195312 1.02929688 0 0 Z " fill="#9A9A9B" transform="translate(331,458)"/>
<path d="M0 0 C0.66 0.99 1.32 1.98 2 3 C1.125 6.0625 1.125 6.0625 0 9 C0 9.66 0 10.32 0 11 C-1.32 10.67 -2.64 10.34 -4 10 C-4 9.34 -4 8.68 -4 8 C-4.66 8 -5.32 8 -6 8 C-6 6.35 -6 4.7 -6 3 C-5.01 3.33 -4.02 3.66 -3 4 C-2.01 3.67 -1.02 3.34 0 3 C0 2.01 0 1.02 0 0 Z " fill="#818386" transform="translate(271,461)"/>
<path d="M0 0 C1.32 0.33 2.64 0.66 4 1 C4 4.3 4 7.6 4 11 C2.68 11 1.36 11 0 11 C0 7.37 0 3.74 0 0 Z " fill="#818285" transform="translate(216,476)"/>
<path d="M0 0 C1.98 0 3.96 0 6 0 C5.67 2.31 5.34 4.62 5 7 C4.34 7 3.68 7 3 7 C3 7.66 3 8.32 3 9 C2.01 8.67 1.02 8.34 0 8 C0 5.36 0 2.72 0 0 Z " fill="#7D7D7E" transform="translate(348,410)"/>
<path d="M0 0 C0 0.66 0 1.32 0 2 C-1.93530766 3.82729049 -3.99047623 5.46895378 -6.0546875 7.1484375 C-8.00628224 9.00597948 -8.968272 10.53471309 -10 13 C-10.99 13 -11.98 13 -13 13 C-12.67 11.35 -12.34 9.7 -12 8 C-11.34 8 -10.68 8 -10 8 C-9.79375 7.4225 -9.5875 6.845 -9.375 6.25 C-7.35521672 2.94490009 -4.02576079 0 0 0 Z " fill="#808183" transform="translate(342,58)"/>
<path d="M0 0 C3 0 3 0 6 1 C6.69937532 2.31647119 7.36729133 3.65022151 8 5 C8.66 5.33 9.32 5.66 10 6 C2.49230769 6.36923077 2.49230769 6.36923077 0 4.5 C-0.33 4.005 -0.66 3.51 -1 3 C-0.67 2.01 -0.34 1.02 0 0 Z " fill="#7D7E7F" transform="translate(346,467)"/>
<path d="M0 0 C2.05078125 0.03255208 4.1015625 0.06510417 6.15234375 0.09765625 C6.15234375 1.76432292 6.15234375 3.43098958 6.15234375 5.09765625 C5.03859375 5.07703125 3.92484375 5.05640625 2.77734375 5.03515625 C-0.67981546 4.83384907 -0.67981546 4.83384907 -2.84765625 6.09765625 C-2.89037725 4.4315372 -2.88829457 2.7638274 -2.84765625 1.09765625 C-1.84765625 0.09765625 -1.84765625 0.09765625 0 0 Z " fill="#77797B" transform="translate(358.84765625,427.90234375)"/>
<path d="M0 0 C2 3 2 3 1.625 5.6875 C1.41875 6.450625 1.2125 7.21375 1 8 C-2.75 9.125 -2.75 9.125 -5 8 C-4.67 6.68 -4.34 5.36 -4 4 C-3.01 4 -2.02 4 -1 4 C-1 3.34 -1 2.68 -1 2 C-1.66 1.67 -2.32 1.34 -3 1 C-2.01 0.67 -1.02 0.34 0 0 Z " fill="#696A6C" transform="translate(241,479)"/>
<path d="M0 0 C0.66 0 1.32 0 2 0 C2 2.31 2 4.62 2 7 C-3.61 7 -9.22 7 -15 7 C-15 6.67 -15 6.34 -15 6 C-11.04 6 -7.08 6 -3 6 C-2.67 5.01 -2.34 4.02 -2 3 C-1.34 2.01 -0.68 1.02 0 0 Z " fill="#7E7F82" transform="translate(213,466)"/>
<path d="M0 0 C2.00720923 0.28674418 4.0085944 0.61866701 6 1 C5.67 3.31 5.34 5.62 5 8 C3.35 8 1.7 8 0 8 C-0.33 7.01 -0.66 6.02 -1 5 C-0.01 4.34 0.98 3.68 2 3 C1.01 2.34 0.02 1.68 -1 1 C-0.67 0.67 -0.34 0.34 0 0 Z " fill="#747576" transform="translate(396,446)"/>
<path d="M0 0 C0 0.99 0 1.98 0 3 C-0.66 3 -1.32 3 -2 3 C-2.226875 3.886875 -2.45375 4.77375 -2.6875 5.6875 C-4.19149475 9.48329629 -5.87370429 11.4074621 -9 14 C-9.99 14 -10.98 14 -12 14 C-12 13.34 -12 12.68 -12 12 C-11.34 12 -10.68 12 -10 12 C-9.34 10.35 -8.68 8.7 -8 7 C-7.34 7 -6.68 7 -6 7 C-5.67 6.01 -5.34 5.02 -5 4 C-4.34 4 -3.68 4 -3 4 C-3 3.34 -3 2.68 -3 2 C-2.01 1.34 -1.02 0.68 0 0 Z " fill="#8E8E8F" transform="translate(170,114)"/>
<path d="M0 0 C1.32 0.66 2.64 1.32 4 2 C3.01 2.495 3.01 2.495 2 3 C2 3.66 2 4.32 2 5 C2.66 5.66 3.32 6.32 4 7 C1.23735711 7.59732819 -1.16032769 8 -4 8 C-4 6.35 -4 4.7 -4 3 C-3.34 3 -2.68 3 -2 3 C-1.34 2.01 -0.68 1.02 0 0 Z " fill="#616263" transform="translate(229,479)"/>
<path d="M0 0 C2 1 2 1 3.10546875 3.8359375 C3.46253906 5.00382812 3.81960938 6.17171875 4.1875 7.375 C4.55230469 8.53773437 4.91710937 9.70046875 5.29296875 10.8984375 C6 14 6 14 5 17 C1.43645204 11.65467807 -0.48754536 6.50060481 0 0 Z " fill="#D94A4E" transform="translate(313,76)"/>
<path d="M0 0 C0.33 0.99 0.66 1.98 1 3 C2.65 2.67 4.3 2.34 6 2 C5.67 3.98 5.34 5.96 5 8 C3.35 8.33 1.7 8.66 0 9 C-0.33 8.01 -0.66 7.02 -1 6 C0.32 6 1.64 6 3 6 C3 5.34 3 4.68 3 4 C1.68 4 0.36 4 -1 4 C-0.67 2.68 -0.34 1.36 0 0 Z " fill="#6C6C6E" transform="translate(260,479)"/>
<path d="M0 0 C0 1.65 0 3.3 0 5 C-0.99 4.34 -1.98 3.68 -3 3 C-3 2.34 -3 1.68 -3 1 C-3.99 1.33 -4.98 1.66 -6 2 C-6 4.64 -6 7.28 -6 10 C-6.66 10 -7.32 10 -8 10 C-9.23666047 6.42742531 -8.89093449 3.64473199 -8 0 C-5.13822943 -1.43088528 -3.06624227 -0.59991697 0 0 Z " fill="#A1A1A2" transform="translate(215,477)"/>
<path d="M0 0 C1.32 0.66 2.64 1.32 4 2 C3.525625 3.11375 3.05125 4.2275 2.5625 5.375 C0.73814745 10.17683359 0.30291156 14.90272966 0 20 C-0.33 20 -0.66 20 -1 20 C-1.02722517 17.79173622 -1.04649729 15.58337362 -1.0625 13.375 C-1.07410156 12.14523438 -1.08570313 10.91546875 -1.09765625 9.6484375 C-1.00863924 6.32276209 -0.63686087 3.25952412 0 0 Z " fill="#DB5459" transform="translate(140,206)"/>
<path d="M0 0 C0.99 0.33 1.98 0.66 3 1 C2.34 2.65 1.68 4.3 1 6 C0.67 6 0.34 6 0 6 C0 4.02 0 2.04 0 0 Z M-4 3 C-3.01 3 -2.02 3 -1 3 C-0.34 4.65 0.32 6.3 1 8 C-1.97 8 -4.94 8 -8 8 C-7.34 7.54625 -6.68 7.0925 -6 6.625 C-5.34 6.08875 -4.68 5.5525 -4 5 C-4 4.34 -4 3.68 -4 3 Z " fill="#67696B" transform="translate(304,464)"/>
<path d="M0 0 C1.98 0 3.96 0 6 0 C6 1.65 6 3.3 6 5 C4.34385343 5.38218767 2.67542976 5.71395102 1 6 C0 5 0 5 -0.0625 2.4375 C-0.041875 1.633125 -0.02125 0.82875 0 0 Z " fill="#818183" transform="translate(386,435)"/>
<path d="M0 0 C2.97 0 5.94 0 9 0 C6.21769572 1.85486952 4.15636393 2.72462112 1 3.6875 C-0.299375 4.09548828 -0.299375 4.09548828 -1.625 4.51171875 C-4 5 -4 5 -7 4 C-6.67 3.34 -6.34 2.68 -6 2 C-2.9375 1.375 -2.9375 1.375 0 1 C0 0.67 0 0.34 0 0 Z " fill="#D64A4C" transform="translate(284,365)"/>
<path d="M0 0 C1.98 0 3.96 0 6 0 C6 1.65 6 3.3 6 5 C4.02 5 2.04 5 0 5 C0 3.35 0 1.7 0 0 Z " fill="#6D6E6F" transform="translate(281,410)"/>
<path d="M0 0 C1.98 0 3.96 0 6 0 C6 1.65 6 3.3 6 5 C4.02 5 2.04 5 0 5 C0 3.35 0 1.7 0 0 Z " fill="#6D6D6D" transform="translate(289,410)"/>
<path d="M0 0 C0.33 0.66 0.66 1.32 1 2 C2.32 1.67 3.64 1.34 5 1 C5 1.66 5 2.32 5 3 C3.68 3 2.36 3 1 3 C1 4.65 1 6.3 1 8 C0.01 8 -0.98 8 -2 8 C-2.6875 5.6875 -2.6875 5.6875 -3 3 C-1.5625 1.1875 -1.5625 1.1875 0 0 Z " fill="#6F7073" transform="translate(268,448)"/>
<path d="M0 0 C4.62 0 9.24 0 14 0 C14 0.33 14 0.66 14 1 C12.39658445 1.33692785 10.79223445 1.66941093 9.1875 2 C8.29417969 2.185625 7.40085937 2.37125 6.48046875 2.5625 C4 3 4 3 1 3 C0.67 3.66 0.34 4.32 0 5 C0 3.35 0 1.7 0 0 Z " fill="#76797B" transform="translate(358,416)"/>
<path d="M0 0 C3 3 6 6 9 9 C7.35 9.33 5.7 9.66 4 10 C4 9.34 4 8.68 4 8 C3.34 8 2.68 8 2 8 C2 6.68 2 5.36 2 4 C1.34 4 0.68 4 0 4 C0 2.68 0 1.36 0 0 Z " fill="#DB4E51" transform="translate(143,317)"/>
<path d="M0 0 C2.64 0.33 5.28 0.66 8 1 C7.01 1.33 6.02 1.66 5 2 C4.67 3.65 4.34 5.3 4 7 C2.68 7 1.36 7 0 7 C0.185625 6.21625 0.37125 5.4325 0.5625 4.625 C1.25962266 2.02910225 1.25962266 2.02910225 0 0 Z " fill="#7A7C7F" transform="translate(298,446)"/>
<path d="M0 0 C0.33 0.99 0.66 1.98 1 3 C0.34 3 -0.32 3 -1 3 C-1 4.32 -1 5.64 -1 7 C-1.99 7 -2.98 7 -4 7 C-4.33 8.98 -4.66 10.96 -5 13 C-5.33 13 -5.66 13 -6 13 C-6.36842105 6.49122807 -6.36842105 6.49122807 -4.6875 4.25 C-4.130625 3.8375 -3.57375 3.425 -3 3 C-2.1646875 2.1646875 -2.1646875 2.1646875 -1.3125 1.3125 C-0.879375 0.879375 -0.44625 0.44625 0 0 Z " fill="#5A5D60" transform="translate(278,427)"/>
<path d="M0 0 C0 0.66 0 1.32 0 2 C-1.65 2 -3.3 2 -5 2 C-5.33 2.99 -5.66 3.98 -6 5 C-6.99 4.67 -7.98 4.34 -9 4 C-10.99961564 3.96079185 -13.00049364 3.95556653 -15 4 C-10.46624261 1.35530819 -5.22699025 0 0 0 Z " fill="#D8474F" transform="translate(144,154)"/>
<path d="M0 0 C1.98 0 3.96 0 6 0 C6.19622241 4.21878192 5.80230168 7.17010894 4 11 C3.67 11 3.34 11 3 11 C3 7.7 3 4.4 3 1 C2.01 0.67 1.02 0.34 0 0 Z " fill="#D25E61" transform="translate(314,331)"/>
<path d="M0 0 C-0.66 1.32 -1.32 2.64 -2 4 C-3.65 3.67 -5.3 3.34 -7 3 C-7 2.01 -7 1.02 -7 0 C-4.3333581 -1.33332095 -2.83319697 -0.67102033 0 0 Z " fill="#76787B" transform="translate(375,458)"/>
<path d="M0 0 C1.98 0 3.96 0 6 0 C6 0.99 6 1.98 6 3 C4.02 3.99 2.04 4.98 0 6 C0 4.02 0 2.04 0 0 Z " fill="#737476" transform="translate(321,416)"/>
<path d="M0 0 C1.65 0 3.3 0 5 0 C5 1.65 5 3.3 5 5 C3.35 5 1.7 5 0 5 C0 3.35 0 1.7 0 0 Z " fill="#67676A" transform="translate(275,410)"/>
<path d="M0 0 C1.98 0 3.96 0 6 0 C5.67 0.66 5.34 1.32 5 2 C4.34 2 3.68 2 3 2 C2.67 3.65 2.34 5.3 2 7 C0.68 7.33 -0.64 7.66 -2 8 C-2 7.34 -2 6.68 -2 6 C-0.68 5.67 0.64 5.34 2 5 C2 4.34 2 3.68 2 3 C1.34 3 0.68 3 0 3 C0 2.01 0 1.02 0 0 Z " fill="#6B6C6D" transform="translate(279,462)"/>
<path d="M0 0 C-0.75 2.9375 -0.75 2.9375 -2 6 C-4.18096612 6.95417268 -5.64182234 7 -8 7 C-8 6.34 -8 5.68 -8 5 C-2.52380952 0 -2.52380952 0 0 0 Z " fill="#D84950" transform="translate(119,163)"/>
<path d="M0 0 C-0.33 1.65 -0.66 3.3 -1 5 C-2.9375 4.6875 -2.9375 4.6875 -5 4 C-5.33 3.01 -5.66 2.02 -6 1 C-4 0 -4 0 0 0 Z " fill="#87888A" transform="translate(256,483)"/>
<path d="M0 0 C0.185625 0.9590625 0.185625 0.9590625 0.375 1.9375 C0.684375 2.9584375 0.684375 2.9584375 1 4 C1.66 4.33 2.32 4.66 3 5 C2.67 5.99 2.34 6.98 2 8 C1.34 8 0.68 8 0 8 C0 8.66 0 9.32 0 10 C-0.66 10 -1.32 10 -2 10 C-2 8.35 -2 6.7 -2 5 C-1.34 5 -0.68 5 0 5 C0 3.35 0 1.7 0 0 Z " fill="#7F8084" transform="translate(344,442)"/>
<path d="M0 0 C2.125 0.9375 2.125 0.9375 4 2 C2.71186658 2.83878455 1.41936744 3.67086783 0.125 4.5 C-0.59429687 4.9640625 -1.31359375 5.428125 -2.0546875 5.90625 C-4 7 -4 7 -6 7 C-6 6.34 -6 5.68 -6 5 C-4.35 4.67 -2.7 4.34 -1 4 C-1.33 3.01 -1.66 2.02 -2 1 C-1.34 0.67 -0.68 0.34 0 0 Z " fill="#DC5053" transform="translate(299,358)"/>
<path d="M0 0 C0.66 0.33 1.32 0.66 2 1 C1.34 2.65 0.68 4.3 0 6 C-3.3 6 -6.6 6 -10 6 C-10 5.67 -10 5.34 -10 5 C-8.72125 4.9175 -7.4425 4.835 -6.125 4.75 C-3.94666582 4.54130069 -3.94666582 4.54130069 -2 4 C-0.4100567 2.07935207 -0.4100567 2.07935207 0 0 Z " fill="#A1A3A5" transform="translate(306,467)"/>
<path d="M0 0 C1.32 0.33 2.64 0.66 4 1 C2.625 3.5 2.625 3.5 1 6 C0.34 6 -0.32 6 -1 6 C-1.33 5.01 -1.66 4.02 -2 3 C-1.34 2.01 -0.68 1.02 0 0 Z " fill="#696B6E" transform="translate(272,466)"/>
<path d="M0 0 C1.4606285 2.64738916 2 3.89448334 2 7 C-1.3 7 -4.6 7 -8 7 C-7.67 6.34 -7.34 5.68 -7 5 C-4.69 5 -2.38 5 0 5 C0 3.35 0 1.7 0 0 Z " fill="#606062" transform="translate(311,455)"/>
<path d="M0 0 C1.98 0 3.96 0 6 0 C6 0.99 6 1.98 6 3 C5.01 3 4.02 3 3 3 C3 3.66 3 4.32 3 5 C2.34 5 1.68 5 1 5 C0.67 3.35 0.34 1.7 0 0 Z " fill="#696A6D" transform="translate(278,416)"/>
<path d="M0 0 C0.33 0 0.66 0 1 0 C1 1.65 1 3.3 1 5 C1.99 5.33 2.98 5.66 4 6 C2.02 6.99 2.02 6.99 0 8 C-0.66 6.02 -1.32 4.04 -2 2 C-1.34 1.34 -0.68 0.68 0 0 Z " fill="#818182" transform="translate(254,404)"/>
<path d="M0 0 C0.99 0 1.98 0 3 0 C2.67 1.98 2.34 3.96 2 6 C0.68 5.34 -0.64 4.68 -2 4 C-1.34 2.68 -0.68 1.36 0 0 Z " fill="#7F8080" transform="translate(363,290)"/>
<path d="M0 0 C0.33 0.66 0.66 1.32 1 2 C1.66 2 2.32 2 3 2 C3.66 3.98 4.32 5.96 5 8 C3.68 7.67 2.36 7.34 1 7 C0.67 4.69 0.34 2.38 0 0 Z " fill="#DC4F55" transform="translate(308,68)"/>
<path d="M0 0 C2.97 0.99 5.94 1.98 9 3 C9 3.33 9 3.66 9 4 C6.36 3.67 3.72 3.34 1 3 C0.67 3.66 0.34 4.32 0 5 C0 3.35 0 1.7 0 0 Z " fill="#DA444D" transform="translate(283,52)"/>
<path d="M0 0 C0.99 0.33 1.98 0.66 3 1 C3.33 1.99 3.66 2.98 4 4 C3.34 4.66 2.68 5.32 2 6 C1.01 5.34 0.02 4.68 -1 4 C-0.67 2.68 -0.34 1.36 0 0 Z " fill="#65666B" transform="translate(209,478)"/>
<path d="M0 0 C2.75 -0.25 2.75 -0.25 6 0 C8.375 2 8.375 2 10 4 C6.7 3.34 3.4 2.68 0 2 C0 1.34 0 0.68 0 0 Z " fill="#D8565A" transform="translate(133,367)"/>
<path d="M0 0 C0.33 0 0.66 0 1 0 C1.98248524 4.0527516 2.08159574 7.83861737 2 12 C1.71125 11.38125 1.4225 10.7625 1.125 10.125 C0.06279958 7.86674235 0.06279958 7.86674235 -2 6 C-1.34 4.02 -0.68 2.04 0 0 Z " fill="#777479" transform="translate(268,130)"/>
<path d="M0 0 C2.31 0.33 4.62 0.66 7 1 C6.67 1.99 6.34 2.98 6 4 C3.9375 4.6875 3.9375 4.6875 2 5 C2 4.34 2 3.68 2 3 C1.34 3 0.68 3 0 3 C0 2.01 0 1.02 0 0 Z " fill="#7C7C7C" transform="translate(329,106)"/>
<path d="M0 0 C-0.3125 1.9375 -0.3125 1.9375 -1 4 C-1.99 4.33 -2.98 4.66 -4 5 C-4 4.34 -4 3.68 -4 3 C-4.99 3 -5.98 3 -7 3 C-7 2.34 -7 1.68 -7 1 C-4.50935112 0.31292445 -2.62113708 0 0 0 Z " fill="#828586" transform="translate(190,106)"/>
<path d="M0 0 C0.33 0 0.66 0 1 0 C1 3.96 1 7.92 1 12 C-1 8 -1 8 -2 5 C-1.0625 2.3125 -1.0625 2.3125 0 0 Z " fill="#7D7E81" transform="translate(212,453)"/>
<path d="M0 0 C0.33 0.66 0.66 1.32 1 2 C1.66 2 2.32 2 3 2 C3.33 3.98 3.66 5.96 4 8 C3.01 8 2.02 8 1 8 C0.67 5.36 0.34 2.72 0 0 Z " fill="#87878A" transform="translate(262,400)"/>
<path d="M0 0 C-1 3 -1 3 -3.3125 4.25 C-6.16597407 5.04631835 -7.24802325 4.8214856 -10 4 C-8.71086513 3.32845067 -7.41859796 2.66291141 -6.125 2 C-5.40570313 1.62875 -4.68640625 1.2575 -3.9453125 0.875 C-2 0 -2 0 0 0 Z " fill="#D34851" transform="translate(129,158)"/>
<path d="M0 0 C5.53846154 -0.36923077 5.53846154 -0.36923077 7.875 1.5 C8.24625 1.995 8.6175 2.49 9 3 C8.01 3.495 8.01 3.495 7 4 C4.64018187 3.06421005 2.30368736 2.06652192 0 1 C0 0.67 0 0.34 0 0 Z " fill="#828385" transform="translate(337,99)"/>
<path d="M0 0 C0 1.65 0 3.3 0 5 C-1.65 5 -3.3 5 -5 5 C-2.74193548 0 -2.74193548 0 0 0 Z " fill="#808084" transform="translate(382,457)"/>
<path d="M0 0 C1.32 0.33 2.64 0.66 4 1 C4 2.65 4 4.3 4 6 C3.67 5.34 3.34 4.68 3 4 C2.01 3.67 1.02 3.34 0 3 C0 2.01 0 1.02 0 0 Z " fill="#686A6C" transform="translate(268,418)"/>
<path d="M0 0 C1.32 0.33 2.64 0.66 4 1 C4 1.99 4 2.98 4 4 C4.66 4.33 5.32 4.66 6 5 C5.67 5.99 5.34 6.98 5 8 C4.16382818 6.8562364 3.33113541 5.70992861 2.5 4.5625 C2.0359375 3.92441406 1.571875 3.28632813 1.09375 2.62890625 C0 1 0 1 0 0 Z " fill="#D96363" transform="translate(109,348)"/>
<path d="M0 0 C0.66 0 1.32 0 2 0 C2 0.66 2 1.32 2 2 C2.66 2 3.32 2 4 2 C3.67 3.98 3.34 5.96 3 8 C0.37613513 4.93882432 0 4.26826873 0 0 Z " fill="#E05156" transform="translate(106,340)"/>
<path d="M0 0 C0.33 0 0.66 0 1 0 C0.67 2.31 0.34 4.62 0 7 C-0.99 7 -1.98 7 -3 7 C-2.38722388 4.03824877 -1.74627478 2.61941217 0 0 Z " fill="#838387" transform="translate(172,461)"/>
<path d="M0 0 C0.66 0 1.32 0 2 0 C2.33 1.65 2.66 3.3 3 5 C1.35 5.33 -0.3 5.66 -2 6 C-1.34 5.01 -0.68 4.02 0 3 C-0.33 2.67 -0.66 2.34 -1 2 C-0.67 1.34 -0.34 0.68 0 0 Z " fill="#808182" transform="translate(284,450)"/>
<path d="M0 0 C2.64 0 5.28 0 8 0 C5.06279492 1.52299523 2.0831351 2.80100302 -1 4 C-0.67 2.68 -0.34 1.36 0 0 Z " fill="#D54148" transform="translate(153,194)"/>
</svg>
