<?xml version="1.0" encoding="UTF-8"?>
<svg version="1.1" xmlns="http://www.w3.org/2000/svg" width="512" height="512">
<path d="M0 0 C0.80101043 -0.00297112 1.60202086 -0.00594224 2.42730433 -0.0090034 C5.08464954 -0.017606 7.74194927 -0.01919139 10.39930725 -0.02069092 C12.31542047 -0.02532489 14.23153279 -0.03035033 16.14764404 -0.03573608 C21.33356722 -0.04880184 26.51947749 -0.05529302 31.70541453 -0.05974674 C34.94903341 -0.06268547 38.19264882 -0.06679165 41.43626595 -0.07125092 C51.59598935 -0.08490733 61.75570475 -0.09458439 71.91543669 -0.09845281 C83.62385216 -0.10293626 95.33215106 -0.12050536 107.0405311 -0.1494534 C116.10661365 -0.17108745 125.17266342 -0.18115793 134.2387715 -0.18249393 C139.64704957 -0.18354024 145.05521776 -0.18941179 150.46346855 -0.20731354 C155.5500251 -0.22382515 160.63638949 -0.22593471 165.72296333 -0.21717453 C167.58450461 -0.21640595 169.44605636 -0.22072313 171.30757141 -0.23063278 C193.21657048 -0.34038311 193.21657048 -0.34038311 200.41908264 5.45294189 C205.89900386 12.38343049 208.45375501 17.18991554 207.54408264 26.14044189 C206.12840277 31.79275197 203.79611061 36.89137582 198.87220764 40.29669189 C192.93949449 43.84617839 188.31509108 44.28736197 181.52412415 44.27174377 C180.7096405 44.27385949 179.89515686 44.2759752 179.05599189 44.27815503 C176.32316752 44.28415279 173.59038936 44.28315503 170.8575592 44.2822876 C168.89953025 44.28531926 166.941502 44.28884073 164.98347473 44.29281616 C160.76448234 44.30070525 156.5454984 44.30585013 152.32649994 44.30910683 C145.65337537 44.31501691 138.98030414 44.33155742 132.3072052 44.35044861 C130.02255634 44.35678601 127.73790744 44.36311164 125.45325851 44.36942577 C123.73699367 44.37417449 123.73699367 44.37417449 121.9860568 44.37901914 C106.44974414 44.42109445 90.9134563 44.45407095 75.37709045 44.46636963 C64.89822771 44.47475 54.41949699 44.49723985 43.94070029 44.5357253 C38.3960291 44.55548644 32.85155528 44.56789027 27.30684662 44.56289101 C22.08976769 44.55824443 16.8730628 44.57205082 11.65605927 44.59990311 C9.74371061 44.60681462 7.83132327 44.60694189 5.91897583 44.59970284 C3.30286588 44.59080163 0.68798603 44.60652822 -1.92802429 44.62818909 C-2.68018274 44.61974655 -3.43234119 44.61130401 -4.20729232 44.60260564 C-10.23613046 44.69455599 -15.44226066 46.433909 -19.98852324 50.51685888 C-24.68602458 55.76091921 -25.70534977 61.09252641 -25.71039295 67.94715691 C-25.71359943 68.61014894 -25.71680591 69.27314097 -25.72010955 69.95622367 C-25.72840427 72.1755858 -25.72248722 74.39467769 -25.71661377 76.61404419 C-25.7196347 78.22219493 -25.72352388 79.83034423 -25.72820634 81.43849099 C-25.73850267 85.85612851 -25.73630035 90.27368502 -25.73202574 94.69132924 C-25.72956149 99.45625643 -25.73856895 104.22116396 -25.74606323 108.98608398 C-25.75882067 118.32056829 -25.76060262 127.65502385 -25.75826297 136.98951541 C-25.7564808 144.57607348 -25.75822728 152.16262281 -25.76248741 159.74917984 C-25.7630826 160.828448 -25.76367779 161.90771616 -25.76429101 163.01968942 C-25.76550275 165.21214437 -25.76671689 167.40459931 -25.76793339 169.59705426 C-25.77881298 190.16381602 -25.77664447 210.73056139 -25.77054854 231.29732408 C-25.76537915 250.11561728 -25.77663469 268.93385873 -25.79564676 287.7521417 C-25.81501513 307.07106718 -25.82328291 326.38996817 -25.81952351 345.70890343 C-25.81760993 356.55648064 -25.82011431 367.4040138 -25.83423805 378.2515831 C-25.84614007 387.48632168 -25.84756999 396.72098909 -25.83544789 405.95572864 C-25.82955089 410.66757769 -25.82848243 415.37929648 -25.84045029 420.09113693 C-25.85128087 424.40535236 -25.84823945 428.71932831 -25.8341886 433.0335324 C-25.83153387 434.59337727 -25.83393252 436.15324074 -25.84192447 437.7130674 C-26.13474206 450.19986458 -26.13474206 450.19986458 -20.80747986 461.16387939 C-20.23771423 461.60989502 -19.66794861 462.05591064 -19.08091736 462.51544189 C-18.51630798 462.97692627 -17.95169861 463.43841064 -17.36997986 463.91387939 C-12.47570638 467.05020975 -8.0172426 467.42866583 -2.31570435 467.39872742 C-1.09269724 467.40424097 -1.09269724 467.40424097 0.15501708 467.40986592 C2.88478568 467.41983926 5.61435031 467.41569641 8.34413147 467.41168213 C10.30230933 467.4160696 12.26048533 467.42137183 14.21865845 467.42752075 C18.43491571 467.43902082 22.65112271 467.44448018 26.8673954 467.44540215 C33.53641964 467.44734276 40.20533997 467.46539589 46.87432861 467.48616028 C63.44079233 467.53535149 80.0072843 467.56622672 96.57380676 467.58746338 C109.44529914 467.60398936 122.31670254 467.62681485 135.18813533 467.67048413 C141.81522126 467.69225248 148.44213815 467.70031904 155.06925738 467.69809139 C159.19635458 467.69976 163.32334176 467.71382025 167.4503994 467.73130417 C169.36114068 467.73689606 171.27190486 467.73739593 173.18264771 467.73236656 C175.79632209 467.7262094 178.40930441 467.73848518 181.0229187 467.75517273 C181.77439503 467.74896091 182.52587136 467.7427491 183.3001197 467.73634905 C190.6176021 467.82115619 197.2480631 469.84442235 202.54408264 475.14044189 C206.78443105 481.27175648 208.28607937 486.70698381 207.54408264 494.14044189 C206.22482574 499.78104424 204.00215527 503.33477014 199.54408264 507.14044189 C198.94595764 507.69731689 198.34783264 508.25419189 197.73158264 508.82794189 C192.10233772 512.20548885 185.62294193 512.43345957 179.2353363 512.39440918 C178.43800256 512.39752916 177.64066882 512.40064914 176.81917346 512.40386367 C174.16799202 512.41179157 171.51704281 512.40554033 168.86585999 512.39923096 C166.95638394 512.40194326 165.04690894 512.40550554 163.13743591 512.40985107 C157.96355473 512.41895251 152.7897535 512.41543908 147.61587095 512.4090929 C142.18785613 512.40401689 136.75984799 512.40872921 131.33183289 512.41186523 C122.21100135 512.41550207 113.09020222 512.41071512 103.96937561 512.40118408 C93.45168334 512.39031967 82.93406874 512.39381161 72.41637838 512.40483689 C63.3663849 512.41394123 54.31641468 512.41517912 45.2664181 512.40995955 C39.87032655 512.40685459 34.47427138 512.40638936 29.07818222 512.41303253 C23.99739362 512.41885053 18.91670406 512.41472833 13.83592606 512.40324402 C11.98091038 512.40062025 10.12588623 512.40132298 8.27087402 512.40576935 C-14.33454385 512.45491697 -34.43059239 509.70494343 -51.64341736 493.51544189 C-62.70814216 481.90539679 -69.5708586 467.37018287 -69.58734512 451.24930477 C-69.58939776 450.56502774 -69.59145039 449.88075071 -69.59356523 449.17573801 C-69.59922914 446.8779794 -69.59777872 444.58028084 -69.59635925 442.28251648 C-69.59894325 440.62033347 -69.6019565 438.95815108 -69.60536265 437.29596955 C-69.61343205 432.72419472 -69.6152222 428.1524356 -69.61596012 423.5806545 C-69.61781081 418.65135551 -69.62535828 413.72206467 -69.63209534 408.79277039 C-69.64567928 398.01161395 -69.65170362 387.23046124 -69.656106 376.44929767 C-69.6588686 369.71679337 -69.66310602 362.98429051 -69.66761017 356.25178719 C-69.67980346 337.60997705 -69.6901023 318.96816806 -69.69348526 300.32635403 C-69.69370483 299.13313343 -69.69392439 297.93991284 -69.69415061 296.71053404 C-69.69436889 295.51446106 -69.69458717 294.31838809 -69.69481206 293.08607048 C-69.69525552 290.66238113 -69.69570209 288.23869179 -69.69615173 285.81500244 C-69.69637316 284.61276931 -69.69659459 283.41053617 -69.69682273 282.17187173 C-69.70076972 262.69663488 -69.71822046 243.22143546 -69.74151126 223.74621307 C-69.7652328 203.7492959 -69.7776875 183.75239751 -69.77885318 163.75546604 C-69.77976954 152.52879966 -69.78551213 141.30218204 -69.80367279 130.0755291 C-69.81908466 120.51443374 -69.82418785 110.95340221 -69.81593469 101.39229678 C-69.81203191 96.51591065 -69.81293963 91.63965304 -69.82699203 86.76328278 C-69.83975324 82.294008 -69.83851396 77.82495802 -69.82640132 73.35568345 C-69.82444816 71.74391863 -69.82750508 70.13213776 -69.83624569 68.52039545 C-69.93076057 49.90468606 -65.68579242 33.83000145 -52.57286072 20.13018799 C-38.05141612 5.55169929 -20.20594698 -0.0239972 0 0 Z " fill="#000000" transform="translate(69.45591735839844,-0.14044189453125)"/>
<path d="M0 0 C10.29907887 6.24249903 18.72197753 16.2211369 27.1584053 24.70824051 C29.33488064 26.89765299 31.51461641 29.08377413 33.69515991 31.26913452 C38.32044778 35.90576253 42.94176849 40.54633182 47.5625 45.1875 C52.92969716 50.57839586 58.29856109 55.96761017 63.67167282 61.35261154 C65.80733538 63.49470226 67.93993744 65.63980716 70.07241821 67.7850647 C71.39399494 69.11027713 72.71571406 70.43534757 74.03759766 71.76025391 C74.61962448 72.34744705 75.20165131 72.9346402 75.80131531 73.53962708 C79.42584922 77.16461702 83.19013152 80.56881141 87.06655502 83.92229271 C89.56347523 86.1112757 91.93469421 88.4102465 94.29614258 90.74414062 C95.00755402 91.44569527 95.00755402 91.44569527 95.7333374 92.16142273 C97.26902986 93.67773855 98.80097407 95.19775473 100.33203125 96.71875 C100.86154577 97.244189 101.3910603 97.76962799 101.93662071 98.31098938 C104.73109677 101.08477204 107.52240503 103.86169897 110.3112793 106.64111328 C113.17869938 109.49741142 116.05762431 112.34182221 118.93918324 115.18384552 C121.16868665 117.38716256 123.38921833 119.59935942 125.60745811 121.81401062 C126.66498063 122.86668458 127.72585911 123.91599896 128.7902317 124.96174622 C130.2784071 126.42545201 131.75331816 127.90141877 133.22583008 129.38085938 C134.06551834 130.2146814 134.9052066 131.04850342 135.77033997 131.90759277 C139.59006045 136.58699039 141.36681648 141.40327861 141.375 147.5 C141.40400391 148.93666016 141.40400391 148.93666016 141.43359375 150.40234375 C139.82546888 160.64622581 132.03921844 166.99820641 125.015625 173.91015625 C123.82900899 175.09183882 122.64321141 176.27434375 121.45819092 177.45762634 C118.97941314 179.92879042 116.49435102 182.3933783 114.00390625 184.8527832 C110.83054878 187.98663367 107.66799067 191.13109413 104.50947952 194.27990055 C101.47334781 197.30599722 98.43234792 200.32718119 95.390625 203.34765625 C94.8200663 203.9148192 94.2495076 204.48198215 93.66165924 205.06633186 C92.02345958 206.69278851 90.38191352 208.31578937 88.73925781 209.93774414 C87.80978333 210.85737442 86.88030884 211.7770047 85.92266846 212.72450256 C83.68653462 214.8918805 81.36959492 216.94268984 79.01385498 218.97920227 C75.14538923 222.33826817 71.51034932 225.87347461 67.9140625 229.52001953 C67.26250183 230.17625305 66.61094116 230.83248657 65.93963623 231.50860596 C64.53962791 232.91903254 63.14073086 234.33056291 61.74285889 235.74310684 C59.52525487 237.98293082 57.30353774 240.218598 55.08056641 242.45309448 C48.76553232 248.8015422 42.45474897 255.15416776 36.15429688 261.51708984 C32.28715308 265.42198678 28.41264229 269.3194442 24.53338623 273.21230698 C23.06348285 274.69023157 21.59635436 276.17092166 20.13214111 277.6544838 C18.08199702 279.73125977 16.02258713 281.79842348 13.9609375 283.86376953 C13.36641785 284.47064606 12.77189819 285.07752258 12.15936279 285.70278931 C6.01687227 291.81649266 -0.33460404 296.63608248 -9.25 296.875 C-16.27175195 296.8007939 -20.53339678 294.64198487 -25.875 290.25 C-30.57176711 284.47968612 -31.39628721 279.76441864 -31.55859375 272.50390625 C-30.2367402 264.66645963 -25.44958273 259.37352631 -19.94238281 253.97241211 C-19.23288483 253.26072372 -18.52338684 252.54903534 -17.79238892 251.81578064 C-15.45963405 249.48072663 -13.11295676 247.16023615 -10.765625 244.83984375 C-9.13060575 243.20975374 -7.49640201 241.57884539 -5.86297607 239.94715881 C-2.4426408 236.5344499 0.98403391 233.12829089 4.41601562 229.72729492 C8.80006213 225.38277454 13.17331664 221.02759892 17.54249191 216.66812801 C21.72795107 212.49267981 25.91831104 208.32216507 30.109375 204.15234375 C30.90139061 203.36372389 31.69340622 202.57510403 32.5094223 201.76258659 C34.77024222 199.51344276 37.03445175 197.2677704 39.29980469 195.02319336 C39.95671295 194.368974 40.61362122 193.71475464 41.29043579 193.04071045 C44.37441286 189.99187919 47.49843398 187.04559072 50.78985596 184.22120667 C55.76578186 179.93328996 60.33805133 175.24677457 64.9375 170.5625 C63.04048639 170.55891747 63.04048639 170.55891747 61.10514927 170.55526257 C31.0693997 170.49787536 1.03373006 170.42512539 -29.0019328 170.33351372 C-32.70058832 170.32224585 -36.39924423 170.31110735 -40.09790039 170.30004883 C-40.83422145 170.29784514 -41.5705425 170.29564146 -42.32917631 170.293371 C-54.24412678 170.25801992 -66.15907718 170.23314344 -78.07406061 170.21215298 C-90.30427019 170.19037347 -102.53441184 170.15730265 -114.76456362 170.11379844 C-122.30833112 170.08731872 -129.85201403 170.06959628 -137.39582569 170.06315396 C-143.18507728 170.05726545 -148.97418865 170.03565036 -154.76337433 170.00822449 C-157.1348773 169.99943793 -159.50640538 169.99572296 -161.87792397 169.99749184 C-165.11988243 169.99914633 -168.36125601 169.98242945 -171.60313416 169.96122742 C-172.53798281 169.96607499 -173.47283147 169.97092257 -174.43600887 169.97591704 C-182.90400287 169.88474514 -190.36999343 168.15745985 -196.62109375 162.2109375 C-201.29425484 156.86656357 -201.60752561 151.36502109 -201.41015625 144.5 C-200.71140573 138.59595066 -198.4292066 134.99277435 -194.375 130.75 C-187.16787554 125.99057819 -180.08832183 125.11977338 -171.60313416 125.16377258 C-170.5868069 125.15712576 -169.57047964 125.15047893 -168.52335459 125.14363068 C-165.13778067 125.12506535 -161.75256218 125.12760167 -158.36694336 125.13012695 C-155.9321442 125.12110588 -153.49734958 125.11077781 -151.06256104 125.09924316 C-145.830879 125.07738869 -140.59925893 125.06458173 -135.36753654 125.06011391 C-127.80347933 125.05363849 -120.23954175 125.03067675 -112.67553288 125.00377061 C-100.40162537 124.96055491 -88.12772292 124.93055842 -75.85375977 124.90893555 C-63.93511473 124.88791019 -52.01651099 124.86062154 -40.09790039 124.82495117 C-39.36247699 124.82275235 -38.6270536 124.82055352 -37.86934464 124.81828807 C-34.17971444 124.80721802 -30.49008462 124.79602529 -26.80045497 124.78477156 C3.77882827 124.69166036 34.35812833 124.62024946 64.9375 124.5625 C62.44184749 122.03733195 59.94017549 119.51820627 57.4375 117 C56.74140625 116.29552734 56.0453125 115.59105469 55.328125 114.86523438 C51.2643231 110.78261857 47.1151358 106.87436597 42.73646051 103.1305356 C39.60778434 100.40347428 36.68304549 97.47212382 33.74291992 94.54492188 C33.07357422 93.88214737 32.40422852 93.21937286 31.71459961 92.53651428 C29.52953175 90.37094966 27.34831587 88.20156698 25.16796875 86.03125 C24.41780298 85.28515976 23.66763721 84.53906952 22.89473915 83.77037048 C18.9331401 79.82952234 14.97474727 75.88548483 11.01879883 71.93896484 C6.94072596 67.87200417 2.8511005 63.81686565 -1.24115467 59.76418304 C-4.39709714 56.63438143 -7.54412493 53.49573014 -10.68881798 50.35462952 C-12.1929177 48.85539296 -13.7003875 47.35952931 -15.21131325 45.86717224 C-17.3220501 43.78079774 -19.41978586 41.68213191 -21.51489258 39.58007812 C-22.44766273 38.66652306 -22.44766273 38.66652306 -23.39927673 37.73451233 C-28.40192319 32.67125677 -31.47322293 27.60419886 -31.5625 20.25 C-31.36312948 14.21073473 -29.7059627 9.40011196 -26.0625 4.5625 C-18.86855765 -1.52575861 -8.89030698 -3.9915664 0 0 Z " fill="#000000" transform="translate(371.0625,108.4375)"/>
</svg>
