<svg width="15" height="15" viewBox="0 0 15 15" fill="none" xmlns="http://www.w3.org/2000/svg">
<g opacity="0.4" clip-path="url(#clip0_349_43482)">
<path d="M5.625 10C5.625 10.1658 5.55915 10.3247 5.44194 10.4419C5.32473 10.5592 5.16576 10.625 5 10.625C4.83424 10.625 4.67527 10.5592 4.55806 10.4419C4.44085 10.3247 4.375 10.1658 4.375 10C4.375 9.83424 4.44085 9.67527 4.55806 9.55806C4.67527 9.44085 4.83424 9.375 5 9.375C5.16576 9.375 5.32473 9.44085 5.44194 9.55806C5.55915 9.67527 5.625 9.83424 5.625 10ZM8.125 10C8.125 10.1658 8.05915 10.3247 7.94194 10.4419C7.82473 10.5592 7.66576 10.625 7.5 10.625C7.33424 10.625 7.17527 10.5592 7.05806 10.4419C6.94085 10.3247 6.875 10.1658 6.875 10C6.875 9.83424 6.94085 9.67527 7.05806 9.55806C7.17527 9.44085 7.33424 9.375 7.5 9.375C7.66576 9.375 7.82473 9.44085 7.94194 9.55806C8.05915 9.67527 8.125 9.83424 8.125 10ZM10 10.625C10.1658 10.625 10.3247 10.5592 10.4419 10.4419C10.5592 10.3247 10.625 10.1658 10.625 10C10.625 9.83424 10.5592 9.67527 10.4419 9.55806C10.3247 9.44085 10.1658 9.375 10 9.375C9.83424 9.375 9.67527 9.44085 9.55806 9.55806C9.44085 9.67527 9.375 9.83424 9.375 10C9.375 10.1658 9.44085 10.3247 9.55806 10.4419C9.67527 10.5592 9.83424 10.625 10 10.625Z" fill="#1C1C1C" fill-opacity="0.8"/>
<path fill-rule="evenodd" clip-rule="evenodd" d="M3.28125 5V5.81438C3.13937 5.82438 3.00625 5.83687 2.88 5.85437C2.3175 5.92937 1.84375 6.09187 1.4675 6.4675C1.09125 6.84375 0.93 7.3175 0.854375 7.88C0.78125 8.42188 0.78125 9.11125 0.78125 9.96562V10.0344C0.78125 10.8888 0.78125 11.5781 0.854375 12.12C0.929375 12.6825 1.09188 13.1562 1.4675 13.5325C1.84375 13.9088 2.3175 14.07 2.88 14.1463C3.42187 14.2188 4.11125 14.2188 4.96563 14.2188H10.0344C10.8888 14.2188 11.5781 14.2188 12.12 14.1463C12.6825 14.07 13.1562 13.9088 13.5325 13.5325C13.9088 13.1562 14.07 12.6825 14.1463 12.12C14.2188 11.5781 14.2188 10.8888 14.2188 10.0344V9.96562C14.2188 9.11125 14.2188 8.42188 14.1463 7.88C14.07 7.3175 13.9088 6.84375 13.5325 6.4675C13.1562 6.09125 12.6825 5.93 12.12 5.85437C11.9867 5.83682 11.8529 5.82348 11.7188 5.81438V5C11.7188 3.88112 11.2743 2.80806 10.4831 2.01689C9.69194 1.22572 8.61888 0.78125 7.5 0.78125C6.38112 0.78125 5.30806 1.22572 4.51689 2.01689C3.72572 2.80806 3.28125 3.88112 3.28125 5ZM7.5 1.71875C6.62976 1.71875 5.79516 2.06445 5.17981 2.67981C4.56445 3.29516 4.21875 4.12976 4.21875 5V5.78312C4.45187 5.78125 4.70125 5.78125 4.96563 5.78125H10.0344C10.2987 5.78125 10.5481 5.78125 10.7812 5.78312V5C10.7812 3.1875 9.3125 1.71875 7.5 1.71875ZM3.005 6.78312C2.54625 6.845 2.30375 6.95813 2.13063 7.13063C1.9575 7.30375 1.845 7.54625 1.78312 8.00562C1.72 8.4775 1.71875 9.10312 1.71875 10C1.71875 10.8969 1.72 11.5225 1.78312 11.995C1.845 12.4537 1.95812 12.6962 2.13063 12.8694C2.30375 13.0425 2.54625 13.155 3.00563 13.2169C3.47688 13.28 4.10313 13.2812 5 13.2812H10C10.8969 13.2812 11.5225 13.28 11.995 13.2169C12.4537 13.155 12.6962 13.0419 12.8694 12.8694C13.0425 12.6962 13.155 12.4537 13.2169 11.9944C13.28 11.5225 13.2812 10.8969 13.2812 10C13.2812 9.10312 13.28 8.47687 13.2169 8.005C13.155 7.54625 13.0419 7.30375 12.8694 7.13063C12.6962 6.9575 12.4537 6.845 11.9944 6.78312C11.5225 6.72 10.8969 6.71875 10 6.71875H5C4.10313 6.71875 3.47688 6.72 3.005 6.78312Z" fill="#1C1C1C" fill-opacity="0.8"/>
</g>
<defs>
<clipPath id="clip0_349_43482">
<rect width="15" height="15" fill="white"/>
</clipPath>
</defs>
</svg>
