<?xml version="1.0" encoding="UTF-8"?>
<svg version="1.1" xmlns="http://www.w3.org/2000/svg" width="512" height="512">
<path d="M0 0 C1.30365551 1.08998583 2.59459989 2.19528814 3.875 3.3125 C4.84308594 4.08464844 5.81117188 4.85679688 6.80859375 5.65234375 C16.4254206 13.67992368 22.4212836 24.82099967 26.875 36.3125 C27.30941406 37.39015625 27.74382812 38.4678125 28.19140625 39.578125 C32.53212645 52.58516115 31.2295238 66.77378135 30.875 80.3125 C32.8255127 80.2810791 32.8255127 80.2810791 34.81542969 80.24902344 C39.69080368 80.17601868 44.56613045 80.13048236 49.44189453 80.09277344 C51.54256343 80.07279469 53.6431777 80.04560211 55.74365234 80.01074219 C73.36000861 79.72593186 86.98749244 80.96036523 100.87109375 93.05078125 C111.47138019 104.07602349 114.58792736 118.34212141 116.20361328 132.99438477 C116.32094818 134.02338394 116.43828308 135.05238312 116.55917358 136.11256409 C116.94303713 139.49245269 117.31958236 142.87310449 117.6953125 146.25390625 C117.96132206 148.62411937 118.2275095 150.99431253 118.49386597 153.36448669 C119.05030435 158.32765525 119.60279163 163.29124546 120.15283203 168.25512695 C120.85402862 174.57795792 121.56772501 180.89930672 122.28480721 187.22035313 C122.8382745 192.11597234 123.38358949 197.01247532 123.92669296 201.90925407 C124.1862139 204.23807002 124.44851244 206.56657835 124.71377945 208.89474678 C128.789251 244.75634273 128.789251 244.75634273 122.875 252.3125 C119.05569828 255.94083663 115.99220994 256.62250458 110.875 256.8125 C105.75779006 256.62250458 102.69430172 255.94083663 98.875 252.3125 C94.61035726 247.13370246 93.97119963 242.47679236 93.28710938 235.90454102 C93.1688253 234.8925316 93.05054123 233.88052217 92.92867279 232.8378458 C92.56170177 229.66428367 92.21729578 226.48880774 91.875 223.3125 C91.65654357 221.38055165 91.43693185 219.44873353 91.21606445 217.51705933 C90.66475517 212.65142047 90.13518087 207.78367296 89.61235046 202.91489983 C89.15181793 198.6377588 88.68232264 194.36161378 88.21350861 190.08537388 C87.34706705 182.18164236 86.48417048 174.27756615 85.63623047 166.37182617 C85.03971121 160.81343582 84.43199669 155.25636901 83.81681824 149.70001411 C83.58622735 147.59815933 83.35978353 145.49584512 83.13764954 143.39307976 C82.82829349 140.4690297 82.50467277 137.54688476 82.17773438 134.62475586 C82.09037521 133.76608917 82.00301605 132.90742249 81.91300964 132.0227356 C81.35377787 127.18042084 80.32101739 123.61548367 77.875 119.3125 C77.545 118.3225 77.215 117.3325 76.875 116.3125 C70.86943653 113.2239245 64.25356727 113.14671603 57.6328125 112.99609375 C56.48025467 112.9649221 56.48025467 112.9649221 55.30441284 112.93312073 C52.86969233 112.86816531 50.43487153 112.80899362 48 112.75 C46.3411358 112.7067633 44.68228144 112.66314743 43.0234375 112.61914062 C38.97405896 112.51253997 34.92458037 112.4111233 30.875 112.3125 C30.89594727 113.43221191 30.91689453 114.55192383 30.93847656 115.70556641 C31.01110426 119.87633377 31.05688211 124.04704568 31.09472656 128.21826172 C31.11479033 130.02044081 31.14204813 131.82255521 31.17675781 133.62451172 C31.22550829 136.22119136 31.24802082 138.81700729 31.265625 141.4140625 C31.28627014 142.2142984 31.30691528 143.0145343 31.32818604 143.83901978 C31.33029705 149.15166147 30.35840331 152.07672625 26.875 156.3125 C23.05569828 159.94083663 19.99220994 160.62250458 14.875 160.8125 C9.75779006 160.62250458 6.69430172 159.94083663 2.875 156.3125 C-1.125 150.3125 -1.125 150.3125 -1.125 112.3125 C-32.805 112.3125 -64.485 112.3125 -97.125 112.3125 C-97.125 124.8525 -97.125 137.3925 -97.125 150.3125 C-102.29741379 158.07112069 -102.29741379 158.07112069 -107.125 160.3125 C-112.7247712 161.06631535 -117.45999991 161.08553575 -122.625 158.6875 C-126.54510914 154.96339632 -129.30801022 151.66900353 -129.57910156 146.14306641 C-129.57847514 144.5665899 -129.55628271 142.99001476 -129.515625 141.4140625 C-129.50996521 140.57910248 -129.50430542 139.74414246 -129.49847412 138.88388062 C-129.47620223 136.23448734 -129.42602523 133.58647984 -129.375 130.9375 C-129.35492302 129.13413421 -129.33667435 127.33074708 -129.3203125 125.52734375 C-129.27636786 121.12186731 -129.20740601 116.71741806 -129.125 112.3125 C-133.96337397 112.40666456 -138.80128421 112.51289156 -143.63916016 112.62988281 C-145.28199175 112.66796062 -146.92490071 112.70284888 -148.56787109 112.734375 C-150.9413604 112.78049015 -153.3143267 112.83840261 -155.6875 112.8984375 C-156.77393799 112.91576431 -156.77393799 112.91576431 -157.88232422 112.93344116 C-163.96596538 113.10609686 -169.33867033 114.38372344 -175.125 116.3125 C-176.26709817 118.09478936 -176.26709817 118.09478936 -177.125 120.3125 C-177.44966153 120.99736103 -177.77432306 121.68222206 -178.10882282 122.38783646 C-179.48102124 126.33716614 -179.87265248 130.21330502 -180.32133484 134.3571167 C-180.42583806 135.26975446 -180.53034129 136.18239222 -180.63801128 137.12268567 C-180.98640934 140.18099864 -181.32461529 143.24035138 -181.6628418 146.29980469 C-181.91047875 148.49287392 -182.15871331 150.68587574 -182.40750122 152.8788147 C-183.08144706 158.83686134 -183.74627279 164.79589266 -184.40894675 170.75520229 C-184.96299037 175.73055424 -185.52134764 180.70541823 -186.0796712 185.68029141 C-187.47230759 198.09029584 -188.8560954 210.50127176 -190.23589221 222.91270843 C-191.43324983 233.68058635 -192.64173527 244.44718067 -193.85555901 255.21321377 C-195.10280369 266.27652528 -196.34250154 277.34066395 -197.57460529 288.40567327 C-198.26601248 294.61424088 -198.96030671 300.82245058 -199.66196251 307.02986908 C-200.32171726 312.86964354 -200.97185184 318.7104109 -201.61465836 324.55207443 C-201.8518954 326.69338521 -202.09249378 328.83432671 -202.33673668 330.9748497 C-202.67022163 333.90228317 -202.99140721 336.83082105 -203.30961609 339.75994873 C-203.45784955 341.0228681 -203.45784955 341.0228681 -203.60907763 342.31130099 C-204.25087186 348.39642516 -204.71568222 355.01554965 -201.99609375 360.65234375 C-201.28646484 361.44318359 -201.28646484 361.44318359 -200.5625 362.25 C-200.10746094 362.79527344 -199.65242188 363.34054687 -199.18359375 363.90234375 C-193.8580057 367.55042209 -187.07896517 367.60406105 -180.83834839 367.5640564 C-179.64613165 367.5685116 -179.64613165 367.5685116 -178.42982972 367.57305682 C-175.7876174 367.58064721 -173.14563065 367.57422341 -170.50341797 367.56787109 C-168.60066579 367.57062323 -166.69791477 367.57430448 -164.79516602 367.57884216 C-160.70827556 367.58693448 -156.62143976 367.58912763 -152.53454208 367.58689499 C-146.0716583 367.58405647 -139.60888334 367.59843277 -133.14602661 367.61587524 C-114.77200946 367.66285463 -96.39800035 367.68685129 -78.02392578 367.69335938 C-67.86807878 367.69710835 -57.71235554 367.71512079 -47.55656159 367.74845374 C-41.13208116 367.76867754 -34.70791964 367.77103371 -28.28342032 367.76017356 C-24.28859511 367.75756816 -20.29395607 367.77156138 -16.29917908 367.79025459 C-14.44725854 367.79558052 -12.59530379 367.79407295 -10.74339676 367.78521919 C-8.21438019 367.7741033 -5.68662392 367.78752234 -3.15768433 367.80697632 C-2.42577436 367.79785166 -1.6938644 367.788727 -0.93977535 367.77932584 C4.12530625 367.85509673 6.95468087 369.16507658 10.875 372.3125 C14.50333663 376.13180172 15.18500458 379.19529006 15.375 384.3125 C15.18500458 389.42970994 14.50333663 392.49319828 10.875 396.3125 C6.14302114 400.14320474 2.41536553 400.88927406 -3.51040649 400.82043457 C-4.75496316 400.82979451 -4.75496316 400.82979451 -6.02466238 400.83934355 C-8.79749469 400.85526403 -11.56944674 400.84267285 -14.34228516 400.83007812 C-16.33353182 400.83549991 -18.32477447 400.84262289 -20.31600952 400.85131836 C-25.72134626 400.86955489 -31.1263776 400.86248083 -36.53171968 400.84980202 C-42.19558307 400.83966768 -47.85942049 400.84906969 -53.52328491 400.85534668 C-63.04112431 400.86262537 -72.5588396 400.85303323 -82.07666016 400.83398438 C-93.06135214 400.81225278 -104.04574671 400.81923918 -115.03043139 400.84129 C-124.47272578 400.85948246 -133.91493095 400.8619824 -143.35723722 400.85153532 C-148.99142853 400.8453167 -154.62548042 400.84441903 -160.25966263 400.85768127 C-165.56377332 400.86929376 -170.86750373 400.86111571 -176.17157364 400.83810425 C-178.11127595 400.83284429 -180.05101061 400.83428405 -181.99069977 400.84315491 C-199.12831965 400.91426281 -211.74435426 398.1338205 -224.75 386.3125 C-234.41720283 376.27283051 -238.28845071 363.64177289 -238.20131075 349.96717525 C-238.08248798 345.83360489 -237.66270054 341.75573017 -237.1960907 337.64883423 C-237.09611859 336.72995749 -236.99614648 335.81108075 -236.89314491 334.86435926 C-236.55984464 331.81343802 -236.21879471 328.76343616 -235.87768555 325.71337891 C-235.63580552 323.51470247 -235.39438283 321.31597567 -235.15338135 319.11720276 C-234.49934736 313.16411255 -233.83832327 307.21181841 -233.17556739 301.25969362 C-232.62194469 296.28244918 -232.071595 291.30484497 -231.52118713 286.32724416 C-230.1478967 273.90904674 -228.76771639 261.49162425 -227.38446549 249.07453351 C-226.18599003 238.31409054 -224.99652803 227.55267369 -223.81132319 216.79076166 C-222.5915324 205.71556567 -221.36543472 194.64108048 -220.13308936 183.5672735 C-219.4424033 177.36014561 -218.75413863 171.15277397 -218.07208824 164.9446907 C-217.4302048 159.10468515 -216.78030494 153.26562542 -216.12435913 147.42718315 C-215.88570177 145.29105793 -215.6498197 143.15462042 -215.41700172 141.01785088 C-211.40807288 104.27713538 -211.40807288 104.27713538 -197.125 91.3125 C-182.42468526 79.96162406 -168.69508483 79.76675411 -150.875 80.0625 C-148.7617357 80.08259854 -146.64845292 80.10084336 -144.53515625 80.1171875 C-139.39797492 80.16091038 -134.26169488 80.22975275 -129.125 80.3125 C-129.1564209 79.11258423 -129.1564209 79.11258423 -129.18847656 77.88842773 C-129.76033245 52.74305566 -127.32933847 31.02983173 -110.125 11.3125 C-109.35285156 10.34441406 -108.58070313 9.37632813 -107.78515625 8.37890625 C-99.77117411 -1.22163081 -88.61503866 -7.26593272 -77.125 -11.6875 C-75.45630859 -12.33912109 -75.45630859 -12.33912109 -73.75390625 -13.00390625 C-49.0695884 -21.04522205 -20.46495623 -15.7264261 0 0 Z M-85.53125 33.375 C-97.2948662 47.67586676 -97.125 62.33051098 -97.125 80.3125 C-65.445 80.3125 -33.765 80.3125 -1.125 80.3125 C-1.125 59.71358409 -1.76203436 45.04313749 -16.2265625 30.1484375 C-27.15986825 19.83326917 -38.70025865 16.68801778 -53.34765625 17.00390625 C-66.2434592 17.61461337 -76.78733412 24.13614549 -85.53125 33.375 Z " fill="#000000" transform="translate(305.125,47.6875)"/>
<path d="M0 0 C4.96519463 2.30526893 7.39089701 5.24073974 10 10 C10.51769038 12.98030847 10.46847054 15.88103031 10.390625 18.8984375 C10.38496521 19.73339752 10.37930542 20.56835754 10.37347412 21.42861938 C10.35120223 24.07801266 10.30102523 26.72602016 10.25 29.375 C10.22992302 31.17836579 10.21167435 32.98175292 10.1953125 34.78515625 C10.15136786 39.19063269 10.08240601 43.59508194 10 48 C11.11971191 47.97905273 12.23942383 47.95810547 13.39306641 47.93652344 C17.56383377 47.86389574 21.73454568 47.81811789 25.90576172 47.78027344 C27.70794081 47.76020967 29.51005521 47.73295187 31.31201172 47.69824219 C33.90869136 47.64949171 36.50450729 47.62697918 39.1015625 47.609375 C40.30191635 47.57840729 40.30191635 47.57840729 41.52651978 47.54681396 C46.83916147 47.54470295 49.76422625 48.51659669 54 52 C57.62833663 55.81930172 58.31000458 58.88279006 58.5 64 C58.31000458 69.11720994 57.62833663 72.18069828 54 76 C48.94357099 80.15829141 45.36258981 80.55215211 39.1015625 80.390625 C38.26660248 80.38496521 37.43164246 80.37930542 36.57138062 80.37347412 C33.92198734 80.35120223 31.27397984 80.30102523 28.625 80.25 C26.82163421 80.22992302 25.01824708 80.21167435 23.21484375 80.1953125 C18.80936731 80.15136786 14.40491806 80.08240601 10 80 C10.0314209 81.67956787 10.0314209 81.67956787 10.06347656 83.39306641 C10.13610426 87.56383377 10.18188211 91.73454568 10.21972656 95.90576172 C10.23979033 97.70794081 10.26704813 99.51005521 10.30175781 101.31201172 C10.35050829 103.90869136 10.37302082 106.50450729 10.390625 109.1015625 C10.41127014 109.9017984 10.43191528 110.7020343 10.45318604 111.52651978 C10.45529705 116.83916147 9.48340331 119.76422625 6 124 C2.18069828 127.62833663 -0.88279006 128.31000458 -6 128.5 C-11.11720994 128.31000458 -14.18069828 127.62833663 -18 124 C-22.15829141 118.94357099 -22.55215211 115.36258981 -22.390625 109.1015625 C-22.38496521 108.26660248 -22.37930542 107.43164246 -22.37347412 106.57138062 C-22.35120223 103.92198734 -22.30102523 101.27397984 -22.25 98.625 C-22.22992302 96.82163421 -22.21167435 95.01824708 -22.1953125 93.21484375 C-22.15136786 88.80936731 -22.08240601 84.40491806 -22 80 C-23.67956787 80.0314209 -23.67956787 80.0314209 -25.39306641 80.06347656 C-29.56383377 80.13610426 -33.73454568 80.18188211 -37.90576172 80.21972656 C-39.70794081 80.23979033 -41.51005521 80.26704813 -43.31201172 80.30175781 C-45.90869136 80.35050829 -48.50450729 80.37302082 -51.1015625 80.390625 C-52.30191635 80.42159271 -52.30191635 80.42159271 -53.52651978 80.45318604 C-58.83916147 80.45529705 -61.76422625 79.48340331 -66 76 C-69.62833663 72.18069828 -70.31000458 69.11720994 -70.5 64 C-70.31000458 58.88279006 -69.62833663 55.81930172 -66 52 C-60.94357099 47.84170859 -57.36258981 47.44784789 -51.1015625 47.609375 C-50.26660248 47.61503479 -49.43164246 47.62069458 -48.57138062 47.62652588 C-45.92198734 47.64879777 -43.27397984 47.69897477 -40.625 47.75 C-38.82163421 47.77007698 -37.01824708 47.78832565 -35.21484375 47.8046875 C-30.80936731 47.84863214 -26.40491806 47.91759399 -22 48 C-22.02094727 46.88028809 -22.04189453 45.76057617 -22.06347656 44.60693359 C-22.13610426 40.43616623 -22.18188211 36.26545432 -22.21972656 32.09423828 C-22.23979033 30.29205919 -22.26704813 28.48994479 -22.30175781 26.68798828 C-22.35050829 24.09130864 -22.37302082 21.49549271 -22.390625 18.8984375 C-22.41127014 18.0982016 -22.43191528 17.2979657 -22.45318604 16.47348022 C-22.45529705 11.16083853 -21.48340331 8.23577375 -18 4 C-12.72867143 -1.00776214 -6.89190982 -0.92775709 0 0 Z " fill="#000000" transform="translate(390,320)"/>
</svg>
