<?xml version="1.0" encoding="UTF-8"?>
<svg version="1.1" xmlns="http://www.w3.org/2000/svg" width="512" height="512">
<path d="M0 0 C4.62617051 0.00769322 9.25232479 0.00052458 13.87849617 -0.0041585 C21.6415094 -0.00958832 29.4044365 -0.00249787 37.1674366 0.01186323 C46.09195819 0.02818434 55.01627403 0.02289386 63.94079065 0.00638402 C71.65777273 -0.00731054 79.37469354 -0.0091119 87.09168386 -0.00129998 C91.67680886 0.00333309 96.26183776 0.00412385 100.84695625 -0.00590944 C133.41134561 -0.06735023 166.94329354 0.36382023 192.57319832 23.40297651 C193.48972176 24.1802812 193.48972176 24.1802812 194.42476082 24.97328901 C214.20006805 42.94263211 218.98491691 71.11534411 220.57319832 96.40297651 C220.88381903 103.97180061 220.85630529 111.54404234 220.83882332 119.11782026 C220.84017677 121.23228706 220.84212288 123.34675355 220.84462166 125.46121931 C220.84754168 129.85711888 220.84337777 134.25293624 220.83394051 138.64882612 C220.82255511 144.21638471 220.82911996 149.78375015 220.84108543 155.35130167 C220.84839541 159.70739843 220.84597464 164.06345121 220.84082985 168.41954947 C220.83951808 170.46956166 220.84105161 172.51957818 220.84578896 174.56958532 C220.86489148 185.15354352 220.62276245 195.65007396 219.70112801 206.19814253 C219.62630322 207.07458638 219.55147842 207.95103024 219.47438622 208.85403299 C217.13924715 232.9512242 207.56512531 254.76181511 189.33052254 270.96352339 C184.52034726 274.90361695 179.14591368 277.70339122 173.57319832 280.40297651 C172.61026863 280.88250776 171.64733894 281.36203901 170.65522957 281.85610151 C159.17184898 287.11469787 146.12938338 289.59290006 133.57319832 290.40297651 C133.55901863 291.20477339 133.54483894 292.00657026 133.53022957 292.83266401 C132.70455631 312.51492932 125.98385963 332.65681366 112.57319832 347.40297651 C111.86937019 348.20992964 111.16554207 349.01688276 110.44038582 349.84828901 C92.57591843 369.12776372 65.96235747 375.49233497 40.54194832 376.52626753 C36.39299369 376.64425507 32.24473302 376.760979 28.09468269 376.83266401 C21.61001816 377.03054316 16.73568575 377.2723541 11.90132332 382.05800581 C7.47459244 386.93531465 3.61663867 392.25932414 -0.23930168 397.59047651 C-1.46505523 399.26554794 -2.69162188 400.94002467 -3.91898918 402.61391401 C-4.51421379 403.42699018 -5.1094384 404.24006636 -5.72270012 405.0777812 C-21.56897652 426.6995486 -21.56897652 426.6995486 -30.42680168 428.40297651 C-38.8365724 429.1145725 -45.38985856 428.36934908 -52.25492668 423.32485151 C-56.12618908 420.00464563 -58.92282504 415.97541767 -61.86430168 411.84047651 C-63.09445135 410.15014009 -64.32493175 408.46004432 -65.55570793 406.77016401 C-67.51427281 404.06137258 -69.46592311 401.34811968 -71.40678215 398.62660933 C-73.35771817 395.89577883 -75.32858913 393.18023548 -77.30180168 390.46547651 C-78.19210075 389.19691816 -78.19210075 389.19691816 -79.10038567 387.90273237 C-82.8334076 382.7964898 -86.1713012 379.05516148 -92.42680168 377.40297651 C-96.66087989 376.86914311 -100.85030325 376.80301449 -105.11430168 376.77797651 C-107.53367558 376.72380532 -109.95295324 376.66516305 -112.37211418 376.60219526 C-113.56610832 376.57303022 -114.76010246 376.54386518 -115.99027824 376.51381636 C-134.07326293 375.93057715 -153.30076492 374.20134217 -169.42680168 365.40297651 C-170.26340324 364.9737187 -171.10000481 364.54446089 -171.96195793 364.10219526 C-187.44636841 355.60611224 -196.03092956 341.26005752 -201.40336418 324.92641401 C-207.69865717 303.2533061 -207.74348442 280.23360756 -207.69242668 257.82485151 C-207.69378099 255.66886556 -207.69572779 253.5128799 -207.69822502 251.35689497 C-207.70113788 246.88654818 -207.69700299 242.41628247 -207.68754387 237.94594526 C-207.6761238 232.27975626 -207.68274982 226.61375633 -207.6946888 220.94757414 C-207.7019887 216.51174756 -207.69958307 212.07596428 -207.69443321 207.64013624 C-207.69312052 205.5530134 -207.69465845 203.46588633 -207.69939232 201.37876844 C-207.71795936 190.90463429 -207.51266337 180.51872662 -206.55082512 170.08364058 C-206.47547665 169.2539715 -206.40012817 168.42430243 -206.32249641 167.56949186 C-204.41008849 148.95103304 -198.26719258 131.00612529 -186.42680168 116.40297651 C-185.87250481 115.6849687 -185.31820793 114.96696089 -184.74711418 114.22719526 C-170.81531956 97.06242438 -146.89474517 88.63644268 -125.42680168 86.40297651 C-123.76032735 86.37765715 -122.09314227 86.37000934 -120.42680168 86.40297651 C-120.47900871 84.69174604 -120.47900871 84.69174604 -120.53227043 82.94594526 C-120.52723983 78.36910282 -119.76952432 74.16187873 -118.73930168 69.71547651 C-118.55996086 68.93164595 -118.38062004 68.14781538 -118.19584465 67.34023237 C-113.14310578 46.14427425 -102.42439606 27.25344203 -83.7310009 15.32045698 C-57.92193879 -0.33235975 -29.2283203 -0.06395826 0 0 Z " fill="#4185E9" transform="translate(249.42680168151855,41.597023487091064)"/>
<path d="M0 0 C4.62617051 0.00769322 9.25232479 0.00052458 13.87849617 -0.0041585 C21.6415094 -0.00958832 29.4044365 -0.00249787 37.1674366 0.01186323 C46.09195819 0.02818434 55.01627403 0.02289386 63.94079065 0.00638402 C71.65777273 -0.00731054 79.37469354 -0.0091119 87.09168386 -0.00129998 C91.67680886 0.00333309 96.26183776 0.00412385 100.84695625 -0.00590944 C133.41134561 -0.06735023 166.94329354 0.36382023 192.57319832 23.40297651 C193.48972176 24.1802812 193.48972176 24.1802812 194.42476082 24.97328901 C214.20006805 42.94263211 218.98491691 71.11534411 220.57319832 96.40297651 C220.88381903 103.97180061 220.85630529 111.54404234 220.83882332 119.11782026 C220.84017677 121.23228706 220.84212288 123.34675355 220.84462166 125.46121931 C220.84754168 129.85711888 220.84337777 134.25293624 220.83394051 138.64882612 C220.82255511 144.21638471 220.82911996 149.78375015 220.84108543 155.35130167 C220.84839541 159.70739843 220.84597464 164.06345121 220.84082985 168.41954947 C220.83951808 170.46956166 220.84105161 172.51957818 220.84578896 174.56958532 C220.86489148 185.15354352 220.62276245 195.65007396 219.70112801 206.19814253 C219.62630322 207.07458638 219.55147842 207.95103024 219.47438622 208.85403299 C217.13924715 232.9512242 207.56512531 254.76181511 189.33052254 270.96352339 C184.52034726 274.90361695 179.14591368 277.70339122 173.57319832 280.40297651 C172.61026863 280.88250776 171.64733894 281.36203901 170.65522957 281.85610151 C160.56775885 286.47546741 149.31244582 288.90151907 138.2924366 289.9527812 C136.96105156 290.08121412 136.96105156 290.08121412 135.60276985 290.21224165 C134.93301125 290.27518415 134.26325264 290.33812666 133.57319832 290.40297651 C133.57173176 289.79873256 133.5702652 289.1944886 133.5687542 288.57193422 C133.53146265 273.76839338 133.47215737 258.96505851 133.38929558 244.16170931 C133.34973518 237.00246392 133.31722742 229.84332479 133.30220222 222.68398237 C133.28906482 216.43313934 133.26179944 210.18253238 133.21858525 203.93182248 C133.19623708 200.63179996 133.18238229 197.33212159 133.18131447 194.03201437 C133.16140085 163.3130494 129.36454336 133.62948924 106.89351082 110.68813276 C96.60241761 101.406453 84.12609004 95.55435852 70.94819832 91.71547651 C70.27522713 91.51293257 69.60225594 91.31038862 68.90889168 91.10170698 C55.46990009 87.39876526 41.34278259 87.10269524 27.4967823 87.08412886 C25.8686748 87.07479848 24.24057194 87.06462538 22.61247444 87.05368757 C18.25205971 87.02672326 13.89167663 87.0113396 9.53120112 86.99825954 C4.95215135 86.98247964 0.37316489 86.95573803 -4.20583916 86.93022871 C-12.85028651 86.88370107 -21.49474614 86.84683227 -30.13925356 86.81355584 C-39.99197864 86.77514901 -49.84463971 86.72578839 -59.69731057 86.67557168 C-79.94042682 86.57263943 -100.18358373 86.48325492 -120.42680168 86.40297651 C-120.46802423 77.57453248 -120.46802423 77.57453248 -119.72758293 74.14125776 C-119.57305656 73.42139692 -119.4185302 72.70153608 -119.25932121 71.95986128 C-119.08771477 71.21921431 -118.91610832 70.47856733 -118.73930168 69.71547651 C-118.55996086 68.93164595 -118.38062004 68.14781538 -118.19584465 67.34023237 C-113.14310578 46.14427425 -102.42439606 27.25344203 -83.7310009 15.32045698 C-57.92193879 -0.33235975 -29.2283203 -0.06395826 0 0 Z " fill="#4E78EB" transform="translate(249.42680168151855,41.597023487091064)"/>
</svg>
